<?xml version="1.0" encoding="UTF-8" standalone="no"?>
<!DOCTYPE svg PUBLIC "-//W3C//DTD SVG 1.1//EN"
 "http://www.w3.org/Graphics/SVG/1.1/DTD/svg11.dtd">
<!-- Generated by graphviz version 2.36.0 (20140111.2315)
 -->
<!-- Title: labelings Pages: 1 -->
<svg width="1200pt" height="547pt"
 viewBox="0.00 0.00 1200.00 547.00" xmlns="http://www.w3.org/2000/svg" xmlns:xlink="http://www.w3.org/1999/xlink">
<g id="graph0" class="graph" transform="scale(1 1) rotate(0) translate(4 543)">
<title>labelings</title>
<polygon fill="white" stroke="none" points="-4,4 -4,-543 1196,-543 1196,4 -4,4"/>
<g id="clust3" class="cluster"><title>cluster_alpha</title>
<polygon fill="none" stroke="black" points="8,-186 8,-295 152,-295 152,-186 8,-186"/>
</g>
<g id="clust7" class="cluster"><title>cluster_beta</title>
<polygon fill="none" stroke="black" points="616,-250 616,-359 764,-359 764,-250 616,-250"/>
</g>
<g id="clust9" class="cluster"><title>cluster_rho</title>
<polygon fill="none" stroke="black" points="918,-148 918,-257 1184,-257 1184,-148 918,-148"/>
</g>
<g id="clust11" class="cluster"><title>cluster_harmonious</title>
<polygon fill="none" stroke="black" points="621,-367 621,-531 759,-531 759,-367 621,-367"/>
</g>
<!-- cordial -->
<g id="node1" class="node"><title>cordial</title>
<path fill="khaki" stroke="black" d="M822.5,-376C822.5,-376 859.5,-376 859.5,-376 865.5,-376 871.5,-382 871.5,-388 871.5,-388 871.5,-400 871.5,-400 871.5,-406 865.5,-412 859.5,-412 859.5,-412 822.5,-412 822.5,-412 816.5,-412 810.5,-406 810.5,-400 810.5,-400 810.5,-388 810.5,-388 810.5,-382 816.5,-376 822.5,-376"/>
<text text-anchor="middle" x="841" y="-390.3" font-family="georgia" font-size="14.00">cordial</text>
</g>
<!-- inf_beta -->
<g id="node2" class="node"><title>inf_beta</title>
<path fill="khaki" stroke="black" stroke-dasharray="5,2" d="M636.5,-314C636.5,-314 743.5,-314 743.5,-314 749.5,-314 755.5,-320 755.5,-326 755.5,-326 755.5,-338 755.5,-338 755.5,-344 749.5,-350 743.5,-350 743.5,-350 636.5,-350 636.5,-350 630.5,-350 624.5,-344 624.5,-338 624.5,-338 624.5,-326 624.5,-326 624.5,-320 630.5,-314 636.5,-314"/>
<text text-anchor="middle" x="690" y="-328.3" font-family="georgia" font-size="14.00">β for infinite trees</text>
</g>
<!-- beta -->
<g id="node3" class="node"><title>beta</title>
<path fill="#9ac0cd" stroke="lightblue" d="M655,-259C655,-259 725,-259 725,-259 731,-259 737,-265 737,-271 737,-271 737,-283 737,-283 737,-289 731,-295 725,-295 725,-295 655,-295 655,-295 649,-295 643,-289 643,-283 643,-283 643,-271 643,-271 643,-265 649,-259 655,-259"/>
<text text-anchor="start" x="651" y="-274.3" font-family="georgia" font-weight="bold" font-size="14.00">β, graceful</text>
</g>
<!-- beta&#45;&gt;cordial -->
<g id="edge9" class="edge"><title>beta&#45;&gt;cordial</title>
<path fill="none" stroke="black" d="M737.172,-290.702C746.494,-294.548 755.907,-299.282 764,-305 787.887,-321.879 808.942,-347.917 822.795,-367.476"/>
<polygon fill="black" stroke="black" points="820.081,-369.705 828.638,-375.951 825.844,-365.732 820.081,-369.705"/>
</g>
<!-- sigma -->
<g id="node17" class="node"><title>sigma</title>
<path fill="lightblue" stroke="lightblue" d="M826,-110C826,-110 856,-110 856,-110 862,-110 868,-116 868,-122 868,-122 868,-134 868,-134 868,-140 862,-146 856,-146 856,-146 826,-146 826,-146 820,-146 814,-140 814,-134 814,-134 814,-122 814,-122 814,-116 820,-110 826,-110"/>
<text text-anchor="middle" x="841" y="-124.3" font-family="georgia" font-size="14.00">σ</text>
</g>
<!-- beta&#45;&gt;sigma -->
<g id="edge15" class="edge"><title>beta&#45;&gt;sigma</title>
<path fill="none" stroke="black" d="M714.755,-258.918C730.132,-246.376 749.85,-228.631 764,-210 780.591,-188.156 773.011,-174.794 792,-155 795.806,-151.033 800.324,-147.485 805.042,-144.37"/>
<polygon fill="black" stroke="black" points="806.852,-147.365 813.639,-139.23 803.26,-141.357 806.852,-147.365"/>
</g>
<!-- super_beta -->
<g id="node22" class="node"><title>super_beta</title>
<path fill="lightblue" stroke="lightblue" d="M821,-259C821,-259 861,-259 861,-259 867,-259 873,-265 873,-271 873,-271 873,-283 873,-283 873,-289 867,-295 861,-295 861,-295 821,-295 821,-295 815,-295 809,-289 809,-283 809,-283 809,-271 809,-271 809,-265 815,-259 821,-259"/>
<text text-anchor="middle" x="841" y="-273.3" font-family="georgia" font-size="14.00">super β</text>
</g>
<!-- beta&#45;&gt;super_beta -->
<g id="edge26" class="edge"><title>beta&#45;&gt;super_beta</title>
<path fill="none" stroke="black" d="M737.328,-277C756.934,-277 779.592,-277 798.627,-277"/>
<polygon fill="black" stroke="black" points="798.787,-280.5 808.787,-277 798.787,-273.5 798.787,-280.5"/>
</g>
<!-- seq -->
<g id="node4" class="node"><title>seq</title>
<path fill="#9ac0cd" stroke="lightblue" d="M295.5,-305C295.5,-305 366.5,-305 366.5,-305 372.5,-305 378.5,-311 378.5,-317 378.5,-317 378.5,-329 378.5,-329 378.5,-335 372.5,-341 366.5,-341 366.5,-341 295.5,-341 295.5,-341 289.5,-341 283.5,-335 283.5,-329 283.5,-329 283.5,-317 283.5,-317 283.5,-311 289.5,-305 295.5,-305"/>
<text text-anchor="start" x="291.5" y="-320.3" font-family="georgia" font-weight="bold" font-size="14.00">sequential</text>
</g>
<!-- semt -->
<g id="node9" class="node"><title>semt</title>
<path fill="lightblue" stroke="lightblue" d="M434,-415C434,-415 574,-415 574,-415 580,-415 586,-421 586,-427 586,-427 586,-439 586,-439 586,-445 580,-451 574,-451 574,-451 434,-451 434,-451 428,-451 422,-445 422,-439 422,-439 422,-427 422,-427 422,-421 428,-415 434,-415"/>
<text text-anchor="middle" x="504" y="-429.3" font-family="georgia" font-size="14.00">super&#45;edge&#45;magic total</text>
</g>
<!-- seq&#45;&gt;semt -->
<g id="edge4" class="edge"><title>seq&#45;&gt;semt</title>
<path fill="none" stroke="black" d="M347.129,-341.04C363.423,-359.438 390.945,-387.673 420,-405 423.429,-407.045 427.027,-408.964 430.724,-410.763"/>
<polygon fill="black" stroke="black" points="429.522,-414.061 440.076,-414.989 432.404,-407.682 429.522,-414.061"/>
</g>
<!-- felicitous -->
<g id="node25" class="node"><title>felicitous</title>
<path fill="lightblue" stroke="lightblue" d="M479,-305C479,-305 529,-305 529,-305 535,-305 541,-311 541,-317 541,-317 541,-329 541,-329 541,-335 535,-341 529,-341 529,-341 479,-341 479,-341 473,-341 467,-335 467,-329 467,-329 467,-317 467,-317 467,-311 473,-305 479,-305"/>
<text text-anchor="middle" x="504" y="-319.3" font-family="georgia" font-size="14.00">felicitous</text>
</g>
<!-- seq&#45;&gt;felicitous -->
<g id="edge27" class="edge"><title>seq&#45;&gt;felicitous</title>
<path fill="none" stroke="black" d="M378.727,-323C403.04,-323 432.661,-323 456.885,-323"/>
<polygon fill="black" stroke="black" points="456.905,-326.5 466.905,-323 456.905,-319.5 456.905,-326.5"/>
</g>
<!-- antimagic -->
<g id="node28" class="node"><title>antimagic</title>
<path fill="lightblue" stroke="lightblue" d="M440,-470C440,-470 568,-470 568,-470 574,-470 580,-476 580,-482 580,-482 580,-494 580,-494 580,-500 574,-506 568,-506 568,-506 440,-506 440,-506 434,-506 428,-500 428,-494 428,-494 428,-482 428,-482 428,-476 434,-470 440,-470"/>
<text text-anchor="middle" x="504" y="-484.3" font-family="georgia" font-size="14.00">(a, 1)&#45;edge&#45;antimagic</text>
</g>
<!-- seq&#45;&gt;antimagic -->
<g id="edge30" class="edge"><title>seq&#45;&gt;antimagic</title>
<path fill="none" stroke="black" d="M339.038,-341.345C351.173,-370.609 378.769,-427.829 420,-460 422.098,-461.637 424.297,-463.181 426.574,-464.638"/>
<polygon fill="black" stroke="black" points="425.267,-467.921 435.689,-469.829 428.732,-461.839 425.267,-467.921"/>
</g>
<!-- k_seq_add -->
<g id="node30" class="node"><title>k_seq_add</title>
<path fill="lightblue" stroke="lightblue" d="M462.5,-250C462.5,-250 545.5,-250 545.5,-250 551.5,-250 557.5,-256 557.5,-262 557.5,-262 557.5,-274 557.5,-274 557.5,-280 551.5,-286 545.5,-286 545.5,-286 462.5,-286 462.5,-286 456.5,-286 450.5,-280 450.5,-274 450.5,-274 450.5,-262 450.5,-262 450.5,-256 456.5,-250 462.5,-250"/>
<text text-anchor="middle" x="504" y="-264.3" font-family="georgia" font-size="14.00">k&#45;seq&#45;additive</text>
</g>
<!-- seq&#45;&gt;k_seq_add -->
<g id="edge31" class="edge"><title>seq&#45;&gt;k_seq_add</title>
<path fill="none" stroke="black" d="M378.727,-307.971C397.849,-301.821 420.254,-294.614 440.734,-288.027"/>
<polygon fill="black" stroke="black" points="441.851,-291.344 450.299,-284.951 439.708,-284.681 441.851,-291.344"/>
</g>
<!-- alpha -->
<g id="node5" class="node"><title>alpha</title>
<path fill="lightcoral" stroke="lightcoral" d="M65,-250C65,-250 95,-250 95,-250 101,-250 107,-256 107,-262 107,-262 107,-274 107,-274 107,-280 101,-286 95,-286 95,-286 65,-286 65,-286 59,-286 53,-280 53,-274 53,-274 53,-262 53,-262 53,-256 59,-250 65,-250"/>
<text text-anchor="middle" x="80" y="-264.3" font-family="georgia" font-size="14.00">α</text>
</g>
<!-- beta_plus_seq -->
<g id="node7" class="node"><title>beta_plus_seq</title>
<path fill="lightblue" stroke="lightblue" d="M195.5,-250C195.5,-250 226.5,-250 226.5,-250 232.5,-250 238.5,-256 238.5,-262 238.5,-262 238.5,-274 238.5,-274 238.5,-280 232.5,-286 226.5,-286 226.5,-286 195.5,-286 195.5,-286 189.5,-286 183.5,-280 183.5,-274 183.5,-274 183.5,-262 183.5,-262 183.5,-256 189.5,-250 195.5,-250"/>
<text text-anchor="start" x="191.5" y="-265.3" font-family="georgia" font-size="14.00">β</text>
<text text-anchor="start" x="200.5" y="-265.3" font-family="georgia" baseline-shift="super" font-size="10.00">+</text>
<text text-anchor="start" x="208.5" y="-265.3" font-family="georgia" font-size="14.00">seq</text>
</g>
<!-- alpha&#45;&gt;beta_plus_seq -->
<g id="edge1" class="edge"><title>alpha&#45;&gt;beta_plus_seq</title>
<path fill="none" stroke="black" d="M107.105,-268C126.125,-268 152.149,-268 173.266,-268"/>
<polygon fill="black" stroke="black" points="173.491,-271.5 183.491,-268 173.491,-264.5 173.491,-271.5"/>
</g>
<!-- alpha_deg3 -->
<g id="node6" class="node"><title>alpha_deg3</title>
<path fill="lightblue" stroke="black" stroke-dasharray="5,2" d="M28,-195C28,-195 132,-195 132,-195 138,-195 144,-201 144,-207 144,-207 144,-219 144,-219 144,-225 138,-231 132,-231 132,-231 28,-231 28,-231 22,-231 16,-225 16,-219 16,-219 16,-207 16,-207 16,-201 22,-195 28,-195"/>
<text text-anchor="middle" x="80" y="-209.3" font-family="georgia" font-size="14.00">α for max deg = 3</text>
</g>
<!-- beta_plus_seq&#45;&gt;seq -->
<g id="edge2" class="edge"><title>beta_plus_seq&#45;&gt;seq</title>
<path fill="none" stroke="black" d="M238.776,-280.48C251.494,-286.408 267.093,-293.679 281.772,-300.521"/>
<polygon fill="black" stroke="black" points="280.702,-303.884 291.245,-304.936 283.66,-297.539 280.702,-303.884"/>
</g>
<!-- beta_plus -->
<g id="node8" class="node"><title>beta_plus</title>
<path fill="lightblue" stroke="lightblue" d="M316,-180C316,-180 346,-180 346,-180 352,-180 358,-186 358,-192 358,-192 358,-204 358,-204 358,-210 352,-216 346,-216 346,-216 316,-216 316,-216 310,-216 304,-210 304,-204 304,-204 304,-192 304,-192 304,-186 310,-180 316,-180"/>
<text text-anchor="start" x="322.5" y="-195.3" font-family="georgia" font-size="14.00">β</text>
<text text-anchor="start" x="331.5" y="-195.3" font-family="georgia" baseline-shift="super" font-size="10.00">+</text>
</g>
<!-- beta_plus_seq&#45;&gt;beta_plus -->
<g id="edge3" class="edge"><title>beta_plus_seq&#45;&gt;beta_plus</title>
<path fill="none" stroke="black" d="M238.776,-252.116C255.337,-242.292 276.783,-229.569 294.721,-218.928"/>
<polygon fill="black" stroke="black" points="296.922,-221.692 303.736,-213.58 293.35,-215.672 296.922,-221.692"/>
</g>
<!-- beta_plus&#45;&gt;beta -->
<g id="edge7" class="edge"><title>beta_plus&#45;&gt;beta</title>
<path fill="none" stroke="black" d="M358.117,-200.846C404.785,-206.272 505.347,-219.507 588,-241 603.222,-244.958 619.398,-250.225 634.241,-255.506"/>
<polygon fill="black" stroke="black" points="633.184,-258.846 643.778,-258.964 635.57,-252.265 633.184,-258.846"/>
</g>
<!-- rho_sigma -->
<g id="node11" class="node"><title>rho_sigma</title>
<path fill="lightblue" stroke="none" d="M468.5,-110C468.5,-110 539.5,-110 539.5,-110 545.5,-110 551.5,-116 551.5,-122 551.5,-122 551.5,-134 551.5,-134 551.5,-140 545.5,-146 539.5,-146 539.5,-146 468.5,-146 468.5,-146 462.5,-146 456.5,-140 456.5,-134 456.5,-134 456.5,-122 456.5,-122 456.5,-116 462.5,-110 468.5,-110"/>
<text text-anchor="start" x="464.5" y="-125.3" font-family="georgia" font-size="14.00">ρ</text>
<text text-anchor="start" x="473.5" y="-125.3" font-family="georgia" baseline-shift="super" font-size="10.00">++</text>
<text text-anchor="start" x="489.5" y="-125.3" font-family="georgia" font-size="14.00">bi</text>
<polyline fill="none" stroke="black" points="510.5,-110 510.5,-146 "/>
<text text-anchor="start" x="518.5" y="-125.3" font-family="georgia" font-size="14.00">σ</text>
<text text-anchor="start" x="527.5" y="-125.3" font-family="georgia" baseline-shift="super" font-size="10.00">++</text>
</g>
<!-- beta_plus&#45;&gt;rho_sigma -->
<g id="edge6" class="edge"><title>beta_plus&#45;&gt;rho_sigma</title>
<path fill="none" stroke="black" d="M358.344,-187.216C382.521,-177.319 419.077,-162.354 449.39,-149.945"/>
<polygon fill="black" stroke="black" points="451.061,-153.044 458.989,-146.016 448.409,-146.565 451.061,-153.044"/>
</g>
<!-- odd_beta_plus -->
<g id="node20" class="node"><title>odd_beta_plus</title>
<path fill="lightblue" stroke="lightblue" d="M670.5,-165C670.5,-165 709.5,-165 709.5,-165 715.5,-165 721.5,-171 721.5,-177 721.5,-177 721.5,-189 721.5,-189 721.5,-195 715.5,-201 709.5,-201 709.5,-201 670.5,-201 670.5,-201 664.5,-201 658.5,-195 658.5,-189 658.5,-189 658.5,-177 658.5,-177 658.5,-171 664.5,-165 670.5,-165"/>
<text text-anchor="middle" x="690" y="-179.3" font-family="georgia" font-size="14.00">odd&#45;β+</text>
</g>
<!-- beta_plus&#45;&gt;odd_beta_plus -->
<g id="edge22" class="edge"><title>beta_plus&#45;&gt;odd_beta_plus</title>
<path fill="none" stroke="black" d="M358.251,-196.897C419.872,-194.308 574.148,-187.826 648.151,-184.716"/>
<polygon fill="black" stroke="black" points="648.622,-188.2 658.467,-184.283 648.328,-181.206 648.622,-188.2"/>
</g>
<!-- harm -->
<g id="node10" class="node"><title>harm</title>
<path fill="lightblue" stroke="lightblue" d="M655.5,-486C655.5,-486 724.5,-486 724.5,-486 730.5,-486 736.5,-492 736.5,-498 736.5,-498 736.5,-510 736.5,-510 736.5,-516 730.5,-522 724.5,-522 724.5,-522 655.5,-522 655.5,-522 649.5,-522 643.5,-516 643.5,-510 643.5,-510 643.5,-498 643.5,-498 643.5,-492 649.5,-486 655.5,-486"/>
<text text-anchor="middle" x="690" y="-500.3" font-family="georgia" font-size="14.00">harmonious</text>
</g>
<!-- semt&#45;&gt;harm -->
<g id="edge5" class="edge"><title>semt&#45;&gt;harm</title>
<path fill="none" stroke="black" d="M562.623,-451.05C571.219,-454.142 579.906,-457.496 588,-461 600.956,-466.609 603.162,-470.127 616,-476 621.751,-478.631 627.827,-481.232 633.919,-483.726"/>
<polygon fill="black" stroke="black" points="632.877,-487.079 643.461,-487.548 635.479,-480.581 632.877,-487.079"/>
</g>
<!-- harm&#45;&gt;cordial -->
<g id="edge10" class="edge"><title>harm&#45;&gt;cordial</title>
<path fill="none" stroke="black" d="M736.612,-490.201C746.071,-486.343 755.68,-481.629 764,-476 786.244,-460.951 806.643,-438.217 820.695,-420.5"/>
<polygon fill="black" stroke="black" points="823.716,-422.314 827.063,-412.261 818.178,-418.033 823.716,-422.314"/>
</g>
<!-- rho_bi -->
<g id="node14" class="node"><title>rho_bi</title>
<path fill="lightblue" stroke="none" d="M938,-212C938,-212 1164,-212 1164,-212 1170,-212 1176,-218 1176,-224 1176,-224 1176,-236 1176,-236 1176,-242 1170,-248 1164,-248 1164,-248 938,-248 938,-248 932,-248 926,-242 926,-236 926,-236 926,-224 926,-224 926,-218 932,-212 938,-212"/>
<text text-anchor="start" x="934" y="-226.3" font-family="georgia" font-size="14.00">ρ bigraceful</text>
<polyline fill="none" stroke="black" points="1018,-212 1018,-248 "/>
<text text-anchor="start" x="1026" y="-227.3" font-family="georgia" font-size="14.00">Ringel&#45;Kotzig for K</text>
<text text-anchor="start" x="1148" y="-227.3" font-family="georgia" baseline-shift="sub" font-size="11.00">n, n</text>
</g>
<!-- harm&#45;&gt;rho_bi -->
<g id="edge11" class="edge"><title>harm&#45;&gt;rho_bi</title>
<path fill="none" stroke="black" d="M736.563,-492.041C779.172,-479.307 843.1,-456.104 890,-421 953.104,-373.768 1007.44,-297.005 1033.51,-256.681"/>
<polygon fill="black" stroke="black" points="1036.51,-258.498 1038.94,-248.185 1030.61,-254.731 1036.51,-258.498"/>
</g>
<!-- rho_sigma&#45;&gt;rho_bi -->
<g id="edge12" class="edge"><title>rho_sigma&#45;&gt;rho_bi</title>
<path fill="none" stroke="black" d="M522.614,-146.345C542.975,-166.165 578.52,-196.693 616,-210 712.162,-244.141 827.892,-247.783 915.653,-243.626"/>
<polygon fill="black" stroke="black" points="915.865,-247.12 925.672,-243.112 915.506,-240.129 915.865,-247.12"/>
</g>
<!-- rho_pp -->
<g id="node15" class="node"><title>rho_pp</title>
<path fill="lightblue" stroke="lightblue" d="M675,-0C675,-0 705,-0 705,-0 711,-0 717,-6 717,-12 717,-12 717,-24 717,-24 717,-30 711,-36 705,-36 705,-36 675,-36 675,-36 669,-36 663,-30 663,-24 663,-24 663,-12 663,-12 663,-6 669,-0 675,-0"/>
<text text-anchor="start" x="677.5" y="-15.3" font-family="georgia" font-size="14.00">ρ</text>
<text text-anchor="start" x="686.5" y="-15.3" font-family="georgia" baseline-shift="super" font-size="10.00">++</text>
</g>
<!-- rho_sigma&#45;&gt;rho_pp -->
<g id="edge13" class="edge"><title>rho_sigma&#45;&gt;rho_pp</title>
<path fill="none" stroke="black" d="M525.453,-109.841C546.839,-91.5668 581.968,-63.5106 616,-45 627.592,-38.6948 640.963,-33.2711 653.069,-28.9739"/>
<polygon fill="black" stroke="black" points="654.536,-32.1718 662.873,-25.6345 652.279,-25.5456 654.536,-32.1718"/>
</g>
<!-- sigma_p -->
<g id="node16" class="node"><title>sigma_p</title>
<path fill="lightblue" stroke="lightblue" d="M675,-55C675,-55 705,-55 705,-55 711,-55 717,-61 717,-67 717,-67 717,-79 717,-79 717,-85 711,-91 705,-91 705,-91 675,-91 675,-91 669,-91 663,-85 663,-79 663,-79 663,-67 663,-67 663,-61 669,-55 675,-55"/>
<text text-anchor="start" x="681.5" y="-70.3" font-family="georgia" font-size="14.00">σ</text>
<text text-anchor="start" x="690.5" y="-70.3" font-family="georgia" baseline-shift="super" font-size="10.00">+</text>
</g>
<!-- rho_sigma&#45;&gt;sigma_p -->
<g id="edge14" class="edge"><title>rho_sigma&#45;&gt;sigma_p</title>
<path fill="none" stroke="black" d="M551.907,-113.979C583.433,-104.555 624.344,-92.3265 653.242,-83.6884"/>
<polygon fill="black" stroke="black" points="654.349,-87.0107 662.928,-80.7933 652.344,-80.3039 654.349,-87.0107"/>
</g>
<!-- alpha_2 -->
<g id="node31" class="node"><title>alpha_2</title>
<path fill="lightblue" stroke="lightblue" d="M675,-110C675,-110 705,-110 705,-110 711,-110 717,-116 717,-122 717,-122 717,-134 717,-134 717,-140 711,-146 705,-146 705,-146 675,-146 675,-146 669,-146 663,-140 663,-134 663,-134 663,-122 663,-122 663,-116 669,-110 675,-110"/>
<text text-anchor="start" x="682" y="-125.3" font-family="georgia" font-size="14.00">α</text>
<text text-anchor="start" x="691" y="-125.3" font-family="georgia" baseline-shift="sub" font-size="11.00">2</text>
</g>
<!-- rho_sigma&#45;&gt;alpha_2 -->
<g id="edge33" class="edge"><title>rho_sigma&#45;&gt;alpha_2</title>
<path fill="none" stroke="black" d="M551.907,-128C583.295,-128 623.987,-128 652.863,-128"/>
<polygon fill="black" stroke="black" points="652.928,-131.5 662.928,-128 652.928,-124.5 652.928,-131.5"/>
</g>
<!-- beta_rot -->
<g id="node12" class="node"><title>beta_rot</title>
<path fill="lightblue" stroke="black" stroke-dasharray="5,2" d="M432,-360C432,-360 576,-360 576,-360 582,-360 588,-366 588,-372 588,-372 588,-384 588,-384 588,-390 582,-396 576,-396 576,-396 432,-396 432,-396 426,-396 420,-390 420,-384 420,-384 420,-372 420,-372 420,-366 426,-360 432,-360"/>
<text text-anchor="middle" x="504" y="-374.3" font-family="georgia" font-size="14.00">max&#45;edge β&#45;rotatability</text>
</g>
<!-- beta_rot&#45;&gt;beta -->
<g id="edge8" class="edge"><title>beta_rot&#45;&gt;beta</title>
<path fill="none" stroke="black" d="M572.369,-359.903C577.926,-357.056 583.231,-353.776 588,-350 606.467,-335.376 597.836,-319.998 616,-305 621.274,-300.645 627.301,-296.919 633.579,-293.744"/>
<polygon fill="black" stroke="black" points="635.263,-296.823 642.898,-289.477 632.349,-290.458 635.263,-296.823"/>
</g>
<!-- rho -->
<g id="node13" class="node"><title>rho</title>
<path fill="lightblue" stroke="none" d="M978,-157C978,-157 1124,-157 1124,-157 1130,-157 1136,-163 1136,-169 1136,-169 1136,-181 1136,-181 1136,-187 1130,-193 1124,-193 1124,-193 978,-193 978,-193 972,-193 966,-187 966,-181 966,-181 966,-169 966,-169 966,-163 972,-157 978,-157"/>
<text text-anchor="start" x="974" y="-171.3" font-family="georgia" font-size="14.00">ρ</text>
<polyline fill="none" stroke="black" points="991,-157 991,-193 "/>
<text text-anchor="start" x="999" y="-172.3" font-family="georgia" font-size="14.00">Ringel&#45;Kotzig for K</text>
<text text-anchor="start" x="1121" y="-172.3" font-family="georgia" baseline-shift="sub" font-size="11.00">n</text>
</g>
<!-- rho_p -->
<g id="node18" class="node"><title>rho_p</title>
<path fill="lightblue" stroke="lightblue" d="M826,-55C826,-55 856,-55 856,-55 862,-55 868,-61 868,-67 868,-67 868,-79 868,-79 868,-85 862,-91 856,-91 856,-91 826,-91 826,-91 820,-91 814,-85 814,-79 814,-79 814,-67 814,-67 814,-61 820,-55 826,-55"/>
<text text-anchor="start" x="832.5" y="-70.3" font-family="georgia" font-size="14.00">ρ</text>
<text text-anchor="start" x="841.5" y="-70.3" font-family="georgia" baseline-shift="super" font-size="10.00">+</text>
</g>
<!-- rho_pp&#45;&gt;rho_p -->
<g id="edge17" class="edge"><title>rho_pp&#45;&gt;rho_p</title>
<path fill="none" stroke="black" d="M717.295,-27.7063C741.552,-36.6601 777.757,-50.0243 804.558,-59.9175"/>
<polygon fill="black" stroke="black" points="803.374,-63.2112 813.968,-63.3907 805.798,-56.6443 803.374,-63.2112"/>
</g>
<!-- sigma_p&#45;&gt;sigma -->
<g id="edge16" class="edge"><title>sigma_p&#45;&gt;sigma</title>
<path fill="none" stroke="black" d="M717.295,-82.7063C741.552,-91.6601 777.757,-105.024 804.558,-114.918"/>
<polygon fill="black" stroke="black" points="803.374,-118.211 813.968,-118.391 805.798,-111.644 803.374,-118.211"/>
</g>
<!-- sigma_p&#45;&gt;rho_p -->
<g id="edge18" class="edge"><title>sigma_p&#45;&gt;rho_p</title>
<path fill="none" stroke="black" d="M717.295,-73C741.339,-73 777.123,-73 803.851,-73"/>
<polygon fill="black" stroke="black" points="803.968,-76.5001 813.968,-73 803.968,-69.5001 803.968,-76.5001"/>
</g>
<!-- sigma&#45;&gt;rho -->
<g id="edge19" class="edge"><title>sigma&#45;&gt;rho</title>
<path fill="none" stroke="black" d="M868.343,-133.953C891.625,-139.213 926.97,-147.2 960.314,-154.734"/>
<polygon fill="black" stroke="black" points="959.591,-158.159 970.116,-156.949 961.134,-151.331 959.591,-158.159"/>
</g>
<!-- rho_p&#45;&gt;rho -->
<g id="edge20" class="edge"><title>rho_p&#45;&gt;rho</title>
<path fill="none" stroke="black" d="M868.343,-85.9184C902.389,-102.614 962.232,-131.96 1003.89,-152.388"/>
<polygon fill="black" stroke="black" points="1002.49,-155.6 1013.01,-156.861 1005.57,-149.315 1002.49,-155.6"/>
</g>
<!-- k_beta_p -->
<g id="node19" class="node"><title>k_beta_p</title>
<path fill="lightblue" stroke="black" stroke-dasharray="5,2" d="M192.5,-125C192.5,-125 229.5,-125 229.5,-125 235.5,-125 241.5,-131 241.5,-137 241.5,-137 241.5,-149 241.5,-149 241.5,-155 235.5,-161 229.5,-161 229.5,-161 192.5,-161 192.5,-161 186.5,-161 180.5,-155 180.5,-149 180.5,-149 180.5,-137 180.5,-137 180.5,-131 186.5,-125 192.5,-125"/>
<text text-anchor="start" x="188.5" y="-140.3" font-family="georgia" font-size="14.00">any&#45;β</text>
<text text-anchor="start" x="225.5" y="-140.3" font-family="georgia" baseline-shift="super" font-size="10.00">+</text>
</g>
<!-- k_beta_p&#45;&gt;beta_plus -->
<g id="edge21" class="edge"><title>k_beta_p&#45;&gt;beta_plus</title>
<path fill="none" stroke="black" d="M241.776,-156.879C257.757,-164.327 277.564,-173.56 294.359,-181.388"/>
<polygon fill="black" stroke="black" points="293.306,-184.758 303.849,-185.811 296.263,-178.414 293.306,-184.758"/>
</g>
<!-- k_graceful -->
<g id="node26" class="node"><title>k_graceful</title>
<path fill="lightblue" stroke="lightblue" d="M303,-125C303,-125 359,-125 359,-125 365,-125 371,-131 371,-137 371,-137 371,-149 371,-149 371,-155 365,-161 359,-161 359,-161 303,-161 303,-161 297,-161 291,-155 291,-149 291,-149 291,-137 291,-137 291,-131 297,-125 303,-125"/>
<text text-anchor="middle" x="331" y="-139.3" font-family="georgia" font-size="14.00">k&#45;graceful</text>
</g>
<!-- k_beta_p&#45;&gt;k_graceful -->
<g id="edge28" class="edge"><title>k_beta_p&#45;&gt;k_graceful</title>
<path fill="none" stroke="black" d="M241.776,-143C253.521,-143 267.332,-143 280.495,-143"/>
<polygon fill="black" stroke="black" points="280.861,-146.5 290.861,-143 280.861,-139.5 280.861,-146.5"/>
</g>
<!-- triangular -->
<g id="node27" class="node"><title>triangular</title>
<path fill="lightblue" stroke="lightblue" d="M302.5,-70C302.5,-70 359.5,-70 359.5,-70 365.5,-70 371.5,-76 371.5,-82 371.5,-82 371.5,-94 371.5,-94 371.5,-100 365.5,-106 359.5,-106 359.5,-106 302.5,-106 302.5,-106 296.5,-106 290.5,-100 290.5,-94 290.5,-94 290.5,-82 290.5,-82 290.5,-76 296.5,-70 302.5,-70"/>
<text text-anchor="middle" x="331" y="-84.3" font-family="georgia" font-size="14.00">triangular</text>
</g>
<!-- k_beta_p&#45;&gt;triangular -->
<g id="edge29" class="edge"><title>k_beta_p&#45;&gt;triangular</title>
<path fill="none" stroke="black" d="M241.776,-129.121C253.98,-123.433 268.416,-116.704 282.038,-110.355"/>
<polygon fill="black" stroke="black" points="283.716,-113.435 291.301,-106.038 280.759,-107.09 283.716,-113.435"/>
</g>
<!-- odd_beta_plus&#45;&gt;rho_p -->
<g id="edge23" class="edge"><title>odd_beta_plus&#45;&gt;rho_p</title>
<path fill="none" stroke="black" d="M721.755,-176.599C735.936,-172.389 752.198,-165.627 764,-155 784.384,-136.645 773.011,-119.794 792,-100 795.806,-96.0327 800.324,-92.4855 805.042,-89.3697"/>
<polygon fill="black" stroke="black" points="806.852,-92.3652 813.639,-84.2299 803.26,-86.357 806.852,-92.3652"/>
</g>
<!-- odd_beta -->
<g id="node21" class="node"><title>odd_beta</title>
<path fill="lightblue" stroke="lightblue" d="M804.5,-165C804.5,-165 877.5,-165 877.5,-165 883.5,-165 889.5,-171 889.5,-177 889.5,-177 889.5,-189 889.5,-189 889.5,-195 883.5,-201 877.5,-201 877.5,-201 804.5,-201 804.5,-201 798.5,-201 792.5,-195 792.5,-189 792.5,-189 792.5,-177 792.5,-177 792.5,-171 798.5,-165 804.5,-165"/>
<text text-anchor="middle" x="841" y="-179.3" font-family="georgia" font-size="14.00">odd&#45;graceful</text>
</g>
<!-- odd_beta_plus&#45;&gt;odd_beta -->
<g id="edge24" class="edge"><title>odd_beta_plus&#45;&gt;odd_beta</title>
<path fill="none" stroke="black" d="M721.512,-183C738.919,-183 761.319,-183 781.948,-183"/>
<polygon fill="black" stroke="black" points="782.219,-186.5 792.219,-183 782.219,-179.5 782.219,-186.5"/>
</g>
<!-- odd_beta&#45;&gt;rho -->
<g id="edge25" class="edge"><title>odd_beta&#45;&gt;rho</title>
<path fill="none" stroke="black" d="M889.719,-181.165C909.361,-180.409 932.836,-179.506 955.682,-178.628"/>
<polygon fill="black" stroke="black" points="955.91,-182.122 965.769,-178.24 955.641,-175.127 955.91,-182.122"/>
</g>
<!-- odd_harm -->
<g id="node23" class="node"><title>odd_harm</title>
<path fill="lightblue" stroke="lightblue" d="M641,-431C641,-431 739,-431 739,-431 745,-431 751,-437 751,-443 751,-443 751,-455 751,-455 751,-461 745,-467 739,-467 739,-467 641,-467 641,-467 635,-467 629,-461 629,-455 629,-455 629,-443 629,-443 629,-437 635,-431 641,-431"/>
<text text-anchor="middle" x="690" y="-445.3" font-family="georgia" font-size="14.00">odd&#45;harmonious</text>
</g>
<!-- elegant -->
<g id="node24" class="node"><title>elegant</title>
<path fill="lightblue" stroke="black" stroke-dasharray="5,2" d="M671,-376C671,-376 709,-376 709,-376 715,-376 721,-382 721,-388 721,-388 721,-400 721,-400 721,-406 715,-412 709,-412 709,-412 671,-412 671,-412 665,-412 659,-406 659,-400 659,-400 659,-388 659,-388 659,-382 665,-376 671,-376"/>
<text text-anchor="middle" x="690" y="-390.3" font-family="georgia" font-size="14.00">elegant</text>
</g>
<!-- one_seq_add -->
<g id="node29" class="node"><title>one_seq_add</title>
<path fill="lightblue" stroke="lightblue" d="M290,-250C290,-250 372,-250 372,-250 378,-250 384,-256 384,-262 384,-262 384,-274 384,-274 384,-280 378,-286 372,-286 372,-286 290,-286 290,-286 284,-286 278,-280 278,-274 278,-274 278,-262 278,-262 278,-256 284,-250 290,-250"/>
<text text-anchor="middle" x="331" y="-264.3" font-family="georgia" font-size="14.00">1&#45;seq&#45;additive</text>
</g>
<!-- one_seq_add&#45;&gt;k_seq_add -->
<g id="edge32" class="edge"><title>one_seq_add&#45;&gt;k_seq_add</title>
<path fill="none" stroke="black" d="M384.235,-268C401.969,-268 421.966,-268 440.424,-268"/>
<polygon fill="black" stroke="black" points="440.496,-271.5 450.496,-268 440.496,-264.5 440.496,-271.5"/>
</g>
<!-- alpha_2&#45;&gt;sigma -->
<g id="edge34" class="edge"><title>alpha_2&#45;&gt;sigma</title>
<path fill="none" stroke="black" d="M717.295,-128C741.339,-128 777.123,-128 803.851,-128"/>
<polygon fill="black" stroke="black" points="803.968,-131.5 813.968,-128 803.968,-124.5 803.968,-131.5"/>
</g>
</g>
</svg>
