<?xml version="1.0" encoding="UTF-8" standalone="no"?>
<!DOCTYPE svg PUBLIC "-//W3C//DTD SVG 1.1//EN"
 "http://www.w3.org/Graphics/SVG/1.1/DTD/svg11.dtd">
<!-- Generated by graphviz version 2.36.0 (20140111.2315)
 -->
<!-- Title: labelings Pages: 1 -->
<svg width="1124pt" height="524pt"
 viewBox="0.00 0.00 1124.00 524.00" xmlns="http://www.w3.org/2000/svg" xmlns:xlink="http://www.w3.org/1999/xlink">
<g id="graph0" class="graph" transform="scale(1 1) rotate(0) translate(4 520)">
<title>labelings</title>
<polygon fill="white" stroke="none" points="-4,4 -4,-520 1120,-520 1120,4 -4,4"/>
<g id="clust1" class="cluster"><title>cluster_alpha</title>
</g>
<g id="clust4" class="cluster"><title>cluster_lr</title>
</g>
<g id="clust5" class="cluster"><title>cluster_beta</title>
</g>
<g id="clust8" class="cluster"><title>cluster_rho</title>
</g>
<g id="clust10" class="cluster"><title>cluster_harmonious</title>
</g>
<!-- alpha_deg3 -->
<g id="node1" class="node"><title>alpha_deg3</title>
<path fill="lightblue" stroke="black" stroke-dasharray="5,2" d="M28,-314C28,-314 132,-314 132,-314 138,-314 144,-320 144,-326 144,-326 144,-338 144,-338 144,-344 138,-350 132,-350 132,-350 28,-350 28,-350 22,-350 16,-344 16,-338 16,-338 16,-326 16,-326 16,-320 22,-314 28,-314"/>
<text text-anchor="middle" x="80" y="-328.3" font-family="georgia" font-size="14.00">α for max deg = 3</text>
</g>
<!-- alpha -->
<g id="node2" class="node"><title>alpha</title>
<path fill="lightblue" stroke="red" stroke-dasharray="5,2" d="M65,-259C65,-259 95,-259 95,-259 101,-259 107,-265 107,-271 107,-271 107,-283 107,-283 107,-289 101,-295 95,-295 95,-295 65,-295 65,-295 59,-295 53,-289 53,-283 53,-283 53,-271 53,-271 53,-265 59,-259 65,-259"/>
<text text-anchor="middle" x="80" y="-273.3" font-family="georgia" font-size="14.00">α</text>
</g>
<!-- beta_plus_seq -->
<g id="node3" class="node"><title>beta_plus_seq</title>
<path fill="lightblue" stroke="lightblue" d="M195.5,-259C195.5,-259 226.5,-259 226.5,-259 232.5,-259 238.5,-265 238.5,-271 238.5,-271 238.5,-283 238.5,-283 238.5,-289 232.5,-295 226.5,-295 226.5,-295 195.5,-295 195.5,-295 189.5,-295 183.5,-289 183.5,-283 183.5,-283 183.5,-271 183.5,-271 183.5,-265 189.5,-259 195.5,-259"/>
<text text-anchor="start" x="191.5" y="-274.3" font-family="georgia" font-size="14.00">β</text>
<text text-anchor="start" x="200.5" y="-274.3" font-family="georgia" baseline-shift="super" font-size="10.00">+</text>
<text text-anchor="start" x="208.5" y="-274.3" font-family="georgia" font-size="14.00">seq</text>
</g>
<!-- alpha&#45;&gt;beta_plus_seq -->
<g id="edge1" class="edge"><title>alpha&#45;&gt;beta_plus_seq</title>
<path fill="none" stroke="black" d="M107.105,-277C126.125,-277 152.149,-277 173.266,-277"/>
<polygon fill="black" stroke="black" points="173.491,-280.5 183.491,-277 173.491,-273.5 173.491,-280.5"/>
</g>
<!-- seq -->
<g id="node4" class="node"><title>seq</title>
<path fill="lightblue" stroke="lightblue" d="M519,-339C519,-339 577,-339 577,-339 583,-339 589,-345 589,-351 589,-351 589,-363 589,-363 589,-369 583,-375 577,-375 577,-375 519,-375 519,-375 513,-375 507,-369 507,-363 507,-363 507,-351 507,-351 507,-345 513,-339 519,-339"/>
<text text-anchor="middle" x="548" y="-353.3" font-family="georgia" font-size="14.00">sequential</text>
</g>
<!-- beta_plus_seq&#45;&gt;seq -->
<g id="edge2" class="edge"><title>beta_plus_seq&#45;&gt;seq</title>
<path fill="none" stroke="black" d="M238.567,-283.344C294.51,-296.704 425.212,-327.916 497.217,-345.112"/>
<polygon fill="black" stroke="black" points="496.435,-348.523 506.974,-347.442 498.061,-341.714 496.435,-348.523"/>
</g>
<!-- beta_plus -->
<g id="node5" class="node"><title>beta_plus</title>
<path fill="lightblue" stroke="lightblue" d="M347,-204C347,-204 377,-204 377,-204 383,-204 389,-210 389,-216 389,-216 389,-228 389,-228 389,-234 383,-240 377,-240 377,-240 347,-240 347,-240 341,-240 335,-234 335,-228 335,-228 335,-216 335,-216 335,-210 341,-204 347,-204"/>
<text text-anchor="start" x="353.5" y="-219.3" font-family="georgia" font-size="14.00">β</text>
<text text-anchor="start" x="362.5" y="-219.3" font-family="georgia" baseline-shift="super" font-size="10.00">+</text>
</g>
<!-- beta_plus_seq&#45;&gt;beta_plus -->
<g id="edge3" class="edge"><title>beta_plus_seq&#45;&gt;beta_plus</title>
<path fill="none" stroke="black" d="M238.638,-267.167C262.687,-258.29 298.274,-245.154 324.879,-235.333"/>
<polygon fill="black" stroke="black" points="326.423,-238.494 334.592,-231.748 323.999,-231.927 326.423,-238.494"/>
</g>
<!-- semt -->
<g id="node6" class="node"><title>semt</title>
<path fill="lightblue" stroke="lightblue" d="M662,-449C662,-449 802,-449 802,-449 808,-449 814,-455 814,-461 814,-461 814,-473 814,-473 814,-479 808,-485 802,-485 802,-485 662,-485 662,-485 656,-485 650,-479 650,-473 650,-473 650,-461 650,-461 650,-455 656,-449 662,-449"/>
<text text-anchor="middle" x="732" y="-463.3" font-family="georgia" font-size="14.00">super&#45;edge&#45;magic total</text>
</g>
<!-- seq&#45;&gt;semt -->
<g id="edge4" class="edge"><title>seq&#45;&gt;semt</title>
<path fill="none" stroke="black" d="M579.054,-375.164C610.102,-393.93 658.668,-423.283 692.508,-443.736"/>
<polygon fill="black" stroke="black" points="690.836,-446.814 701.204,-448.992 694.456,-440.824 690.836,-446.814"/>
</g>
<!-- antimagic -->
<g id="node26" class="node"><title>antimagic</title>
<path fill="lightblue" stroke="lightblue" d="M668,-367C668,-367 796,-367 796,-367 802,-367 808,-373 808,-379 808,-379 808,-391 808,-391 808,-397 802,-403 796,-403 796,-403 668,-403 668,-403 662,-403 656,-397 656,-391 656,-391 656,-379 656,-379 656,-373 662,-367 668,-367"/>
<text text-anchor="middle" x="732" y="-381.3" font-family="georgia" font-size="14.00">(a, 1)&#45;edge&#45;antimagic</text>
</g>
<!-- seq&#45;&gt;antimagic -->
<g id="edge24" class="edge"><title>seq&#45;&gt;antimagic</title>
<path fill="none" stroke="black" d="M589.392,-363.214C606.145,-365.791 626.253,-368.885 645.985,-371.921"/>
<polygon fill="black" stroke="black" points="645.519,-375.39 655.935,-373.452 646.584,-368.472 645.519,-375.39"/>
</g>
<!-- seq_add -->
<g id="node27" class="node"><title>seq_add</title>
<path fill="lightblue" stroke="lightblue" d="M691,-312C691,-312 773,-312 773,-312 779,-312 785,-318 785,-324 785,-324 785,-336 785,-336 785,-342 779,-348 773,-348 773,-348 691,-348 691,-348 685,-348 679,-342 679,-336 679,-336 679,-324 679,-324 679,-318 685,-312 691,-312"/>
<text text-anchor="middle" x="732" y="-326.3" font-family="georgia" font-size="14.00">1&#45;seq&#45;additive</text>
</g>
<!-- seq&#45;&gt;seq_add -->
<g id="edge25" class="edge"><title>seq&#45;&gt;seq_add</title>
<path fill="none" stroke="black" d="M589.392,-351.008C612.69,-347.552 642.477,-343.133 668.715,-339.24"/>
<polygon fill="black" stroke="black" points="669.575,-342.651 678.953,-337.721 668.547,-335.727 669.575,-342.651"/>
</g>
<!-- rho_sigma -->
<g id="node8" class="node"><title>rho_sigma</title>
<path fill="lightblue" stroke="none" d="M512.5,-204C512.5,-204 583.5,-204 583.5,-204 589.5,-204 595.5,-210 595.5,-216 595.5,-216 595.5,-228 595.5,-228 595.5,-234 589.5,-240 583.5,-240 583.5,-240 512.5,-240 512.5,-240 506.5,-240 500.5,-234 500.5,-228 500.5,-228 500.5,-216 500.5,-216 500.5,-210 506.5,-204 512.5,-204"/>
<text text-anchor="start" x="508.5" y="-219.3" font-family="georgia" font-size="14.00">ρ</text>
<text text-anchor="start" x="517.5" y="-219.3" font-family="georgia" baseline-shift="super" font-size="10.00">++</text>
<text text-anchor="start" x="533.5" y="-219.3" font-family="georgia" font-size="14.00">bi</text>
<polyline fill="none" stroke="black" points="554.5,-204 554.5,-240 "/>
<text text-anchor="start" x="562.5" y="-219.3" font-family="georgia" font-size="14.00">σ</text>
<text text-anchor="start" x="571.5" y="-219.3" font-family="georgia" baseline-shift="super" font-size="10.00">++</text>
</g>
<!-- beta_plus&#45;&gt;rho_sigma -->
<g id="edge6" class="edge"><title>beta_plus&#45;&gt;rho_sigma</title>
<path fill="none" stroke="black" d="M389.363,-222C415.569,-222 456.6,-222 490.232,-222"/>
<polygon fill="black" stroke="black" points="490.407,-225.5 500.407,-222 490.407,-218.5 490.407,-225.5"/>
</g>
<!-- beta -->
<g id="node10" class="node"><title>beta</title>
<path fill="lightblue" stroke="lightblue" d="M533,-39C533,-39 563,-39 563,-39 569,-39 575,-45 575,-51 575,-51 575,-63 575,-63 575,-69 569,-75 563,-75 563,-75 533,-75 533,-75 527,-75 521,-69 521,-63 521,-63 521,-51 521,-51 521,-45 527,-39 533,-39"/>
<text text-anchor="middle" x="548" y="-53.3" font-family="georgia" font-size="14.00">β</text>
</g>
<!-- beta_plus&#45;&gt;beta -->
<g id="edge7" class="edge"><title>beta_plus&#45;&gt;beta</title>
<path fill="none" stroke="black" d="M389.376,-219.647C407.727,-216.625 431.426,-209.728 446,-194 480.289,-156.997 440.249,-121.495 474,-84 483.581,-73.3558 497.741,-66.8973 511.047,-62.9831"/>
<polygon fill="black" stroke="black" points="512.137,-66.3173 520.965,-60.4587 510.41,-59.5335 512.137,-66.3173"/>
</g>
<!-- odd_beta -->
<g id="node19" class="node"><title>odd_beta</title>
<path fill="lightblue" stroke="lightblue" d="M533,-149C533,-149 563,-149 563,-149 569,-149 575,-155 575,-161 575,-161 575,-173 575,-173 575,-179 569,-185 563,-185 563,-185 533,-185 533,-185 527,-185 521,-179 521,-173 521,-173 521,-161 521,-161 521,-155 527,-149 533,-149"/>
<text text-anchor="middle" x="548" y="-163.3" font-family="georgia" font-size="14.00">odd&#45;β</text>
</g>
<!-- beta_plus&#45;&gt;odd_beta -->
<g id="edge20" class="edge"><title>beta_plus&#45;&gt;odd_beta</title>
<path fill="none" stroke="black" d="M389.363,-214.12C421.289,-204.577 475.22,-188.456 510.967,-177.771"/>
<polygon fill="black" stroke="black" points="512.405,-180.994 520.983,-174.777 510.4,-174.287 512.405,-180.994"/>
</g>
<!-- harm -->
<g id="node7" class="node"><title>harm</title>
<path fill="lightblue" stroke="lightblue" d="M876.5,-463C876.5,-463 945.5,-463 945.5,-463 951.5,-463 957.5,-469 957.5,-475 957.5,-475 957.5,-487 957.5,-487 957.5,-493 951.5,-499 945.5,-499 945.5,-499 876.5,-499 876.5,-499 870.5,-499 864.5,-493 864.5,-487 864.5,-487 864.5,-475 864.5,-475 864.5,-469 870.5,-463 876.5,-463"/>
<text text-anchor="middle" x="911" y="-477.3" font-family="georgia" font-size="14.00">harmonious</text>
</g>
<!-- semt&#45;&gt;harm -->
<g id="edge5" class="edge"><title>semt&#45;&gt;harm</title>
<path fill="none" stroke="black" d="M814.247,-473.426C827.595,-474.482 841.165,-475.555 853.73,-476.549"/>
<polygon fill="black" stroke="black" points="853.777,-480.064 864.022,-477.363 854.329,-473.086 853.777,-480.064"/>
</g>
<!-- rho_bi -->
<g id="node13" class="node"><title>rho_bi</title>
<path fill="lightblue" stroke="lightblue" d="M1020,-251C1020,-251 1088,-251 1088,-251 1094,-251 1100,-257 1100,-263 1100,-263 1100,-275 1100,-275 1100,-281 1094,-287 1088,-287 1088,-287 1020,-287 1020,-287 1014,-287 1008,-281 1008,-275 1008,-275 1008,-263 1008,-263 1008,-257 1014,-251 1020,-251"/>
<text text-anchor="middle" x="1054" y="-265.3" font-family="georgia" font-size="14.00">ρ bigraceful</text>
</g>
<!-- harm&#45;&gt;rho_bi -->
<g id="edge9" class="edge"><title>harm&#45;&gt;rho_bi</title>
<path fill="none" stroke="black" d="M957.585,-468.208C965.792,-464.336 973.721,-459.36 980,-453 1023.13,-409.314 1041.61,-337.011 1048.84,-297.294"/>
<polygon fill="black" stroke="black" points="1052.33,-297.686 1050.56,-287.239 1045.43,-296.508 1052.33,-297.686"/>
</g>
<!-- rho_sigma&#45;&gt;rho_bi -->
<g id="edge10" class="edge"><title>rho_sigma&#45;&gt;rho_bi</title>
<path fill="none" stroke="black" d="M595.576,-236.659C612.541,-241.409 631.979,-246.177 650,-249 773.194,-268.3 919.915,-270.43 997.88,-269.936"/>
<polygon fill="black" stroke="black" points="997.986,-273.436 1007.96,-269.855 997.929,-266.436 997.986,-273.436"/>
</g>
<!-- rho_pp -->
<g id="node14" class="node"><title>rho_pp</title>
<path fill="lightblue" stroke="lightblue" d="M717,-204C717,-204 747,-204 747,-204 753,-204 759,-210 759,-216 759,-216 759,-228 759,-228 759,-234 753,-240 747,-240 747,-240 717,-240 717,-240 711,-240 705,-234 705,-228 705,-228 705,-216 705,-216 705,-210 711,-204 717,-204"/>
<text text-anchor="start" x="719.5" y="-219.3" font-family="georgia" font-size="14.00">ρ</text>
<text text-anchor="start" x="728.5" y="-219.3" font-family="georgia" baseline-shift="super" font-size="10.00">++</text>
</g>
<!-- rho_sigma&#45;&gt;rho_pp -->
<g id="edge11" class="edge"><title>rho_sigma&#45;&gt;rho_pp</title>
<path fill="none" stroke="black" d="M595.87,-222C626.595,-222 666.178,-222 694.549,-222"/>
<polygon fill="black" stroke="black" points="694.832,-225.5 704.832,-222 694.831,-218.5 694.832,-225.5"/>
</g>
<!-- sigma_p -->
<g id="node15" class="node"><title>sigma_p</title>
<path fill="lightblue" stroke="lightblue" d="M717,-149C717,-149 747,-149 747,-149 753,-149 759,-155 759,-161 759,-161 759,-173 759,-173 759,-179 753,-185 747,-185 747,-185 717,-185 717,-185 711,-185 705,-179 705,-173 705,-173 705,-161 705,-161 705,-155 711,-149 717,-149"/>
<text text-anchor="start" x="723.5" y="-164.3" font-family="georgia" font-size="14.00">σ</text>
<text text-anchor="start" x="732.5" y="-164.3" font-family="georgia" baseline-shift="super" font-size="10.00">+</text>
</g>
<!-- rho_sigma&#45;&gt;sigma_p -->
<g id="edge12" class="edge"><title>rho_sigma&#45;&gt;sigma_p</title>
<path fill="none" stroke="black" d="M595.87,-207.836C626.731,-198.51 666.527,-186.484 694.923,-177.902"/>
<polygon fill="black" stroke="black" points="696.272,-181.151 704.832,-174.908 694.247,-174.451 696.272,-181.151"/>
</g>
<!-- alpha_2 -->
<g id="node28" class="node"><title>alpha_2</title>
<path fill="lightblue" stroke="lightblue" d="M717,-94C717,-94 747,-94 747,-94 753,-94 759,-100 759,-106 759,-106 759,-118 759,-118 759,-124 753,-130 747,-130 747,-130 717,-130 717,-130 711,-130 705,-124 705,-118 705,-118 705,-106 705,-106 705,-100 711,-94 717,-94"/>
<text text-anchor="start" x="724" y="-109.3" font-family="georgia" font-size="14.00">α</text>
<text text-anchor="start" x="733" y="-109.3" font-family="georgia" baseline-shift="sub" font-size="11.00">2</text>
</g>
<!-- rho_sigma&#45;&gt;alpha_2 -->
<g id="edge26" class="edge"><title>rho_sigma&#45;&gt;alpha_2</title>
<path fill="none" stroke="black" d="M595.529,-210.018C605.037,-206.036 614.435,-200.812 622,-194 642.384,-175.645 629.213,-156.897 650,-139 662.504,-128.234 679.448,-121.726 694.608,-117.808"/>
<polygon fill="black" stroke="black" points="695.773,-121.132 704.741,-115.489 694.212,-114.308 695.773,-121.132"/>
</g>
<!-- inf_beta -->
<g id="node9" class="node"><title>inf_beta</title>
<path fill="khaki" stroke="black" stroke-dasharray="5,2" d="M494.5,-94C494.5,-94 601.5,-94 601.5,-94 607.5,-94 613.5,-100 613.5,-106 613.5,-106 613.5,-118 613.5,-118 613.5,-124 607.5,-130 601.5,-130 601.5,-130 494.5,-130 494.5,-130 488.5,-130 482.5,-124 482.5,-118 482.5,-118 482.5,-106 482.5,-106 482.5,-100 488.5,-94 494.5,-94"/>
<text text-anchor="middle" x="548" y="-108.3" font-family="georgia" font-size="14.00">β for infinite trees</text>
</g>
<!-- sigma -->
<g id="node16" class="node"><title>sigma</title>
<path fill="lightblue" stroke="lightblue" d="M896,-118C896,-118 926,-118 926,-118 932,-118 938,-124 938,-130 938,-130 938,-142 938,-142 938,-148 932,-154 926,-154 926,-154 896,-154 896,-154 890,-154 884,-148 884,-142 884,-142 884,-130 884,-130 884,-124 890,-118 896,-118"/>
<text text-anchor="middle" x="911" y="-132.3" font-family="georgia" font-size="14.00">σ</text>
</g>
<!-- beta&#45;&gt;sigma -->
<g id="edge13" class="edge"><title>beta&#45;&gt;sigma</title>
<path fill="none" stroke="black" d="M575.252,-56.3063C623.622,-55.7587 729.59,-57.9834 814,-84 835.441,-90.6084 857.578,-102.223 875.184,-112.801"/>
<polygon fill="black" stroke="black" points="873.601,-115.937 883.95,-118.206 877.275,-109.978 873.601,-115.937"/>
</g>
<!-- super_beta -->
<g id="node20" class="node"><title>super_beta</title>
<path fill="lightblue" stroke="lightblue" d="M712,-0C712,-0 752,-0 752,-0 758,-0 764,-6 764,-12 764,-12 764,-24 764,-24 764,-30 758,-36 752,-36 752,-36 712,-36 712,-36 706,-36 700,-30 700,-24 700,-24 700,-12 700,-12 700,-6 706,-0 712,-0"/>
<text text-anchor="middle" x="732" y="-14.3" font-family="georgia" font-size="14.00">super β</text>
</g>
<!-- beta&#45;&gt;super_beta -->
<g id="edge21" class="edge"><title>beta&#45;&gt;super_beta</title>
<path fill="none" stroke="black" d="M575.076,-51.4123C605.045,-44.9903 654.616,-34.3679 689.815,-26.8254"/>
<polygon fill="black" stroke="black" points="690.741,-30.2064 699.786,-24.6887 689.274,-23.3618 690.741,-30.2064"/>
</g>
<!-- beta_rot -->
<g id="node11" class="node"><title>beta_rot</title>
<path fill="lightblue" stroke="black" stroke-dasharray="5,2" d="M290,-39C290,-39 434,-39 434,-39 440,-39 446,-45 446,-51 446,-51 446,-63 446,-63 446,-69 440,-75 434,-75 434,-75 290,-75 290,-75 284,-75 278,-69 278,-63 278,-63 278,-51 278,-51 278,-45 284,-39 290,-39"/>
<text text-anchor="middle" x="362" y="-53.3" font-family="georgia" font-size="14.00">max&#45;edge β&#45;rotatability</text>
</g>
<!-- beta_rot&#45;&gt;beta -->
<g id="edge8" class="edge"><title>beta_rot&#45;&gt;beta</title>
<path fill="none" stroke="black" d="M446.118,-57C468.833,-57 492.278,-57 510.843,-57"/>
<polygon fill="black" stroke="black" points="510.892,-60.5001 520.892,-57 510.892,-53.5001 510.892,-60.5001"/>
</g>
<!-- rho -->
<g id="node12" class="node"><title>rho</title>
<path fill="lightblue" stroke="lightblue" d="M1039,-196C1039,-196 1069,-196 1069,-196 1075,-196 1081,-202 1081,-208 1081,-208 1081,-220 1081,-220 1081,-226 1075,-232 1069,-232 1069,-232 1039,-232 1039,-232 1033,-232 1027,-226 1027,-220 1027,-220 1027,-208 1027,-208 1027,-202 1033,-196 1039,-196"/>
<text text-anchor="middle" x="1054" y="-210.3" font-family="georgia" font-size="14.00">ρ</text>
</g>
<!-- rho_p -->
<g id="node17" class="node"><title>rho_p</title>
<path fill="lightblue" stroke="lightblue" d="M896,-196C896,-196 926,-196 926,-196 932,-196 938,-202 938,-208 938,-208 938,-220 938,-220 938,-226 932,-232 926,-232 926,-232 896,-232 896,-232 890,-232 884,-226 884,-220 884,-220 884,-208 884,-208 884,-202 890,-196 896,-196"/>
<text text-anchor="start" x="902.5" y="-211.3" font-family="georgia" font-size="14.00">ρ</text>
<text text-anchor="start" x="911.5" y="-211.3" font-family="georgia" baseline-shift="super" font-size="10.00">+</text>
</g>
<!-- rho_pp&#45;&gt;rho_p -->
<g id="edge15" class="edge"><title>rho_pp&#45;&gt;rho_p</title>
<path fill="none" stroke="black" d="M759.117,-220.82C789.444,-219.449 839.658,-217.179 873.752,-215.638"/>
<polygon fill="black" stroke="black" points="873.944,-219.133 883.776,-215.185 873.628,-212.14 873.944,-219.133"/>
</g>
<!-- sigma_p&#45;&gt;sigma -->
<g id="edge14" class="edge"><title>sigma_p&#45;&gt;sigma</title>
<path fill="none" stroke="black" d="M759.117,-162.426C789.444,-157.114 839.658,-148.32 873.752,-142.348"/>
<polygon fill="black" stroke="black" points="874.53,-145.766 883.776,-140.593 873.322,-138.871 874.53,-145.766"/>
</g>
<!-- sigma_p&#45;&gt;rho_p -->
<g id="edge16" class="edge"><title>sigma_p&#45;&gt;rho_p</title>
<path fill="none" stroke="black" d="M759.117,-173.935C789.444,-181.988 839.658,-195.322 873.752,-204.375"/>
<polygon fill="black" stroke="black" points="873.213,-207.853 883.776,-207.037 875.009,-201.087 873.213,-207.853"/>
</g>
<!-- sigma&#45;&gt;rho -->
<g id="edge17" class="edge"><title>sigma&#45;&gt;rho</title>
<path fill="none" stroke="black" d="M938.191,-150.488C960.647,-162.911 993.192,-180.914 1017.9,-194.583"/>
<polygon fill="black" stroke="black" points="1016.51,-197.811 1026.95,-199.589 1019.89,-191.686 1016.51,-197.811"/>
</g>
<!-- rho_p&#45;&gt;rho -->
<g id="edge18" class="edge"><title>rho_p&#45;&gt;rho</title>
<path fill="none" stroke="black" d="M938.191,-214C960.351,-214 992.333,-214 1016.92,-214"/>
<polygon fill="black" stroke="black" points="1016.95,-217.5 1026.95,-214 1016.95,-210.5 1016.95,-217.5"/>
</g>
<!-- k_beta_p -->
<g id="node18" class="node"><title>k_beta_p</title>
<path fill="lightblue" stroke="black" stroke-dasharray="5,2" d="M192.5,-149C192.5,-149 229.5,-149 229.5,-149 235.5,-149 241.5,-155 241.5,-161 241.5,-161 241.5,-173 241.5,-173 241.5,-179 235.5,-185 229.5,-185 229.5,-185 192.5,-185 192.5,-185 186.5,-185 180.5,-179 180.5,-173 180.5,-173 180.5,-161 180.5,-161 180.5,-155 186.5,-149 192.5,-149"/>
<text text-anchor="start" x="188.5" y="-164.3" font-family="georgia" font-size="14.00">any&#45;β</text>
<text text-anchor="start" x="225.5" y="-164.3" font-family="georgia" baseline-shift="super" font-size="10.00">+</text>
</g>
<!-- k_beta_p&#45;&gt;beta_plus -->
<g id="edge19" class="edge"><title>k_beta_p&#45;&gt;beta_plus</title>
<path fill="none" stroke="black" d="M241.742,-179.632C253.034,-184.305 266.052,-189.546 278,-194 293.283,-199.697 310.328,-205.535 324.977,-210.396"/>
<polygon fill="black" stroke="black" points="324.091,-213.789 334.684,-213.592 326.28,-207.14 324.091,-213.789"/>
</g>
<!-- k_graceful -->
<g id="node24" class="node"><title>k_graceful</title>
<path fill="lightblue" stroke="lightblue" d="M334,-149C334,-149 390,-149 390,-149 396,-149 402,-155 402,-161 402,-161 402,-173 402,-173 402,-179 396,-185 390,-185 390,-185 334,-185 334,-185 328,-185 322,-179 322,-173 322,-173 322,-161 322,-161 322,-155 328,-149 334,-149"/>
<text text-anchor="middle" x="362" y="-163.3" font-family="georgia" font-size="14.00">k&#45;graceful</text>
</g>
<!-- k_beta_p&#45;&gt;k_graceful -->
<g id="edge22" class="edge"><title>k_beta_p&#45;&gt;k_graceful</title>
<path fill="none" stroke="black" d="M241.794,-167C261.842,-167 288.745,-167 311.919,-167"/>
<polygon fill="black" stroke="black" points="311.927,-170.5 321.927,-167 311.927,-163.5 311.927,-170.5"/>
</g>
<!-- triangular -->
<g id="node25" class="node"><title>triangular</title>
<path fill="lightblue" stroke="lightblue" d="M333.5,-94C333.5,-94 390.5,-94 390.5,-94 396.5,-94 402.5,-100 402.5,-106 402.5,-106 402.5,-118 402.5,-118 402.5,-124 396.5,-130 390.5,-130 390.5,-130 333.5,-130 333.5,-130 327.5,-130 321.5,-124 321.5,-118 321.5,-118 321.5,-106 321.5,-106 321.5,-100 327.5,-94 333.5,-94"/>
<text text-anchor="middle" x="362" y="-108.3" font-family="georgia" font-size="14.00">triangular</text>
</g>
<!-- k_beta_p&#45;&gt;triangular -->
<g id="edge23" class="edge"><title>k_beta_p&#45;&gt;triangular</title>
<path fill="none" stroke="black" d="M241.677,-153.763C252.963,-148.9 265.992,-143.491 278,-139 288.868,-134.936 300.66,-130.887 311.851,-127.209"/>
<polygon fill="black" stroke="black" points="313.061,-130.496 321.492,-124.08 310.9,-123.838 313.061,-130.496"/>
</g>
<!-- elegant -->
<g id="node21" class="node"><title>elegant</title>
<path fill="lightblue" stroke="lightblue" d="M892,-408C892,-408 930,-408 930,-408 936,-408 942,-414 942,-420 942,-420 942,-432 942,-432 942,-438 936,-444 930,-444 930,-444 892,-444 892,-444 886,-444 880,-438 880,-432 880,-432 880,-420 880,-420 880,-414 886,-408 892,-408"/>
<text text-anchor="middle" x="911" y="-422.3" font-family="georgia" font-size="14.00">elegant</text>
</g>
<!-- felicitous -->
<g id="node22" class="node"><title>felicitous</title>
<path fill="lightblue" stroke="lightblue" d="M886,-353C886,-353 936,-353 936,-353 942,-353 948,-359 948,-365 948,-365 948,-377 948,-377 948,-383 942,-389 936,-389 936,-389 886,-389 886,-389 880,-389 874,-383 874,-377 874,-377 874,-365 874,-365 874,-359 880,-353 886,-353"/>
<text text-anchor="middle" x="911" y="-367.3" font-family="georgia" font-size="14.00">felicitous</text>
</g>
<!-- odd_harm -->
<g id="node23" class="node"><title>odd_harm</title>
<path fill="lightblue" stroke="lightblue" d="M862,-298C862,-298 960,-298 960,-298 966,-298 972,-304 972,-310 972,-310 972,-322 972,-322 972,-328 966,-334 960,-334 960,-334 862,-334 862,-334 856,-334 850,-328 850,-322 850,-322 850,-310 850,-310 850,-304 856,-298 862,-298"/>
<text text-anchor="middle" x="911" y="-312.3" font-family="georgia" font-size="14.00">odd&#45;harmonious</text>
</g>
<!-- alpha_2&#45;&gt;sigma -->
<g id="edge27" class="edge"><title>alpha_2&#45;&gt;sigma</title>
<path fill="none" stroke="black" d="M759.117,-115.541C789.444,-119.653 839.658,-126.462 873.752,-131.085"/>
<polygon fill="black" stroke="black" points="873.396,-134.569 883.776,-132.444 874.337,-127.632 873.396,-134.569"/>
</g>
</g>
</svg>
