<?xml version="1.0" encoding="UTF-8" standalone="no"?>
<!DOCTYPE svg PUBLIC "-//W3C//DTD SVG 1.1//EN"
 "http://www.w3.org/Graphics/SVG/1.1/DTD/svg11.dtd">
<!-- Generated by graphviz version 2.36.0 (20140111.2315)
 -->
<!-- Title: labelings Pages: 1 -->
<svg width="1190pt" height="547pt"
 viewBox="0.00 0.00 1190.00 547.00" xmlns="http://www.w3.org/2000/svg" xmlns:xlink="http://www.w3.org/1999/xlink">
<g id="graph0" class="graph" transform="scale(1 1) rotate(0) translate(4 543)">
<title>labelings</title>
<polygon fill="white" stroke="none" points="-4,4 -4,-543 1186,-543 1186,4 -4,4"/>
<g id="clust3" class="cluster"><title>cluster_alpha</title>
<polygon fill="none" stroke="black" points="8,-112 8,-221 152,-221 152,-112 8,-112"/>
</g>
<g id="clust7" class="cluster"><title>cluster_beta</title>
<polygon fill="none" stroke="black" points="606,-250 606,-359 754,-359 754,-250 606,-250"/>
</g>
<g id="clust9" class="cluster"><title>cluster_rho</title>
<polygon fill="none" stroke="black" points="908,-148 908,-257 1174,-257 1174,-148 908,-148"/>
</g>
<g id="clust11" class="cluster"><title>cluster_harmonious</title>
<polygon fill="none" stroke="black" points="611,-367 611,-531 749,-531 749,-367 611,-367"/>
</g>
<!-- cordial -->
<g id="node1" class="node"><title>cordial</title>
<path fill="khaki" stroke="black" d="M812.5,-376C812.5,-376 849.5,-376 849.5,-376 855.5,-376 861.5,-382 861.5,-388 861.5,-388 861.5,-400 861.5,-400 861.5,-406 855.5,-412 849.5,-412 849.5,-412 812.5,-412 812.5,-412 806.5,-412 800.5,-406 800.5,-400 800.5,-400 800.5,-388 800.5,-388 800.5,-382 806.5,-376 812.5,-376"/>
<text text-anchor="middle" x="831" y="-390.3" font-family="georgia" font-size="14.00">cordial</text>
</g>
<!-- inf_beta -->
<g id="node2" class="node"><title>inf_beta</title>
<path fill="khaki" stroke="black" stroke-dasharray="5,2" d="M626.5,-314C626.5,-314 733.5,-314 733.5,-314 739.5,-314 745.5,-320 745.5,-326 745.5,-326 745.5,-338 745.5,-338 745.5,-344 739.5,-350 733.5,-350 733.5,-350 626.5,-350 626.5,-350 620.5,-350 614.5,-344 614.5,-338 614.5,-338 614.5,-326 614.5,-326 614.5,-320 620.5,-314 626.5,-314"/>
<text text-anchor="middle" x="680" y="-328.3" font-family="georgia" font-size="14.00">β for infinite trees</text>
</g>
<!-- beta -->
<g id="node3" class="node"><title>beta</title>
<path fill="#9ac0cd" stroke="lightblue" d="M645,-259C645,-259 715,-259 715,-259 721,-259 727,-265 727,-271 727,-271 727,-283 727,-283 727,-289 721,-295 715,-295 715,-295 645,-295 645,-295 639,-295 633,-289 633,-283 633,-283 633,-271 633,-271 633,-265 639,-259 645,-259"/>
<text text-anchor="start" x="641" y="-274.3" font-family="georgia" font-weight="bold" font-size="14.00">β, graceful</text>
</g>
<!-- beta&#45;&gt;cordial -->
<g id="edge9" class="edge"><title>beta&#45;&gt;cordial</title>
<path fill="none" stroke="black" d="M727.172,-290.702C736.494,-294.548 745.907,-299.282 754,-305 777.887,-321.879 798.942,-347.917 812.795,-367.476"/>
<polygon fill="black" stroke="black" points="810.081,-369.705 818.638,-375.951 815.844,-365.732 810.081,-369.705"/>
</g>
<!-- sigma -->
<g id="node17" class="node"><title>sigma</title>
<path fill="lightblue" stroke="lightblue" d="M816,-165C816,-165 846,-165 846,-165 852,-165 858,-171 858,-177 858,-177 858,-189 858,-189 858,-195 852,-201 846,-201 846,-201 816,-201 816,-201 810,-201 804,-195 804,-189 804,-189 804,-177 804,-177 804,-171 810,-165 816,-165"/>
<text text-anchor="middle" x="831" y="-179.3" font-family="georgia" font-size="14.00">σ</text>
</g>
<!-- beta&#45;&gt;sigma -->
<g id="edge15" class="edge"><title>beta&#45;&gt;sigma</title>
<path fill="none" stroke="black" d="M709.729,-258.876C734.087,-243.509 769.103,-221.418 795.077,-205.032"/>
<polygon fill="black" stroke="black" points="797.264,-207.79 803.854,-199.495 793.529,-201.87 797.264,-207.79"/>
</g>
<!-- super_beta -->
<g id="node22" class="node"><title>super_beta</title>
<path fill="lightblue" stroke="lightblue" d="M811,-259C811,-259 851,-259 851,-259 857,-259 863,-265 863,-271 863,-271 863,-283 863,-283 863,-289 857,-295 851,-295 851,-295 811,-295 811,-295 805,-295 799,-289 799,-283 799,-283 799,-271 799,-271 799,-265 805,-259 811,-259"/>
<text text-anchor="middle" x="831" y="-273.3" font-family="georgia" font-size="14.00">super β</text>
</g>
<!-- beta&#45;&gt;super_beta -->
<g id="edge26" class="edge"><title>beta&#45;&gt;super_beta</title>
<path fill="none" stroke="black" d="M727.328,-277C746.934,-277 769.592,-277 788.627,-277"/>
<polygon fill="black" stroke="black" points="788.787,-280.5 798.787,-277 788.787,-273.5 788.787,-280.5"/>
</g>
<!-- seq -->
<g id="node4" class="node"><title>seq</title>
<path fill="#9ac0cd" stroke="lightblue" d="M290.5,-274C290.5,-274 361.5,-274 361.5,-274 367.5,-274 373.5,-280 373.5,-286 373.5,-286 373.5,-298 373.5,-298 373.5,-304 367.5,-310 361.5,-310 361.5,-310 290.5,-310 290.5,-310 284.5,-310 278.5,-304 278.5,-298 278.5,-298 278.5,-286 278.5,-286 278.5,-280 284.5,-274 290.5,-274"/>
<text text-anchor="start" x="286.5" y="-289.3" font-family="georgia" font-weight="bold" font-size="14.00">sequential</text>
</g>
<!-- semt -->
<g id="node9" class="node"><title>semt</title>
<path fill="lightblue" stroke="lightblue" d="M424,-470C424,-470 564,-470 564,-470 570,-470 576,-476 576,-482 576,-482 576,-494 576,-494 576,-500 570,-506 564,-506 564,-506 424,-506 424,-506 418,-506 412,-500 412,-494 412,-494 412,-482 412,-482 412,-476 418,-470 424,-470"/>
<text text-anchor="middle" x="494" y="-484.3" font-family="georgia" font-size="14.00">super&#45;edge&#45;magic total</text>
</g>
<!-- seq&#45;&gt;semt -->
<g id="edge4" class="edge"><title>seq&#45;&gt;semt</title>
<path fill="none" stroke="black" d="M335.16,-310.43C348.13,-338.322 375.546,-391.925 410,-429 422.475,-442.424 438.455,-454.65 453.057,-464.448"/>
<polygon fill="black" stroke="black" points="451.17,-467.396 461.458,-469.926 454.994,-461.532 451.17,-467.396"/>
</g>
<!-- felicitous -->
<g id="node25" class="node"><title>felicitous</title>
<path fill="lightblue" stroke="lightblue" d="M469,-384C469,-384 519,-384 519,-384 525,-384 531,-390 531,-396 531,-396 531,-408 531,-408 531,-414 525,-420 519,-420 519,-420 469,-420 469,-420 463,-420 457,-414 457,-408 457,-408 457,-396 457,-396 457,-390 463,-384 469,-384"/>
<text text-anchor="middle" x="494" y="-398.3" font-family="georgia" font-size="14.00">felicitous</text>
</g>
<!-- seq&#45;&gt;felicitous -->
<g id="edge27" class="edge"><title>seq&#45;&gt;felicitous</title>
<path fill="none" stroke="black" d="M341.055,-310.084C356.248,-328.519 382.065,-356.782 410,-374 421.237,-380.926 434.395,-386.374 446.88,-390.55"/>
<polygon fill="black" stroke="black" points="446.11,-393.977 456.699,-393.631 448.206,-387.298 446.11,-393.977"/>
</g>
<!-- antimagic -->
<g id="node28" class="node"><title>antimagic</title>
<path fill="lightblue" stroke="lightblue" d="M430,-274C430,-274 558,-274 558,-274 564,-274 570,-280 570,-286 570,-286 570,-298 570,-298 570,-304 564,-310 558,-310 558,-310 430,-310 430,-310 424,-310 418,-304 418,-298 418,-298 418,-286 418,-286 418,-280 424,-274 430,-274"/>
<text text-anchor="middle" x="494" y="-288.3" font-family="georgia" font-size="14.00">(a, 1)&#45;edge&#45;antimagic</text>
</g>
<!-- seq&#45;&gt;antimagic -->
<g id="edge30" class="edge"><title>seq&#45;&gt;antimagic</title>
<path fill="none" stroke="black" d="M373.682,-292C384.288,-292 395.88,-292 407.537,-292"/>
<polygon fill="black" stroke="black" points="407.774,-295.5 417.774,-292 407.774,-288.5 407.774,-295.5"/>
</g>
<!-- seq_add -->
<g id="node29" class="node"><title>seq_add</title>
<path fill="lightblue" stroke="lightblue" d="M453,-219C453,-219 535,-219 535,-219 541,-219 547,-225 547,-231 547,-231 547,-243 547,-243 547,-249 541,-255 535,-255 535,-255 453,-255 453,-255 447,-255 441,-249 441,-243 441,-243 441,-231 441,-231 441,-225 447,-219 453,-219"/>
<text text-anchor="middle" x="494" y="-233.3" font-family="georgia" font-size="14.00">1&#45;seq&#45;additive</text>
</g>
<!-- seq&#45;&gt;seq_add -->
<g id="edge31" class="edge"><title>seq&#45;&gt;seq_add</title>
<path fill="none" stroke="black" d="M373.502,-276.213C385.393,-272.204 398.163,-267.922 410,-264 416.823,-261.739 423.968,-259.389 431.081,-257.061"/>
<polygon fill="black" stroke="black" points="432.308,-260.342 440.726,-253.909 430.134,-253.688 432.308,-260.342"/>
</g>
<!-- alpha -->
<g id="node5" class="node"><title>alpha</title>
<path fill="lightcoral" stroke="lightcoral" d="M65,-176C65,-176 95,-176 95,-176 101,-176 107,-182 107,-188 107,-188 107,-200 107,-200 107,-206 101,-212 95,-212 95,-212 65,-212 65,-212 59,-212 53,-206 53,-200 53,-200 53,-188 53,-188 53,-182 59,-176 65,-176"/>
<text text-anchor="middle" x="80" y="-190.3" font-family="georgia" font-size="14.00">α</text>
</g>
<!-- beta_plus_seq -->
<g id="node7" class="node"><title>beta_plus_seq</title>
<path fill="lightblue" stroke="lightblue" d="M195.5,-176C195.5,-176 226.5,-176 226.5,-176 232.5,-176 238.5,-182 238.5,-188 238.5,-188 238.5,-200 238.5,-200 238.5,-206 232.5,-212 226.5,-212 226.5,-212 195.5,-212 195.5,-212 189.5,-212 183.5,-206 183.5,-200 183.5,-200 183.5,-188 183.5,-188 183.5,-182 189.5,-176 195.5,-176"/>
<text text-anchor="start" x="191.5" y="-191.3" font-family="georgia" font-size="14.00">β</text>
<text text-anchor="start" x="200.5" y="-191.3" font-family="georgia" baseline-shift="super" font-size="14.00">+</text>
<text text-anchor="start" x="208.5" y="-191.3" font-family="georgia" font-size="14.00">seq</text>
</g>
<!-- alpha&#45;&gt;beta_plus_seq -->
<g id="edge1" class="edge"><title>alpha&#45;&gt;beta_plus_seq</title>
<path fill="none" stroke="black" d="M107.105,-194C126.125,-194 152.149,-194 173.266,-194"/>
<polygon fill="black" stroke="black" points="173.491,-197.5 183.491,-194 173.491,-190.5 173.491,-197.5"/>
</g>
<!-- alpha_deg3 -->
<g id="node6" class="node"><title>alpha_deg3</title>
<path fill="lightblue" stroke="black" stroke-dasharray="5,2" d="M28,-121C28,-121 132,-121 132,-121 138,-121 144,-127 144,-133 144,-133 144,-145 144,-145 144,-151 138,-157 132,-157 132,-157 28,-157 28,-157 22,-157 16,-151 16,-145 16,-145 16,-133 16,-133 16,-127 22,-121 28,-121"/>
<text text-anchor="middle" x="80" y="-135.3" font-family="georgia" font-size="14.00">α for max deg = 3</text>
</g>
<!-- beta_plus_seq&#45;&gt;seq -->
<g id="edge2" class="edge"><title>beta_plus_seq&#45;&gt;seq</title>
<path fill="none" stroke="black" d="M232.99,-212.203C250.828,-227.674 276.609,-250.033 296.346,-267.15"/>
<polygon fill="black" stroke="black" points="294.275,-269.986 304.123,-273.894 298.861,-264.698 294.275,-269.986"/>
</g>
<!-- beta_plus -->
<g id="node8" class="node"><title>beta_plus</title>
<path fill="lightblue" stroke="lightblue" d="M311,-149C311,-149 341,-149 341,-149 347,-149 353,-155 353,-161 353,-161 353,-173 353,-173 353,-179 347,-185 341,-185 341,-185 311,-185 311,-185 305,-185 299,-179 299,-173 299,-173 299,-161 299,-161 299,-155 305,-149 311,-149"/>
<text text-anchor="start" x="317.5" y="-164.3" font-family="georgia" font-size="14.00">β</text>
<text text-anchor="start" x="326.5" y="-164.3" font-family="georgia" baseline-shift="super" font-size="14.00">+</text>
</g>
<!-- beta_plus_seq&#45;&gt;beta_plus -->
<g id="edge3" class="edge"><title>beta_plus_seq&#45;&gt;beta_plus</title>
<path fill="none" stroke="black" d="M238.779,-187.601C253.805,-184.011 272.75,-179.485 289.052,-175.589"/>
<polygon fill="black" stroke="black" points="289.89,-178.988 298.803,-173.26 288.263,-172.179 289.89,-178.988"/>
</g>
<!-- beta_plus&#45;&gt;beta -->
<g id="edge7" class="edge"><title>beta_plus&#45;&gt;beta</title>
<path fill="none" stroke="black" d="M353.151,-169.009C409.448,-173.709 540.09,-186.741 578,-209 595.179,-219.087 590.266,-231.781 606,-244 611.388,-248.184 617.391,-251.976 623.575,-255.373"/>
<polygon fill="black" stroke="black" points="622.221,-258.612 632.716,-260.067 625.419,-252.385 622.221,-258.612"/>
</g>
<!-- rho_sigma -->
<g id="node11" class="node"><title>rho_sigma</title>
<path fill="lightblue" stroke="black" d="M458.5,-125C458.5,-125 529.5,-125 529.5,-125 535.5,-125 541.5,-131 541.5,-137 541.5,-137 541.5,-149 541.5,-149 541.5,-155 535.5,-161 529.5,-161 529.5,-161 458.5,-161 458.5,-161 452.5,-161 446.5,-155 446.5,-149 446.5,-149 446.5,-137 446.5,-137 446.5,-131 452.5,-125 458.5,-125"/>
<text text-anchor="start" x="454.5" y="-140.3" font-family="georgia" font-size="14.00">ρ</text>
<text text-anchor="start" x="463.5" y="-140.3" font-family="georgia" baseline-shift="super" font-size="14.00">++</text>
<text text-anchor="start" x="479.5" y="-140.3" font-family="georgia" font-size="14.00">bi</text>
<polyline fill="none" stroke="black" points="500.5,-125 500.5,-161 "/>
<text text-anchor="start" x="508.5" y="-140.3" font-family="georgia" font-size="14.00">σ</text>
<text text-anchor="start" x="517.5" y="-140.3" font-family="georgia" baseline-shift="super" font-size="14.00">++</text>
</g>
<!-- beta_plus&#45;&gt;rho_sigma -->
<g id="edge6" class="edge"><title>beta_plus&#45;&gt;rho_sigma</title>
<path fill="none" stroke="black" d="M353.303,-163.197C375.531,-159.983 408.152,-155.267 436.281,-151.2"/>
<polygon fill="black" stroke="black" points="437.018,-154.63 446.414,-149.735 436.016,-147.702 437.018,-154.63"/>
</g>
<!-- odd_beta_plus -->
<g id="node20" class="node"><title>odd_beta_plus</title>
<path fill="lightblue" stroke="lightblue" d="M660.5,-0C660.5,-0 699.5,-0 699.5,-0 705.5,-0 711.5,-6 711.5,-12 711.5,-12 711.5,-24 711.5,-24 711.5,-30 705.5,-36 699.5,-36 699.5,-36 660.5,-36 660.5,-36 654.5,-36 648.5,-30 648.5,-24 648.5,-24 648.5,-12 648.5,-12 648.5,-6 654.5,-0 660.5,-0"/>
<text text-anchor="middle" x="680" y="-14.3" font-family="georgia" font-size="14.00">odd&#45;β+</text>
</g>
<!-- beta_plus&#45;&gt;odd_beta_plus -->
<g id="edge22" class="edge"><title>beta_plus&#45;&gt;odd_beta_plus</title>
<path fill="none" stroke="black" d="M353.001,-151.829C359.872,-147.733 367.252,-143.256 374,-139 390.265,-128.742 392.83,-123.658 410,-115 487.458,-75.9417 584.503,-45.0109 638.308,-29.3098"/>
<polygon fill="black" stroke="black" points="639.519,-32.6031 648.155,-26.4657 637.577,-25.878 639.519,-32.6031"/>
</g>
<!-- harm -->
<g id="node10" class="node"><title>harm</title>
<path fill="lightblue" stroke="lightblue" d="M645.5,-486C645.5,-486 714.5,-486 714.5,-486 720.5,-486 726.5,-492 726.5,-498 726.5,-498 726.5,-510 726.5,-510 726.5,-516 720.5,-522 714.5,-522 714.5,-522 645.5,-522 645.5,-522 639.5,-522 633.5,-516 633.5,-510 633.5,-510 633.5,-498 633.5,-498 633.5,-492 639.5,-486 645.5,-486"/>
<text text-anchor="middle" x="680" y="-500.3" font-family="georgia" font-size="14.00">harmonious</text>
</g>
<!-- semt&#45;&gt;harm -->
<g id="edge5" class="edge"><title>semt&#45;&gt;harm</title>
<path fill="none" stroke="black" d="M576.241,-495.064C592.119,-496.445 608.432,-497.864 623.25,-499.152"/>
<polygon fill="black" stroke="black" points="622.982,-502.642 633.247,-500.021 623.588,-495.668 622.982,-502.642"/>
</g>
<!-- harm&#45;&gt;cordial -->
<g id="edge10" class="edge"><title>harm&#45;&gt;cordial</title>
<path fill="none" stroke="black" d="M726.612,-490.201C736.071,-486.343 745.68,-481.629 754,-476 776.244,-460.951 796.643,-438.217 810.695,-420.5"/>
<polygon fill="black" stroke="black" points="813.716,-422.314 817.063,-412.261 808.178,-418.033 813.716,-422.314"/>
</g>
<!-- rho_bi -->
<g id="node14" class="node"><title>rho_bi</title>
<path fill="lightblue" stroke="black" d="M928,-212C928,-212 1154,-212 1154,-212 1160,-212 1166,-218 1166,-224 1166,-224 1166,-236 1166,-236 1166,-242 1160,-248 1154,-248 1154,-248 928,-248 928,-248 922,-248 916,-242 916,-236 916,-236 916,-224 916,-224 916,-218 922,-212 928,-212"/>
<text text-anchor="start" x="924" y="-226.3" font-family="georgia" font-size="14.00">ρ bigraceful</text>
<polyline fill="none" stroke="black" points="1008,-212 1008,-248 "/>
<text text-anchor="start" x="1016" y="-227.3" font-family="georgia" font-size="14.00">Ringel&#45;Kotzig for K</text>
<text text-anchor="start" x="1138" y="-227.3" font-family="georgia" baseline-shift="sub" font-size="14.00">n, n</text>
</g>
<!-- harm&#45;&gt;rho_bi -->
<g id="edge11" class="edge"><title>harm&#45;&gt;rho_bi</title>
<path fill="none" stroke="black" d="M726.563,-492.041C769.172,-479.307 833.1,-456.104 880,-421 943.104,-373.768 997.438,-297.005 1023.51,-256.681"/>
<polygon fill="black" stroke="black" points="1026.51,-258.498 1028.94,-248.185 1020.61,-254.731 1026.51,-258.498"/>
</g>
<!-- rho_sigma&#45;&gt;rho_bi -->
<g id="edge12" class="edge"><title>rho_sigma&#45;&gt;rho_bi</title>
<path fill="none" stroke="black" d="M541.849,-153.212C554.369,-157.38 567.362,-163.133 578,-171 595.157,-183.687 587.244,-199.825 606,-210 656.027,-237.141 797.894,-239.233 905.936,-236.377"/>
<polygon fill="black" stroke="black" points="906.054,-239.875 915.952,-236.095 905.857,-232.878 906.054,-239.875"/>
</g>
<!-- rho_pp -->
<g id="node15" class="node"><title>rho_pp</title>
<path fill="lightblue" stroke="lightblue" d="M665,-55C665,-55 695,-55 695,-55 701,-55 707,-61 707,-67 707,-67 707,-79 707,-79 707,-85 701,-91 695,-91 695,-91 665,-91 665,-91 659,-91 653,-85 653,-79 653,-79 653,-67 653,-67 653,-61 659,-55 665,-55"/>
<text text-anchor="start" x="667.5" y="-70.3" font-family="georgia" font-size="14.00">ρ</text>
<text text-anchor="start" x="676.5" y="-70.3" font-family="georgia" baseline-shift="super" font-size="14.00">++</text>
</g>
<!-- rho_sigma&#45;&gt;rho_pp -->
<g id="edge13" class="edge"><title>rho_sigma&#45;&gt;rho_pp</title>
<path fill="none" stroke="black" d="M541.114,-124.954C561.042,-117.203 584.643,-108.086 606,-100 618.144,-95.4024 631.456,-90.4521 643.349,-86.0616"/>
<polygon fill="black" stroke="black" points="644.775,-89.2664 652.949,-82.5254 642.355,-82.6979 644.775,-89.2664"/>
</g>
<!-- sigma_p -->
<g id="node16" class="node"><title>sigma_p</title>
<path fill="lightblue" stroke="lightblue" d="M665,-110C665,-110 695,-110 695,-110 701,-110 707,-116 707,-122 707,-122 707,-134 707,-134 707,-140 701,-146 695,-146 695,-146 665,-146 665,-146 659,-146 653,-140 653,-134 653,-134 653,-122 653,-122 653,-116 659,-110 665,-110"/>
<text text-anchor="start" x="671.5" y="-125.3" font-family="georgia" font-size="14.00">σ</text>
<text text-anchor="start" x="680.5" y="-125.3" font-family="georgia" baseline-shift="super" font-size="14.00">+</text>
</g>
<!-- rho_sigma&#45;&gt;sigma_p -->
<g id="edge14" class="edge"><title>rho_sigma&#45;&gt;sigma_p</title>
<path fill="none" stroke="black" d="M541.907,-139.176C573.295,-136.617 613.987,-133.3 642.863,-130.946"/>
<polygon fill="black" stroke="black" points="643.245,-134.426 652.928,-130.125 642.677,-127.45 643.245,-134.426"/>
</g>
<!-- alpha_2 -->
<g id="node30" class="node"><title>alpha_2</title>
<path fill="lightblue" stroke="lightblue" d="M665,-165C665,-165 695,-165 695,-165 701,-165 707,-171 707,-177 707,-177 707,-189 707,-189 707,-195 701,-201 695,-201 695,-201 665,-201 665,-201 659,-201 653,-195 653,-189 653,-189 653,-177 653,-177 653,-171 659,-165 665,-165"/>
<text text-anchor="start" x="672" y="-180.3" font-family="georgia" font-size="14.00">α</text>
<text text-anchor="start" x="681" y="-180.3" font-family="georgia" baseline-shift="sub" font-size="14.00">2</text>
</g>
<!-- rho_sigma&#45;&gt;alpha_2 -->
<g id="edge32" class="edge"><title>rho_sigma&#45;&gt;alpha_2</title>
<path fill="none" stroke="black" d="M541.907,-153.197C573.295,-160.021 613.987,-168.867 642.863,-175.144"/>
<polygon fill="black" stroke="black" points="642.413,-178.628 652.928,-177.332 643.9,-171.788 642.413,-178.628"/>
</g>
<!-- beta_rot -->
<g id="node12" class="node"><title>beta_rot</title>
<path fill="lightblue" stroke="black" stroke-dasharray="5,2" d="M422,-329C422,-329 566,-329 566,-329 572,-329 578,-335 578,-341 578,-341 578,-353 578,-353 578,-359 572,-365 566,-365 566,-365 422,-365 422,-365 416,-365 410,-359 410,-353 410,-353 410,-341 410,-341 410,-335 416,-329 422,-329"/>
<text text-anchor="middle" x="494" y="-343.3" font-family="georgia" font-size="14.00">max&#45;edge β&#45;rotatability</text>
</g>
<!-- beta_rot&#45;&gt;beta -->
<g id="edge8" class="edge"><title>beta_rot&#45;&gt;beta</title>
<path fill="none" stroke="black" d="M552.091,-328.903C560.843,-325.795 569.717,-322.449 578,-319 590.845,-313.652 593.267,-310.609 606,-305 611.625,-302.522 617.544,-300.045 623.477,-297.645"/>
<polygon fill="black" stroke="black" points="624.772,-300.897 632.771,-293.95 622.186,-294.392 624.772,-300.897"/>
</g>
<!-- rho -->
<g id="node13" class="node"><title>rho</title>
<path fill="lightblue" stroke="black" d="M968,-157C968,-157 1114,-157 1114,-157 1120,-157 1126,-163 1126,-169 1126,-169 1126,-181 1126,-181 1126,-187 1120,-193 1114,-193 1114,-193 968,-193 968,-193 962,-193 956,-187 956,-181 956,-181 956,-169 956,-169 956,-163 962,-157 968,-157"/>
<text text-anchor="start" x="964" y="-171.3" font-family="georgia" font-size="14.00">ρ</text>
<polyline fill="none" stroke="black" points="981,-157 981,-193 "/>
<text text-anchor="start" x="989" y="-172.3" font-family="georgia" font-size="14.00">Ringel&#45;Kotzig for K</text>
<text text-anchor="start" x="1111" y="-172.3" font-family="georgia" baseline-shift="sub" font-size="14.00">n</text>
</g>
<!-- rho_p -->
<g id="node18" class="node"><title>rho_p</title>
<path fill="lightblue" stroke="lightblue" d="M816,-96C816,-96 846,-96 846,-96 852,-96 858,-102 858,-108 858,-108 858,-120 858,-120 858,-126 852,-132 846,-132 846,-132 816,-132 816,-132 810,-132 804,-126 804,-120 804,-120 804,-108 804,-108 804,-102 810,-96 816,-96"/>
<text text-anchor="start" x="822.5" y="-111.3" font-family="georgia" font-size="14.00">ρ</text>
<text text-anchor="start" x="831.5" y="-111.3" font-family="georgia" baseline-shift="super" font-size="14.00">+</text>
</g>
<!-- rho_pp&#45;&gt;rho_p -->
<g id="edge17" class="edge"><title>rho_pp&#45;&gt;rho_p</title>
<path fill="none" stroke="black" d="M707.295,-80.2356C731.446,-86.881 767.439,-96.7854 794.205,-104.15"/>
<polygon fill="black" stroke="black" points="793.397,-107.558 803.968,-106.837 795.255,-100.809 793.397,-107.558"/>
</g>
<!-- sigma_p&#45;&gt;sigma -->
<g id="edge16" class="edge"><title>sigma_p&#45;&gt;sigma</title>
<path fill="none" stroke="black" d="M707.295,-137.706C731.552,-146.66 767.757,-160.024 794.558,-169.918"/>
<polygon fill="black" stroke="black" points="793.374,-173.211 803.968,-173.391 795.798,-166.644 793.374,-173.211"/>
</g>
<!-- sigma_p&#45;&gt;rho_p -->
<g id="edge18" class="edge"><title>sigma_p&#45;&gt;rho_p</title>
<path fill="none" stroke="black" d="M707.295,-125.529C731.339,-123.27 767.123,-119.908 793.851,-117.397"/>
<polygon fill="black" stroke="black" points="794.339,-120.866 803.968,-116.446 793.684,-113.897 794.339,-120.866"/>
</g>
<!-- sigma&#45;&gt;rho -->
<g id="edge19" class="edge"><title>sigma&#45;&gt;rho</title>
<path fill="none" stroke="black" d="M858.343,-181.987C880.538,-181.133 913.694,-179.858 945.629,-178.63"/>
<polygon fill="black" stroke="black" points="946.081,-182.115 955.939,-178.233 945.812,-175.12 946.081,-182.115"/>
</g>
<!-- rho_p&#45;&gt;rho -->
<g id="edge20" class="edge"><title>rho_p&#45;&gt;rho</title>
<path fill="none" stroke="black" d="M858.343,-121.726C885.939,-129.819 930.483,-142.882 968.554,-154.047"/>
<polygon fill="black" stroke="black" points="968.008,-157.534 978.589,-156.99 969.978,-150.817 968.008,-157.534"/>
</g>
<!-- k_beta_p -->
<g id="node19" class="node"><title>k_beta_p</title>
<path fill="lightblue" stroke="black" stroke-dasharray="5,2" d="M192.5,-94C192.5,-94 229.5,-94 229.5,-94 235.5,-94 241.5,-100 241.5,-106 241.5,-106 241.5,-118 241.5,-118 241.5,-124 235.5,-130 229.5,-130 229.5,-130 192.5,-130 192.5,-130 186.5,-130 180.5,-124 180.5,-118 180.5,-118 180.5,-106 180.5,-106 180.5,-100 186.5,-94 192.5,-94"/>
<text text-anchor="start" x="188.5" y="-109.3" font-family="georgia" font-size="14.00">any&#45;β</text>
<text text-anchor="start" x="225.5" y="-109.3" font-family="georgia" baseline-shift="super" font-size="14.00">+</text>
</g>
<!-- k_beta_p&#45;&gt;beta_plus -->
<g id="edge21" class="edge"><title>k_beta_p&#45;&gt;beta_plus</title>
<path fill="none" stroke="black" d="M241.689,-126.451C256.419,-133.62 274.313,-142.329 289.736,-149.836"/>
<polygon fill="black" stroke="black" points="288.446,-153.101 298.969,-154.33 291.509,-146.807 288.446,-153.101"/>
</g>
<!-- k_graceful -->
<g id="node26" class="node"><title>k_graceful</title>
<path fill="lightblue" stroke="lightblue" d="M298,-94C298,-94 354,-94 354,-94 360,-94 366,-100 366,-106 366,-106 366,-118 366,-118 366,-124 360,-130 354,-130 354,-130 298,-130 298,-130 292,-130 286,-124 286,-118 286,-118 286,-106 286,-106 286,-100 292,-94 298,-94"/>
<text text-anchor="middle" x="326" y="-108.3" font-family="georgia" font-size="14.00">k&#45;graceful</text>
</g>
<!-- k_beta_p&#45;&gt;k_graceful -->
<g id="edge28" class="edge"><title>k_beta_p&#45;&gt;k_graceful</title>
<path fill="none" stroke="black" d="M241.689,-112C252.108,-112 264.11,-112 275.701,-112"/>
<polygon fill="black" stroke="black" points="275.731,-115.5 285.731,-112 275.731,-108.5 275.731,-115.5"/>
</g>
<!-- triangular -->
<g id="node27" class="node"><title>triangular</title>
<path fill="lightblue" stroke="lightblue" d="M297.5,-39C297.5,-39 354.5,-39 354.5,-39 360.5,-39 366.5,-45 366.5,-51 366.5,-51 366.5,-63 366.5,-63 366.5,-69 360.5,-75 354.5,-75 354.5,-75 297.5,-75 297.5,-75 291.5,-75 285.5,-69 285.5,-63 285.5,-63 285.5,-51 285.5,-51 285.5,-45 291.5,-39 297.5,-39"/>
<text text-anchor="middle" x="326" y="-53.3" font-family="georgia" font-size="14.00">triangular</text>
</g>
<!-- k_beta_p&#45;&gt;triangular -->
<g id="edge29" class="edge"><title>k_beta_p&#45;&gt;triangular</title>
<path fill="none" stroke="black" d="M241.689,-97.5494C252.945,-92.0711 266.048,-85.6934 278.485,-79.6402"/>
<polygon fill="black" stroke="black" points="280.364,-82.6182 287.823,-75.0948 277.3,-76.3242 280.364,-82.6182"/>
</g>
<!-- odd_beta_plus&#45;&gt;rho_p -->
<g id="edge23" class="edge"><title>odd_beta_plus&#45;&gt;rho_p</title>
<path fill="none" stroke="black" d="M711.669,-26.4436C725.196,-30.8854 740.948,-37.0748 754,-45 773.408,-56.7846 792.322,-73.9296 806.427,-88.1806"/>
<polygon fill="black" stroke="black" points="804.274,-90.9897 813.74,-95.7476 809.307,-86.1249 804.274,-90.9897"/>
</g>
<!-- odd_beta -->
<g id="node21" class="node"><title>odd_beta</title>
<path fill="lightblue" stroke="lightblue" d="M794.5,-14C794.5,-14 867.5,-14 867.5,-14 873.5,-14 879.5,-20 879.5,-26 879.5,-26 879.5,-38 879.5,-38 879.5,-44 873.5,-50 867.5,-50 867.5,-50 794.5,-50 794.5,-50 788.5,-50 782.5,-44 782.5,-38 782.5,-38 782.5,-26 782.5,-26 782.5,-20 788.5,-14 794.5,-14"/>
<text text-anchor="middle" x="831" y="-28.3" font-family="georgia" font-size="14.00">odd&#45;graceful</text>
</g>
<!-- odd_beta_plus&#45;&gt;odd_beta -->
<g id="edge24" class="edge"><title>odd_beta_plus&#45;&gt;odd_beta</title>
<path fill="none" stroke="black" d="M711.512,-20.8669C728.999,-22.51 751.524,-24.6264 772.23,-26.572"/>
<polygon fill="black" stroke="black" points="771.935,-30.0596 782.219,-27.5105 772.59,-23.0903 771.935,-30.0596"/>
</g>
<!-- odd_beta&#45;&gt;rho -->
<g id="edge25" class="edge"><title>odd_beta&#45;&gt;rho</title>
<path fill="none" stroke="black" d="M858.343,-50.111C895.594,-75.721 963.726,-122.562 1005.13,-151.029"/>
<polygon fill="black" stroke="black" points="1003.32,-154.03 1013.54,-156.811 1007.29,-148.261 1003.32,-154.03"/>
</g>
<!-- odd_harm -->
<g id="node23" class="node"><title>odd_harm</title>
<path fill="lightblue" stroke="lightblue" d="M631,-431C631,-431 729,-431 729,-431 735,-431 741,-437 741,-443 741,-443 741,-455 741,-455 741,-461 735,-467 729,-467 729,-467 631,-467 631,-467 625,-467 619,-461 619,-455 619,-455 619,-443 619,-443 619,-437 625,-431 631,-431"/>
<text text-anchor="middle" x="680" y="-445.3" font-family="georgia" font-size="14.00">odd&#45;harmonious</text>
</g>
<!-- elegant -->
<g id="node24" class="node"><title>elegant</title>
<path fill="lightblue" stroke="black" stroke-dasharray="5,2" d="M661,-376C661,-376 699,-376 699,-376 705,-376 711,-382 711,-388 711,-388 711,-400 711,-400 711,-406 705,-412 699,-412 699,-412 661,-412 661,-412 655,-412 649,-406 649,-400 649,-400 649,-388 649,-388 649,-382 655,-376 661,-376"/>
<text text-anchor="middle" x="680" y="-390.3" font-family="georgia" font-size="14.00">elegant</text>
</g>
<!-- alpha_2&#45;&gt;sigma -->
<g id="edge33" class="edge"><title>alpha_2&#45;&gt;sigma</title>
<path fill="none" stroke="black" d="M707.295,-183C731.339,-183 767.123,-183 793.851,-183"/>
<polygon fill="black" stroke="black" points="793.968,-186.5 803.968,-183 793.968,-179.5 793.968,-186.5"/>
</g>
</g>
</svg>
