<?xml version="1.0" encoding="UTF-8" standalone="no"?>
<!DOCTYPE svg PUBLIC "-//W3C//DTD SVG 1.1//EN"
 "http://www.w3.org/Graphics/SVG/1.1/DTD/svg11.dtd">
<!-- Generated by graphviz version 2.36.0 (20140111.2315)
 -->
<!-- Title: labelings Pages: 1 -->
<svg width="1156pt" height="511pt"
 viewBox="0.00 0.00 1156.00 511.47" xmlns="http://www.w3.org/2000/svg" xmlns:xlink="http://www.w3.org/1999/xlink">
<g id="graph0" class="graph" transform="scale(1 1) rotate(0) translate(4 507.472)">
<title>labelings</title>
<polygon fill="white" stroke="none" points="-4,4 -4,-507.472 1152,-507.472 1152,4 -4,4"/>
<g id="clust3" class="cluster"><title>cluster_alpha</title>
<polygon fill="none" stroke="black" points="8,-150 8,-259 152,-259 152,-150 8,-150"/>
</g>
<g id="clust7" class="cluster"><title>cluster_beta</title>
<polygon fill="none" stroke="black" points="606,-215 606,-324 754,-324 754,-215 606,-215"/>
</g>
<g id="clust9" class="cluster"><title>cluster_rho</title>
<polygon fill="none" stroke="black" points="874,-297 874,-406 1140,-406 1140,-297 874,-297"/>
</g>
<g id="clust11" class="cluster"><title>cluster_harmonious</title>
<polygon fill="none" stroke="black" points="611,-43 611,-207 749,-207 749,-43 611,-43"/>
</g>
<!-- cordial -->
<g id="node1" class="node"><title>cordial</title>
<path fill="khaki" stroke="black" d="M795.5,-209C795.5,-209 832.5,-209 832.5,-209 838.5,-209 844.5,-215 844.5,-221 844.5,-221 844.5,-233 844.5,-233 844.5,-239 838.5,-245 832.5,-245 832.5,-245 795.5,-245 795.5,-245 789.5,-245 783.5,-239 783.5,-233 783.5,-233 783.5,-221 783.5,-221 783.5,-215 789.5,-209 795.5,-209"/>
<text text-anchor="middle" x="814" y="-223.3" font-family="georgia" font-size="14.00">cordial</text>
</g>
<!-- inf_beta -->
<g id="node2" class="node"><title>inf_beta</title>
<path fill="khaki" stroke="black" stroke-dasharray="5,2" d="M626.5,-279C626.5,-279 733.5,-279 733.5,-279 739.5,-279 745.5,-285 745.5,-291 745.5,-291 745.5,-303 745.5,-303 745.5,-309 739.5,-315 733.5,-315 733.5,-315 626.5,-315 626.5,-315 620.5,-315 614.5,-309 614.5,-303 614.5,-303 614.5,-291 614.5,-291 614.5,-285 620.5,-279 626.5,-279"/>
<text text-anchor="middle" x="680" y="-293.3" font-family="georgia" font-size="14.00">β for infinite trees</text>
</g>
<!-- beta -->
<g id="node3" class="node"><title>beta</title>
<path fill="#9ac0cd" stroke="lightblue" d="M645,-224C645,-224 715,-224 715,-224 721,-224 727,-230 727,-236 727,-236 727,-248 727,-248 727,-254 721,-260 715,-260 715,-260 645,-260 645,-260 639,-260 633,-254 633,-248 633,-248 633,-236 633,-236 633,-230 639,-224 645,-224"/>
<text text-anchor="start" x="641" y="-239.3" font-family="georgia" font-weight="bold" font-size="14.00">β, graceful</text>
</g>
<!-- beta&#45;&gt;cordial -->
<g id="edge9" class="edge"><title>beta&#45;&gt;cordial</title>
<path fill="none" stroke="black" d="M727.167,-236.754C742.123,-235.054 758.578,-233.184 773.044,-231.54"/>
<polygon fill="black" stroke="black" points="773.635,-234.996 783.176,-230.389 772.845,-228.041 773.635,-234.996"/>
</g>
<!-- sigma -->
<g id="node17" class="node"><title>sigma</title>
<path fill="lightblue" stroke="lightblue" d="M799,-334C799,-334 829,-334 829,-334 835,-334 841,-340 841,-346 841,-346 841,-358 841,-358 841,-364 835,-370 829,-370 829,-370 799,-370 799,-370 793,-370 787,-364 787,-358 787,-358 787,-346 787,-346 787,-340 793,-334 799,-334"/>
<text text-anchor="middle" x="814" y="-348.3" font-family="georgia" font-size="14.00">σ</text>
</g>
<!-- beta&#45;&gt;sigma -->
<g id="edge15" class="edge"><title>beta&#45;&gt;sigma</title>
<path fill="none" stroke="black" d="M727.223,-254.274C736.644,-258.059 746.083,-262.892 754,-269 771.181,-282.256 769.432,-291.309 782,-309 785.778,-314.317 789.84,-319.986 793.739,-325.405"/>
<polygon fill="black" stroke="black" points="790.98,-327.563 799.668,-333.626 796.658,-323.468 790.98,-327.563"/>
</g>
<!-- super_beta -->
<g id="node21" class="node"><title>super_beta</title>
<path fill="lightblue" stroke="lightblue" d="M794,-264C794,-264 834,-264 834,-264 840,-264 846,-270 846,-276 846,-276 846,-288 846,-288 846,-294 840,-300 834,-300 834,-300 794,-300 794,-300 788,-300 782,-294 782,-288 782,-288 782,-276 782,-276 782,-270 788,-264 794,-264"/>
<text text-anchor="middle" x="814" y="-278.3" font-family="georgia" font-size="14.00">super β</text>
</g>
<!-- beta&#45;&gt;super_beta -->
<g id="edge23" class="edge"><title>beta&#45;&gt;super_beta</title>
<path fill="none" stroke="black" d="M727.167,-255.99C741.765,-260.413 757.789,-265.269 771.999,-269.575"/>
<polygon fill="black" stroke="black" points="771.394,-273.049 781.979,-272.6 773.424,-266.35 771.394,-273.049"/>
</g>
<!-- seq -->
<g id="node4" class="node"><title>seq</title>
<path fill="#9ac0cd" stroke="lightblue" d="M290.5,-110C290.5,-110 361.5,-110 361.5,-110 367.5,-110 373.5,-116 373.5,-122 373.5,-122 373.5,-134 373.5,-134 373.5,-140 367.5,-146 361.5,-146 361.5,-146 290.5,-146 290.5,-146 284.5,-146 278.5,-140 278.5,-134 278.5,-134 278.5,-122 278.5,-122 278.5,-116 284.5,-110 290.5,-110"/>
<text text-anchor="start" x="286.5" y="-125.3" font-family="georgia" font-weight="bold" font-size="14.00">sequential</text>
</g>
<!-- semt -->
<g id="node9" class="node"><title>semt</title>
<path fill="lightblue" stroke="lightblue" d="M424,-165C424,-165 564,-165 564,-165 570,-165 576,-171 576,-177 576,-177 576,-189 576,-189 576,-195 570,-201 564,-201 564,-201 424,-201 424,-201 418,-201 412,-195 412,-189 412,-189 412,-177 412,-177 412,-171 418,-165 424,-165"/>
<text text-anchor="middle" x="494" y="-179.3" font-family="georgia" font-size="14.00">super&#45;edge&#45;magic total</text>
</g>
<!-- seq&#45;&gt;semt -->
<g id="edge4" class="edge"><title>seq&#45;&gt;semt</title>
<path fill="none" stroke="black" d="M373.682,-143.467C390.752,-149.123 410.375,-155.624 428.713,-161.7"/>
<polygon fill="black" stroke="black" points="427.86,-165.104 438.453,-164.927 430.061,-158.46 427.86,-165.104"/>
</g>
<!-- felicitous -->
<g id="node24" class="node"><title>felicitous</title>
<path fill="lightblue" stroke="lightblue" d="M469,-110C469,-110 519,-110 519,-110 525,-110 531,-116 531,-122 531,-122 531,-134 531,-134 531,-140 525,-146 519,-146 519,-146 469,-146 469,-146 463,-146 457,-140 457,-134 457,-134 457,-122 457,-122 457,-116 463,-110 469,-110"/>
<text text-anchor="middle" x="494" y="-124.3" font-family="georgia" font-size="14.00">felicitous</text>
</g>
<!-- seq&#45;&gt;felicitous -->
<g id="edge24" class="edge"><title>seq&#45;&gt;felicitous</title>
<path fill="none" stroke="black" d="M373.682,-128C396.551,-128 424.002,-128 446.805,-128"/>
<polygon fill="black" stroke="black" points="446.922,-131.5 456.922,-128 446.922,-124.5 446.922,-131.5"/>
</g>
<!-- antimagic -->
<g id="node27" class="node"><title>antimagic</title>
<path fill="lightblue" stroke="lightblue" d="M430,-55C430,-55 558,-55 558,-55 564,-55 570,-61 570,-67 570,-67 570,-79 570,-79 570,-85 564,-91 558,-91 558,-91 430,-91 430,-91 424,-91 418,-85 418,-79 418,-79 418,-67 418,-67 418,-61 424,-55 430,-55"/>
<text text-anchor="middle" x="494" y="-69.3" font-family="georgia" font-size="14.00">(a, 1)&#45;edge&#45;antimagic</text>
</g>
<!-- seq&#45;&gt;antimagic -->
<g id="edge27" class="edge"><title>seq&#45;&gt;antimagic</title>
<path fill="none" stroke="black" d="M373.502,-112.213C385.393,-108.204 398.163,-103.922 410,-100 415.621,-98.1377 421.46,-96.2148 427.319,-94.2932"/>
<polygon fill="black" stroke="black" points="428.749,-97.508 437.165,-91.0714 426.572,-90.8551 428.749,-97.508"/>
</g>
<!-- seq_add -->
<g id="node28" class="node"><title>seq_add</title>
<path fill="lightblue" stroke="lightblue" d="M453,-0C453,-0 535,-0 535,-0 541,-0 547,-6 547,-12 547,-12 547,-24 547,-24 547,-30 541,-36 535,-36 535,-36 453,-36 453,-36 447,-36 441,-30 441,-24 441,-24 441,-12 441,-12 441,-6 447,-0 453,-0"/>
<text text-anchor="middle" x="494" y="-14.3" font-family="georgia" font-size="14.00">1&#45;seq&#45;additive</text>
</g>
<!-- seq&#45;&gt;seq_add -->
<g id="edge28" class="edge"><title>seq&#45;&gt;seq_add</title>
<path fill="none" stroke="black" d="M340.691,-109.971C355.775,-91.2627 381.681,-62.3606 410,-45 416.631,-40.935 423.939,-37.4147 431.387,-34.384"/>
<polygon fill="black" stroke="black" points="432.74,-37.6143 440.855,-30.8029 430.264,-31.067 432.74,-37.6143"/>
</g>
<!-- alpha -->
<g id="node5" class="node"><title>alpha</title>
<path fill="lightblue" stroke="red" stroke-dasharray="5,2" d="M65,-214C65,-214 95,-214 95,-214 101,-214 107,-220 107,-226 107,-226 107,-238 107,-238 107,-244 101,-250 95,-250 95,-250 65,-250 65,-250 59,-250 53,-244 53,-238 53,-238 53,-226 53,-226 53,-220 59,-214 65,-214"/>
<text text-anchor="middle" x="80" y="-228.3" font-family="georgia" font-size="14.00">α</text>
</g>
<!-- beta_plus_seq -->
<g id="node7" class="node"><title>beta_plus_seq</title>
<path fill="lightblue" stroke="lightblue" d="M195.5,-214C195.5,-214 226.5,-214 226.5,-214 232.5,-214 238.5,-220 238.5,-226 238.5,-226 238.5,-238 238.5,-238 238.5,-244 232.5,-250 226.5,-250 226.5,-250 195.5,-250 195.5,-250 189.5,-250 183.5,-244 183.5,-238 183.5,-238 183.5,-226 183.5,-226 183.5,-220 189.5,-214 195.5,-214"/>
<text text-anchor="start" x="191.5" y="-229.3" font-family="georgia" font-size="14.00">β</text>
<text text-anchor="start" x="200.5" y="-229.3" font-family="georgia" baseline-shift="super" font-size="10.00">+</text>
<text text-anchor="start" x="208.5" y="-229.3" font-family="georgia" font-size="14.00">seq</text>
</g>
<!-- alpha&#45;&gt;beta_plus_seq -->
<g id="edge1" class="edge"><title>alpha&#45;&gt;beta_plus_seq</title>
<path fill="none" stroke="black" d="M107.105,-232C126.125,-232 152.149,-232 173.266,-232"/>
<polygon fill="black" stroke="black" points="173.491,-235.5 183.491,-232 173.491,-228.5 173.491,-235.5"/>
</g>
<!-- alpha_deg3 -->
<g id="node6" class="node"><title>alpha_deg3</title>
<path fill="lightblue" stroke="black" stroke-dasharray="5,2" d="M28,-159C28,-159 132,-159 132,-159 138,-159 144,-165 144,-171 144,-171 144,-183 144,-183 144,-189 138,-195 132,-195 132,-195 28,-195 28,-195 22,-195 16,-189 16,-183 16,-183 16,-171 16,-171 16,-165 22,-159 28,-159"/>
<text text-anchor="middle" x="80" y="-173.3" font-family="georgia" font-size="14.00">α for max deg = 3</text>
</g>
<!-- beta_plus_seq&#45;&gt;seq -->
<g id="edge2" class="edge"><title>beta_plus_seq&#45;&gt;seq</title>
<path fill="none" stroke="black" d="M231.683,-213.885C249.962,-197.062 277.347,-171.858 297.728,-153.1"/>
<polygon fill="black" stroke="black" points="300.175,-155.604 305.163,-146.257 295.435,-150.453 300.175,-155.604"/>
</g>
<!-- beta_plus -->
<g id="node8" class="node"><title>beta_plus</title>
<path fill="lightblue" stroke="lightblue" d="M311,-292C311,-292 341,-292 341,-292 347,-292 353,-298 353,-304 353,-304 353,-316 353,-316 353,-322 347,-328 341,-328 341,-328 311,-328 311,-328 305,-328 299,-322 299,-316 299,-316 299,-304 299,-304 299,-298 305,-292 311,-292"/>
<text text-anchor="start" x="317.5" y="-307.3" font-family="georgia" font-size="14.00">β</text>
<text text-anchor="start" x="326.5" y="-307.3" font-family="georgia" baseline-shift="super" font-size="10.00">+</text>
</g>
<!-- beta_plus_seq&#45;&gt;beta_plus -->
<g id="edge3" class="edge"><title>beta_plus_seq&#45;&gt;beta_plus</title>
<path fill="none" stroke="black" d="M238.208,-250.091C253.754,-260.821 273.644,-274.55 290.459,-286.158"/>
<polygon fill="black" stroke="black" points="288.716,-289.207 298.934,-292.007 292.692,-283.446 288.716,-289.207"/>
</g>
<!-- beta_plus&#45;&gt;beta -->
<g id="edge7" class="edge"><title>beta_plus&#45;&gt;beta</title>
<path fill="none" stroke="black" d="M353.135,-306.166C398.896,-299.31 496.427,-284.059 578,-267 592.653,-263.936 608.404,-260.235 623.006,-256.632"/>
<polygon fill="black" stroke="black" points="624.049,-259.979 632.904,-254.162 622.354,-253.187 624.049,-259.979"/>
</g>
<!-- rho_sigma -->
<g id="node11" class="node"><title>rho_sigma</title>
<path fill="lightblue" stroke="none" d="M458.5,-389C458.5,-389 529.5,-389 529.5,-389 535.5,-389 541.5,-395 541.5,-401 541.5,-401 541.5,-413 541.5,-413 541.5,-419 535.5,-425 529.5,-425 529.5,-425 458.5,-425 458.5,-425 452.5,-425 446.5,-419 446.5,-413 446.5,-413 446.5,-401 446.5,-401 446.5,-395 452.5,-389 458.5,-389"/>
<text text-anchor="start" x="454.5" y="-404.3" font-family="georgia" font-size="14.00">ρ</text>
<text text-anchor="start" x="463.5" y="-404.3" font-family="georgia" baseline-shift="super" font-size="10.00">++</text>
<text text-anchor="start" x="479.5" y="-404.3" font-family="georgia" font-size="14.00">bi</text>
<polyline fill="none" stroke="black" points="500.5,-389 500.5,-425 "/>
<text text-anchor="start" x="508.5" y="-404.3" font-family="georgia" font-size="14.00">σ</text>
<text text-anchor="start" x="517.5" y="-404.3" font-family="georgia" baseline-shift="super" font-size="10.00">++</text>
</g>
<!-- beta_plus&#45;&gt;rho_sigma -->
<g id="edge6" class="edge"><title>beta_plus&#45;&gt;rho_sigma</title>
<path fill="none" stroke="black" d="M353.04,-324.548C359.911,-328.498 367.281,-332.837 374,-337 390.346,-347.128 393.577,-350.998 410,-361 422.681,-368.723 436.72,-376.71 449.59,-383.817"/>
<polygon fill="black" stroke="black" points="448.267,-387.083 458.718,-388.82 451.631,-380.945 448.267,-387.083"/>
</g>
<!-- odd_beta -->
<g id="node20" class="node"><title>odd_beta</title>
<path fill="lightblue" stroke="lightblue" d="M435,-316C435,-316 553,-316 553,-316 559,-316 565,-322 565,-328 565,-328 565,-340 565,-340 565,-346 559,-352 553,-352 553,-352 435,-352 435,-352 429,-352 423,-346 423,-340 423,-340 423,-328 423,-328 423,-322 429,-316 435,-316"/>
<text text-anchor="middle" x="494" y="-330.3" font-family="georgia" font-size="14.00">odd&#45;β, odd&#45;graceful</text>
</g>
<!-- beta_plus&#45;&gt;odd_beta -->
<g id="edge22" class="edge"><title>beta_plus&#45;&gt;odd_beta</title>
<path fill="none" stroke="black" d="M353.303,-313.803C369.482,-316.142 391.167,-319.277 412.618,-322.378"/>
<polygon fill="black" stroke="black" points="412.371,-325.879 422.769,-323.846 413.373,-318.951 412.371,-325.879"/>
</g>
<!-- harm -->
<g id="node10" class="node"><title>harm</title>
<path fill="lightblue" stroke="lightblue" d="M645.5,-162C645.5,-162 714.5,-162 714.5,-162 720.5,-162 726.5,-168 726.5,-174 726.5,-174 726.5,-186 726.5,-186 726.5,-192 720.5,-198 714.5,-198 714.5,-198 645.5,-198 645.5,-198 639.5,-198 633.5,-192 633.5,-186 633.5,-186 633.5,-174 633.5,-174 633.5,-168 639.5,-162 645.5,-162"/>
<text text-anchor="middle" x="680" y="-176.3" font-family="georgia" font-size="14.00">harmonious</text>
</g>
<!-- semt&#45;&gt;harm -->
<g id="edge5" class="edge"><title>semt&#45;&gt;harm</title>
<path fill="none" stroke="black" d="M576.241,-181.675C591.967,-181.419 608.118,-181.156 622.823,-180.916"/>
<polygon fill="black" stroke="black" points="623.306,-184.409 633.247,-180.746 623.191,-177.41 623.306,-184.409"/>
</g>
<!-- harm&#45;&gt;cordial -->
<g id="edge10" class="edge"><title>harm&#45;&gt;cordial</title>
<path fill="none" stroke="black" d="M726.797,-196.306C742.043,-201.735 758.881,-207.73 773.599,-212.971"/>
<polygon fill="black" stroke="black" points="772.81,-216.405 783.405,-216.462 775.158,-209.811 772.81,-216.405"/>
</g>
<!-- rho_bi -->
<g id="node14" class="node"><title>rho_bi</title>
<path fill="lightblue" stroke="none" d="M894,-306C894,-306 1120,-306 1120,-306 1126,-306 1132,-312 1132,-318 1132,-318 1132,-330 1132,-330 1132,-336 1126,-342 1120,-342 1120,-342 894,-342 894,-342 888,-342 882,-336 882,-330 882,-330 882,-318 882,-318 882,-312 888,-306 894,-306"/>
<text text-anchor="start" x="890" y="-320.3" font-family="georgia" font-size="14.00">ρ bigraceful</text>
<polyline fill="none" stroke="black" points="974,-306 974,-342 "/>
<text text-anchor="start" x="982" y="-321.3" font-family="georgia" font-size="14.00">Ringel&#45;Kotzig for K</text>
<text text-anchor="start" x="1104" y="-321.3" font-family="georgia" baseline-shift="sub" font-size="11.00">n, n</text>
</g>
<!-- harm&#45;&gt;rho_bi -->
<g id="edge11" class="edge"><title>harm&#45;&gt;rho_bi</title>
<path fill="none" stroke="black" d="M726.762,-178.698C760.832,-179.268 807.845,-183.364 846,-199 901.093,-221.577 953.138,-268.777 982.174,-298.28"/>
<polygon fill="black" stroke="black" points="979.922,-300.986 989.392,-305.735 984.951,-296.116 979.922,-300.986"/>
</g>
<!-- rho_sigma&#45;&gt;rho_bi -->
<g id="edge12" class="edge"><title>rho_sigma&#45;&gt;rho_bi</title>
<path fill="none" stroke="black" d="M512.14,-425.304C532.339,-445.403 567.996,-476.485 606,-489 668.477,-509.575 690.595,-506.508 754,-489 799.92,-476.32 816.095,-471.082 846,-434 870.439,-403.695 844.824,-376.776 874,-351 875.178,-349.959 876.385,-348.955 877.618,-347.985"/>
<polygon fill="black" stroke="black" points="879.907,-350.658 886.124,-342.079 875.914,-344.908 879.907,-350.658"/>
</g>
<!-- rho_pp -->
<g id="node15" class="node"><title>rho_pp</title>
<path fill="lightblue" stroke="lightblue" d="M665,-444C665,-444 695,-444 695,-444 701,-444 707,-450 707,-456 707,-456 707,-468 707,-468 707,-474 701,-480 695,-480 695,-480 665,-480 665,-480 659,-480 653,-474 653,-468 653,-468 653,-456 653,-456 653,-450 659,-444 665,-444"/>
<text text-anchor="start" x="667.5" y="-459.3" font-family="georgia" font-size="14.00">ρ</text>
<text text-anchor="start" x="676.5" y="-459.3" font-family="georgia" baseline-shift="super" font-size="10.00">++</text>
</g>
<!-- rho_sigma&#45;&gt;rho_pp -->
<g id="edge13" class="edge"><title>rho_sigma&#45;&gt;rho_pp</title>
<path fill="none" stroke="black" d="M541.907,-421.021C573.433,-430.445 614.344,-442.674 643.242,-451.312"/>
<polygon fill="black" stroke="black" points="642.344,-454.696 652.928,-454.207 644.349,-447.989 642.344,-454.696"/>
</g>
<!-- sigma_p -->
<g id="node16" class="node"><title>sigma_p</title>
<path fill="lightblue" stroke="lightblue" d="M665,-389C665,-389 695,-389 695,-389 701,-389 707,-395 707,-401 707,-401 707,-413 707,-413 707,-419 701,-425 695,-425 695,-425 665,-425 665,-425 659,-425 653,-419 653,-413 653,-413 653,-401 653,-401 653,-395 659,-389 665,-389"/>
<text text-anchor="start" x="671.5" y="-404.3" font-family="georgia" font-size="14.00">σ</text>
<text text-anchor="start" x="680.5" y="-404.3" font-family="georgia" baseline-shift="super" font-size="10.00">+</text>
</g>
<!-- rho_sigma&#45;&gt;sigma_p -->
<g id="edge14" class="edge"><title>rho_sigma&#45;&gt;sigma_p</title>
<path fill="none" stroke="black" d="M541.907,-407C573.295,-407 613.987,-407 642.863,-407"/>
<polygon fill="black" stroke="black" points="642.928,-410.5 652.928,-407 642.928,-403.5 642.928,-410.5"/>
</g>
<!-- alpha_2 -->
<g id="node29" class="node"><title>alpha_2</title>
<path fill="lightblue" stroke="lightblue" d="M665,-334C665,-334 695,-334 695,-334 701,-334 707,-340 707,-346 707,-346 707,-358 707,-358 707,-364 701,-370 695,-370 695,-370 665,-370 665,-370 659,-370 653,-364 653,-358 653,-358 653,-346 653,-346 653,-340 659,-334 665,-334"/>
<text text-anchor="start" x="672" y="-349.3" font-family="georgia" font-size="14.00">α</text>
<text text-anchor="start" x="681" y="-349.3" font-family="georgia" baseline-shift="sub" font-size="11.00">2</text>
</g>
<!-- rho_sigma&#45;&gt;alpha_2 -->
<g id="edge29" class="edge"><title>rho_sigma&#45;&gt;alpha_2</title>
<path fill="none" stroke="black" d="M541.907,-392.979C573.433,-383.555 614.344,-371.326 643.242,-362.688"/>
<polygon fill="black" stroke="black" points="644.349,-366.011 652.928,-359.793 642.344,-359.304 644.349,-366.011"/>
</g>
<!-- beta_rot -->
<g id="node12" class="node"><title>beta_rot</title>
<path fill="lightblue" stroke="black" stroke-dasharray="5,2" d="M422,-222C422,-222 566,-222 566,-222 572,-222 578,-228 578,-234 578,-234 578,-246 578,-246 578,-252 572,-258 566,-258 566,-258 422,-258 422,-258 416,-258 410,-252 410,-246 410,-246 410,-234 410,-234 410,-228 416,-222 422,-222"/>
<text text-anchor="middle" x="494" y="-236.3" font-family="georgia" font-size="14.00">max&#45;edge β&#45;rotatability</text>
</g>
<!-- beta_rot&#45;&gt;beta -->
<g id="edge8" class="edge"><title>beta_rot&#45;&gt;beta</title>
<path fill="none" stroke="black" d="M578.118,-240.903C593.292,-241.068 608.791,-241.237 622.944,-241.391"/>
<polygon fill="black" stroke="black" points="622.95,-244.891 632.987,-241.5 623.026,-237.891 622.95,-244.891"/>
</g>
<!-- rho -->
<g id="node13" class="node"><title>rho</title>
<path fill="lightblue" stroke="none" d="M934,-361C934,-361 1080,-361 1080,-361 1086,-361 1092,-367 1092,-373 1092,-373 1092,-385 1092,-385 1092,-391 1086,-397 1080,-397 1080,-397 934,-397 934,-397 928,-397 922,-391 922,-385 922,-385 922,-373 922,-373 922,-367 928,-361 934,-361"/>
<text text-anchor="start" x="930" y="-375.3" font-family="georgia" font-size="14.00">ρ</text>
<polyline fill="none" stroke="black" points="947,-361 947,-397 "/>
<text text-anchor="start" x="955" y="-376.3" font-family="georgia" font-size="14.00">Ringel&#45;Kotzig for K</text>
<text text-anchor="start" x="1077" y="-376.3" font-family="georgia" baseline-shift="sub" font-size="11.00">n</text>
</g>
<!-- rho_p -->
<g id="node18" class="node"><title>rho_p</title>
<path fill="lightblue" stroke="lightblue" d="M799,-389C799,-389 829,-389 829,-389 835,-389 841,-395 841,-401 841,-401 841,-413 841,-413 841,-419 835,-425 829,-425 829,-425 799,-425 799,-425 793,-425 787,-419 787,-413 787,-413 787,-401 787,-401 787,-395 793,-389 799,-389"/>
<text text-anchor="start" x="805.5" y="-404.3" font-family="georgia" font-size="14.00">ρ</text>
<text text-anchor="start" x="814.5" y="-404.3" font-family="georgia" baseline-shift="super" font-size="10.00">+</text>
</g>
<!-- rho_pp&#45;&gt;rho_p -->
<g id="edge17" class="edge"><title>rho_pp&#45;&gt;rho_p</title>
<path fill="none" stroke="black" d="M707.173,-452.416C721.154,-447.183 738.607,-440.467 754,-434 761.679,-430.774 769.843,-427.159 777.573,-423.65"/>
<polygon fill="black" stroke="black" points="779.093,-426.803 786.724,-419.453 776.175,-420.44 779.093,-426.803"/>
</g>
<!-- sigma_p&#45;&gt;sigma -->
<g id="edge16" class="edge"><title>sigma_p&#45;&gt;sigma</title>
<path fill="none" stroke="black" d="M707.173,-397.416C721.154,-392.183 738.607,-385.467 754,-379 761.679,-375.774 769.843,-372.159 777.573,-368.65"/>
<polygon fill="black" stroke="black" points="779.093,-371.803 786.724,-364.453 776.175,-365.44 779.093,-371.803"/>
</g>
<!-- sigma_p&#45;&gt;rho_p -->
<g id="edge18" class="edge"><title>sigma_p&#45;&gt;rho_p</title>
<path fill="none" stroke="black" d="M707.079,-407C727.056,-407 754.851,-407 776.955,-407"/>
<polygon fill="black" stroke="black" points="776.975,-410.5 786.975,-407 776.975,-403.5 776.975,-410.5"/>
</g>
<!-- sigma&#45;&gt;rho -->
<g id="edge19" class="edge"><title>sigma&#45;&gt;rho</title>
<path fill="none" stroke="black" d="M841.157,-355.698C859.729,-358.323 885.892,-362.021 911.915,-365.7"/>
<polygon fill="black" stroke="black" points="911.474,-369.172 921.865,-367.107 912.454,-362.241 911.474,-369.172"/>
</g>
<!-- rho_p&#45;&gt;rho -->
<g id="edge20" class="edge"><title>rho_p&#45;&gt;rho</title>
<path fill="none" stroke="black" d="M841.157,-403.165C859.729,-400.443 885.892,-396.607 911.915,-392.793"/>
<polygon fill="black" stroke="black" points="912.479,-396.247 921.865,-391.334 911.463,-389.321 912.479,-396.247"/>
</g>
<!-- k_beta_p -->
<g id="node19" class="node"><title>k_beta_p</title>
<path fill="lightblue" stroke="black" stroke-dasharray="5,2" d="M192.5,-347C192.5,-347 229.5,-347 229.5,-347 235.5,-347 241.5,-353 241.5,-359 241.5,-359 241.5,-371 241.5,-371 241.5,-377 235.5,-383 229.5,-383 229.5,-383 192.5,-383 192.5,-383 186.5,-383 180.5,-377 180.5,-371 180.5,-371 180.5,-359 180.5,-359 180.5,-353 186.5,-347 192.5,-347"/>
<text text-anchor="start" x="188.5" y="-362.3" font-family="georgia" font-size="14.00">any&#45;β</text>
<text text-anchor="start" x="225.5" y="-362.3" font-family="georgia" baseline-shift="super" font-size="10.00">+</text>
</g>
<!-- k_beta_p&#45;&gt;beta_plus -->
<g id="edge21" class="edge"><title>k_beta_p&#45;&gt;beta_plus</title>
<path fill="none" stroke="black" d="M241.689,-350.549C256.419,-343.38 274.313,-334.671 289.736,-327.164"/>
<polygon fill="black" stroke="black" points="291.509,-330.193 298.969,-322.67 288.446,-323.899 291.509,-330.193"/>
</g>
<!-- k_graceful -->
<g id="node25" class="node"><title>k_graceful</title>
<path fill="lightblue" stroke="lightblue" d="M298,-402C298,-402 354,-402 354,-402 360,-402 366,-408 366,-414 366,-414 366,-426 366,-426 366,-432 360,-438 354,-438 354,-438 298,-438 298,-438 292,-438 286,-432 286,-426 286,-426 286,-414 286,-414 286,-408 292,-402 298,-402"/>
<text text-anchor="middle" x="326" y="-416.3" font-family="georgia" font-size="14.00">k&#45;graceful</text>
</g>
<!-- k_beta_p&#45;&gt;k_graceful -->
<g id="edge25" class="edge"><title>k_beta_p&#45;&gt;k_graceful</title>
<path fill="none" stroke="black" d="M241.689,-379.451C252.945,-384.929 266.048,-391.307 278.485,-397.36"/>
<polygon fill="black" stroke="black" points="277.3,-400.676 287.823,-401.905 280.364,-394.382 277.3,-400.676"/>
</g>
<!-- triangular -->
<g id="node26" class="node"><title>triangular</title>
<path fill="lightblue" stroke="lightblue" d="M297.5,-347C297.5,-347 354.5,-347 354.5,-347 360.5,-347 366.5,-353 366.5,-359 366.5,-359 366.5,-371 366.5,-371 366.5,-377 360.5,-383 354.5,-383 354.5,-383 297.5,-383 297.5,-383 291.5,-383 285.5,-377 285.5,-371 285.5,-371 285.5,-359 285.5,-359 285.5,-353 291.5,-347 297.5,-347"/>
<text text-anchor="middle" x="326" y="-361.3" font-family="georgia" font-size="14.00">triangular</text>
</g>
<!-- k_beta_p&#45;&gt;triangular -->
<g id="edge26" class="edge"><title>k_beta_p&#45;&gt;triangular</title>
<path fill="none" stroke="black" d="M241.689,-365C251.903,-365 263.637,-365 275.015,-365"/>
<polygon fill="black" stroke="black" points="275.309,-368.5 285.309,-365 275.309,-361.5 275.309,-368.5"/>
</g>
<!-- elegant -->
<g id="node22" class="node"><title>elegant</title>
<path fill="lightblue" stroke="lightblue" d="M661,-107C661,-107 699,-107 699,-107 705,-107 711,-113 711,-119 711,-119 711,-131 711,-131 711,-137 705,-143 699,-143 699,-143 661,-143 661,-143 655,-143 649,-137 649,-131 649,-131 649,-119 649,-119 649,-113 655,-107 661,-107"/>
<text text-anchor="middle" x="680" y="-121.3" font-family="georgia" font-size="14.00">elegant</text>
</g>
<!-- odd_harm -->
<g id="node23" class="node"><title>odd_harm</title>
<path fill="lightblue" stroke="lightblue" d="M631,-52C631,-52 729,-52 729,-52 735,-52 741,-58 741,-64 741,-64 741,-76 741,-76 741,-82 735,-88 729,-88 729,-88 631,-88 631,-88 625,-88 619,-82 619,-76 619,-76 619,-64 619,-64 619,-58 625,-52 631,-52"/>
<text text-anchor="middle" x="680" y="-66.3" font-family="georgia" font-size="14.00">odd&#45;harmonious</text>
</g>
<!-- alpha_2&#45;&gt;sigma -->
<g id="edge30" class="edge"><title>alpha_2&#45;&gt;sigma</title>
<path fill="none" stroke="black" d="M707.079,-352C727.056,-352 754.851,-352 776.955,-352"/>
<polygon fill="black" stroke="black" points="776.975,-355.5 786.975,-352 776.975,-348.5 776.975,-355.5"/>
</g>
</g>
</svg>
