<?xml version="1.0" encoding="UTF-8" standalone="no"?>
<!DOCTYPE svg PUBLIC "-//W3C//DTD SVG 1.1//EN"
 "http://www.w3.org/Graphics/SVG/1.1/DTD/svg11.dtd">
<!-- Generated by graphviz version 2.36.0 (20140111.2315)
 -->
<!-- Title: labelings Pages: 1 -->
<svg width="1280pt" height="607pt"
 viewBox="0.00 0.00 1280.00 607.00" xmlns="http://www.w3.org/2000/svg" xmlns:xlink="http://www.w3.org/1999/xlink">
<g id="graph0" class="graph" transform="scale(1 1) rotate(0) translate(4 603)">
<title>labelings</title>
<polygon fill="white" stroke="none" points="-4,4 -4,-603 1276,-603 1276,4 -4,4"/>
<g id="clust5" class="cluster"><title>cluster_alpha</title>
<polygon fill="none" stroke="black" points="8,-133 8,-242 152,-242 152,-133 8,-133"/>
</g>
<g id="clust6" class="cluster"><title>cluster_beta</title>
<polygon fill="none" stroke="black" points="571,-260 571,-369 719,-369 719,-260 571,-260"/>
</g>
<g id="clust7" class="cluster"><title>cluster_rho</title>
<polygon fill="none" stroke="black" points="1062,-127 1062,-264 1264,-264 1264,-127 1062,-127"/>
</g>
<!-- cordial -->
<g id="node1" class="node"><title>cordial</title>
<path fill="khaki" stroke="black" d="M797.5,-408C797.5,-408 834.5,-408 834.5,-408 840.5,-408 846.5,-414 846.5,-420 846.5,-420 846.5,-432 846.5,-432 846.5,-438 840.5,-444 834.5,-444 834.5,-444 797.5,-444 797.5,-444 791.5,-444 785.5,-438 785.5,-432 785.5,-432 785.5,-420 785.5,-420 785.5,-414 791.5,-408 797.5,-408"/>
<text text-anchor="middle" x="816" y="-422.3" font-family="georgia" font-size="14.00">cordial</text>
</g>
<!-- inf_beta -->
<g id="node2" class="node"><title>inf_beta</title>
<path fill="khaki" stroke="black" stroke-dasharray="5,2" d="M591.5,-324C591.5,-324 698.5,-324 698.5,-324 704.5,-324 710.5,-330 710.5,-336 710.5,-336 710.5,-348 710.5,-348 710.5,-354 704.5,-360 698.5,-360 698.5,-360 591.5,-360 591.5,-360 585.5,-360 579.5,-354 579.5,-348 579.5,-348 579.5,-336 579.5,-336 579.5,-330 585.5,-324 591.5,-324"/>
<text text-anchor="middle" x="645" y="-338.3" font-family="georgia" font-size="14.00">β for infinite trees</text>
</g>
<!-- beta -->
<g id="node3" class="node"><title>beta</title>
<path fill="#9ac0cd" stroke="black" stroke-width="0" d="M610,-269C610,-269 680,-269 680,-269 686,-269 692,-275 692,-281 692,-281 692,-293 692,-293 692,-299 686,-305 680,-305 680,-305 610,-305 610,-305 604,-305 598,-299 598,-293 598,-293 598,-281 598,-281 598,-275 604,-269 610,-269"/>
<text text-anchor="start" x="606" y="-284.3" font-family="georgia" font-weight="bold" font-size="14.00">β, graceful</text>
</g>
<!-- beta&#45;&gt;cordial -->
<g id="edge32" class="edge"><title>beta&#45;&gt;cordial</title>
<path fill="none" stroke="black" d="M692.185,-295.591C704.262,-299.598 716.534,-305.454 726,-314 754.64,-339.856 736.536,-364.01 762,-393 766.272,-397.863 771.435,-402.253 776.841,-406.126"/>
<polygon fill="black" stroke="black" points="775.163,-409.212 785.442,-411.781 779.009,-403.363 775.163,-409.212"/>
</g>
<!-- sigma -->
<g id="node20" class="node"><title>sigma</title>
<path fill="lightblue" stroke="black" stroke-width="0" d="M955,-154C955,-154 985,-154 985,-154 991,-154 997,-160 997,-166 997,-166 997,-178 997,-178 997,-184 991,-190 985,-190 985,-190 955,-190 955,-190 949,-190 943,-184 943,-178 943,-178 943,-166 943,-166 943,-160 949,-154 955,-154"/>
<text text-anchor="middle" x="970" y="-168.3" font-family="georgia" font-size="14.00">σ</text>
</g>
<!-- beta&#45;&gt;sigma -->
<g id="edge16" class="edge"><title>beta&#45;&gt;sigma</title>
<path fill="none" stroke="black" d="M692.152,-297.624C703.832,-301.604 715.913,-306.938 726,-314 746.982,-328.689 738.915,-347.905 762,-359 805.263,-379.793 828.878,-383.759 870,-359 927.856,-324.166 953.671,-242.924 963.627,-199.893"/>
<polygon fill="black" stroke="black" points="967.057,-200.593 965.776,-190.076 960.219,-199.096 967.057,-200.593"/>
</g>
<!-- super_beta -->
<g id="node26" class="node"><title>super_beta</title>
<path fill="lightblue" stroke="black" stroke-width="0" d="M774.5,-314C774.5,-314 857.5,-314 857.5,-314 863.5,-314 869.5,-320 869.5,-326 869.5,-326 869.5,-338 869.5,-338 869.5,-344 863.5,-350 857.5,-350 857.5,-350 774.5,-350 774.5,-350 768.5,-350 762.5,-344 762.5,-338 762.5,-338 762.5,-326 762.5,-326 762.5,-320 768.5,-314 774.5,-314"/>
<text text-anchor="middle" x="816" y="-328.3" font-family="georgia" font-size="14.00">super graceful</text>
</g>
<!-- beta&#45;&gt;super_beta -->
<g id="edge31" class="edge"><title>beta&#45;&gt;super_beta</title>
<path fill="none" stroke="black" d="M692.18,-299.296C710.74,-304.239 732.43,-310.014 752.374,-315.324"/>
<polygon fill="black" stroke="black" points="751.745,-318.779 762.309,-317.97 753.547,-312.015 751.745,-318.779"/>
</g>
<!-- k_graceful -->
<g id="node27" class="node"><title>k_graceful</title>
<path fill="lightblue" stroke="black" stroke-width="0" d="M788,-259C788,-259 844,-259 844,-259 850,-259 856,-265 856,-271 856,-271 856,-283 856,-283 856,-289 850,-295 844,-295 844,-295 788,-295 788,-295 782,-295 776,-289 776,-283 776,-283 776,-271 776,-271 776,-265 782,-259 788,-259"/>
<text text-anchor="middle" x="816" y="-273.3" font-family="georgia" font-size="14.00">k&#45;graceful</text>
</g>
<!-- beta&#45;&gt;k_graceful -->
<g id="edge33" class="edge"><title>beta&#45;&gt;k_graceful</title>
<path fill="none" stroke="black" d="M692.18,-284.267C714.995,-282.917 742.539,-281.288 765.756,-279.914"/>
<polygon fill="black" stroke="black" points="765.974,-283.407 775.75,-279.322 765.561,-276.419 765.974,-283.407"/>
</g>
<!-- seq -->
<g id="node4" class="node"><title>seq</title>
<path fill="#9ac0cd" stroke="black" stroke-width="0" d="M312.5,-460.5C312.5,-460.5 515.5,-460.5 515.5,-460.5 521.5,-460.5 527.5,-466.5 527.5,-472.5 527.5,-472.5 527.5,-511.5 527.5,-511.5 527.5,-517.5 521.5,-523.5 515.5,-523.5 515.5,-523.5 312.5,-523.5 312.5,-523.5 306.5,-523.5 300.5,-517.5 300.5,-511.5 300.5,-511.5 300.5,-472.5 300.5,-472.5 300.5,-466.5 306.5,-460.5 312.5,-460.5"/>
<text text-anchor="start" x="375" y="-505.3" font-family="georgia" font-weight="bold" font-size="14.00">sequential</text>
<text text-anchor="start" x="312.5" y="-491.3" font-family="georgia" font-weight="bold" font-size="14.00">(a, 1)&#45;edge&#45;antimagic vertex</text>
<text text-anchor="start" x="330" y="-471.8" font-family="georgia" font-weight="bold" font-size="14.00">super edge&#45;magic total</text>
<polygon fill="black" stroke="black" points="310,-485 310,-485 520,-485 520,-485 310,-485"/>
</g>
<!-- emt -->
<g id="node15" class="node"><title>emt</title>
<path fill="lightblue" stroke="black" stroke-width="0" d="M595.5,-508C595.5,-508 694.5,-508 694.5,-508 700.5,-508 706.5,-514 706.5,-520 706.5,-520 706.5,-532 706.5,-532 706.5,-538 700.5,-544 694.5,-544 694.5,-544 595.5,-544 595.5,-544 589.5,-544 583.5,-538 583.5,-532 583.5,-532 583.5,-520 583.5,-520 583.5,-514 589.5,-508 595.5,-508"/>
<text text-anchor="middle" x="645" y="-522.3" font-family="georgia" font-size="14.00">edge&#45;magic total</text>
</g>
<!-- seq&#45;&gt;emt -->
<g id="edge5" class="edge"><title>seq&#45;&gt;emt</title>
<path fill="none" stroke="black" d="M527.823,-508.751C543.267,-511.044 558.752,-513.343 573.153,-515.481"/>
<polygon fill="black" stroke="black" points="573.026,-519.001 583.432,-517.007 574.054,-512.077 573.026,-519.001"/>
</g>
<!-- k_seq_add -->
<g id="node31" class="node"><title>k_seq_add</title>
<path fill="lightblue" stroke="black" stroke-width="0" d="M576.5,-563C576.5,-563 713.5,-563 713.5,-563 719.5,-563 725.5,-569 725.5,-575 725.5,-575 725.5,-587 725.5,-587 725.5,-593 719.5,-599 713.5,-599 713.5,-599 576.5,-599 576.5,-599 570.5,-599 564.5,-593 564.5,-587 564.5,-587 564.5,-575 564.5,-575 564.5,-569 570.5,-563 576.5,-563"/>
<text text-anchor="middle" x="645" y="-577.3" font-family="georgia" font-size="14.00">k&#45;sequentially additive</text>
</g>
<!-- seq&#45;&gt;k_seq_add -->
<g id="edge7" class="edge"><title>seq&#45;&gt;k_seq_add</title>
<path fill="none" stroke="black" d="M490.117,-523.64C513.668,-533.32 539.826,-543.828 564,-553 569.553,-555.107 575.343,-557.245 581.158,-559.353"/>
<polygon fill="black" stroke="black" points="580.335,-562.776 590.93,-562.86 582.7,-556.188 580.335,-562.776"/>
</g>
<!-- felicitous -->
<g id="node34" class="node"><title>felicitous</title>
<path fill="lightblue" stroke="black" stroke-width="0" d="M620,-453C620,-453 670,-453 670,-453 676,-453 682,-459 682,-465 682,-465 682,-477 682,-477 682,-483 676,-489 670,-489 670,-489 620,-489 620,-489 614,-489 608,-483 608,-477 608,-477 608,-465 608,-465 608,-459 614,-453 620,-453"/>
<text text-anchor="middle" x="645" y="-467.3" font-family="georgia" font-size="14.00">felicitous</text>
</g>
<!-- seq&#45;&gt;felicitous -->
<g id="edge6" class="edge"><title>seq&#45;&gt;felicitous</title>
<path fill="none" stroke="black" d="M527.823,-481.654C552.531,-479.388 577.343,-477.113 597.655,-475.25"/>
<polygon fill="black" stroke="black" points="598.205,-478.714 607.843,-474.316 597.565,-471.744 598.205,-478.714"/>
</g>
<!-- rho -->
<g id="node5" class="node"><title>rho</title>
<path fill="#9ac0cd" stroke="black" stroke-width="0" d="M1088.5,-136C1088.5,-136 1237.5,-136 1237.5,-136 1243.5,-136 1249.5,-142 1249.5,-148 1249.5,-148 1249.5,-174 1249.5,-174 1249.5,-180 1243.5,-186 1237.5,-186 1237.5,-186 1088.5,-186 1088.5,-186 1082.5,-186 1076.5,-180 1076.5,-174 1076.5,-174 1076.5,-148 1076.5,-148 1076.5,-142 1082.5,-136 1088.5,-136"/>
<text text-anchor="start" x="1158.5" y="-168.3" font-family="georgia" font-weight="bold" font-size="14.00">ρ</text>
<text text-anchor="start" x="1088.5" y="-147.8" font-family="georgia" font-weight="bold" font-size="14.00">Ringel&#45;Kotzig for K</text>
<text text-anchor="start" x="1228.5" y="-147.8" font-family="georgia" font-weight="bold" baseline-shift="sub" font-size="10.00">n</text>
<polygon fill="black" stroke="black" points="1086,-161 1086,-161 1242,-161 1242,-161 1086,-161"/>
</g>
<!-- rho_bi -->
<g id="node6" class="node"><title>rho_bi</title>
<path fill="#9ac0cd" stroke="black" stroke-width="0" d="M1082.5,-205C1082.5,-205 1243.5,-205 1243.5,-205 1249.5,-205 1255.5,-211 1255.5,-217 1255.5,-217 1255.5,-243 1255.5,-243 1255.5,-249 1249.5,-255 1243.5,-255 1243.5,-255 1082.5,-255 1082.5,-255 1076.5,-255 1070.5,-249 1070.5,-243 1070.5,-243 1070.5,-217 1070.5,-217 1070.5,-211 1076.5,-205 1082.5,-205"/>
<text text-anchor="start" x="1119.5" y="-237.3" font-family="georgia" font-weight="bold" font-size="14.00">ρ bigraceful</text>
<text text-anchor="start" x="1082.5" y="-216.8" font-family="georgia" font-weight="bold" font-size="14.00">Ringel&#45;Kotzig for K</text>
<text text-anchor="start" x="1221.5" y="-216.8" font-family="georgia" font-weight="bold" baseline-shift="sub" font-size="10.00">n, n</text>
<polygon fill="black" stroke="black" points="1080,-230 1080,-230 1248,-230 1248,-230 1080,-230"/>
</g>
<!-- alpha -->
<g id="node7" class="node"><title>alpha</title>
<path fill="#cd5b45" stroke="#cd5b45" stroke-width="0" d="M65,-197C65,-197 95,-197 95,-197 101,-197 107,-203 107,-209 107,-209 107,-221 107,-221 107,-227 101,-233 95,-233 95,-233 65,-233 65,-233 59,-233 53,-227 53,-221 53,-221 53,-209 53,-209 53,-203 59,-197 65,-197"/>
<text text-anchor="start" x="75" y="-212.3" font-family="georgia" font-weight="bold" font-size="14.00">α</text>
</g>
<!-- beta_plus_seq -->
<g id="node13" class="node"><title>beta_plus_seq</title>
<path fill="lightblue" stroke="black" stroke-width="0" d="M206.5,-197C206.5,-197 237.5,-197 237.5,-197 243.5,-197 249.5,-203 249.5,-209 249.5,-209 249.5,-221 249.5,-221 249.5,-227 243.5,-233 237.5,-233 237.5,-233 206.5,-233 206.5,-233 200.5,-233 194.5,-227 194.5,-221 194.5,-221 194.5,-209 194.5,-209 194.5,-203 200.5,-197 206.5,-197"/>
<text text-anchor="start" x="202.5" y="-212.3" font-family="georgia" font-size="14.00">β</text>
<text text-anchor="start" x="211.5" y="-212.3" font-family="georgia" baseline-shift="super" font-size="10.00">+ </text>
<text text-anchor="start" x="219.5" y="-212.3" font-family="georgia" font-size="14.00">seq</text>
</g>
<!-- alpha&#45;&gt;beta_plus_seq -->
<g id="edge1" class="edge"><title>alpha&#45;&gt;beta_plus_seq</title>
<path fill="none" stroke="black" stroke-dasharray="5,2" d="M107.005,-215C128.634,-215 159.687,-215 183.923,-215"/>
<polygon fill="black" stroke="black" points="184.181,-218.5 194.181,-215 184.181,-211.5 184.181,-218.5"/>
</g>
<!-- seq_plus -->
<g id="node8" class="node"><title>seq_plus</title>
<path fill="coral" stroke="coral" stroke-width="0" d="M207,-436C207,-436 237,-436 237,-436 243,-436 249,-442 249,-448 249,-448 249,-460 249,-460 249,-466 243,-472 237,-472 237,-472 207,-472 207,-472 201,-472 195,-466 195,-460 195,-460 195,-448 195,-448 195,-442 201,-436 207,-436"/>
<text text-anchor="start" x="208" y="-451.3" font-family="georgia" font-size="14.00">seq</text>
<text text-anchor="start" x="230" y="-451.3" font-family="georgia" baseline-shift="super" font-size="10.00">+</text>
</g>
<!-- seq_plus&#45;&gt;seq -->
<g id="edge2" class="edge"><title>seq_plus&#45;&gt;seq</title>
<path fill="none" stroke="black" stroke-dasharray="5,2" d="M249.02,-459.204C260.442,-461.488 274.75,-464.35 290.127,-467.425"/>
<polygon fill="black" stroke="black" points="289.875,-470.944 300.367,-469.473 291.248,-464.08 289.875,-470.944"/>
</g>
<!-- alpha_deg3 -->
<g id="node9" class="node"><title>alpha_deg3</title>
<path fill="lightblue" stroke="black" stroke-dasharray="5,2" d="M28,-142C28,-142 132,-142 132,-142 138,-142 144,-148 144,-154 144,-154 144,-166 144,-166 144,-172 138,-178 132,-178 132,-178 28,-178 28,-178 22,-178 16,-172 16,-166 16,-166 16,-154 16,-154 16,-148 22,-142 28,-142"/>
<text text-anchor="middle" x="80" y="-156.3" font-family="georgia" font-size="14.00">α for max deg = 3</text>
</g>
<!-- beta_rot -->
<g id="node10" class="node"><title>beta_rot</title>
<path fill="lightblue" stroke="black" stroke-dasharray="5,2" d="M342,-269C342,-269 486,-269 486,-269 492,-269 498,-275 498,-281 498,-281 498,-293 498,-293 498,-299 492,-305 486,-305 486,-305 342,-305 342,-305 336,-305 330,-299 330,-293 330,-293 330,-281 330,-281 330,-275 336,-269 342,-269"/>
<text text-anchor="middle" x="414" y="-283.3" font-family="georgia" font-size="14.00">max&#45;edge β&#45;rotatability</text>
</g>
<!-- beta_rot&#45;&gt;beta -->
<g id="edge11" class="edge"><title>beta_rot&#45;&gt;beta</title>
<path fill="none" stroke="black" d="M498.322,-287C528.032,-287 560.774,-287 587.679,-287"/>
<polygon fill="black" stroke="black" points="587.686,-290.5 597.686,-287 587.686,-283.5 587.686,-290.5"/>
</g>
<!-- any_beta_p -->
<g id="node11" class="node"><title>any_beta_p</title>
<path fill="lightblue" stroke="black" stroke-dasharray="5,2" d="M204.5,-127C204.5,-127 239.5,-127 239.5,-127 245.5,-127 251.5,-133 251.5,-139 251.5,-139 251.5,-151 251.5,-151 251.5,-157 245.5,-163 239.5,-163 239.5,-163 204.5,-163 204.5,-163 198.5,-163 192.5,-157 192.5,-151 192.5,-151 192.5,-139 192.5,-139 192.5,-133 198.5,-127 204.5,-127"/>
<text text-anchor="start" x="200.5" y="-142.3" font-family="georgia" font-size="14.00">any&#45;β</text>
<text text-anchor="start" x="237.5" y="-142.3" font-family="georgia" baseline-shift="super" font-size="10.00">+</text>
</g>
<!-- beta_plus -->
<g id="node14" class="node"><title>beta_plus</title>
<path fill="lightblue" stroke="black" stroke-width="0" d="M399,-184C399,-184 429,-184 429,-184 435,-184 441,-190 441,-196 441,-196 441,-208 441,-208 441,-214 435,-220 429,-220 429,-220 399,-220 399,-220 393,-220 387,-214 387,-208 387,-208 387,-196 387,-196 387,-190 393,-184 399,-184"/>
<text text-anchor="start" x="406.5" y="-199.3" font-family="georgia" font-size="14.00">β</text>
<text text-anchor="start" x="415.5" y="-199.3" font-family="georgia" baseline-shift="super" font-size="10.00">+</text>
</g>
<!-- any_beta_p&#45;&gt;beta_plus -->
<g id="edge22" class="edge"><title>any_beta_p&#45;&gt;beta_plus</title>
<path fill="none" stroke="black" d="M251.857,-153.657C285.448,-163.734 340.943,-180.383 377.239,-191.272"/>
<polygon fill="black" stroke="black" points="376.349,-194.659 386.933,-194.18 378.361,-187.954 376.349,-194.659"/>
</g>
<!-- any_beta -->
<g id="node22" class="node"><title>any_beta</title>
<path fill="lightblue" stroke="black" stroke-width="0" d="M399,-98C399,-98 429,-98 429,-98 435,-98 441,-104 441,-110 441,-110 441,-122 441,-122 441,-128 435,-134 429,-134 429,-134 399,-134 399,-134 393,-134 387,-128 387,-122 387,-122 387,-110 387,-110 387,-104 393,-98 399,-98"/>
<text text-anchor="start" x="395.5" y="-112.3" font-family="georgia" font-size="14.00">any&#45;β</text>
</g>
<!-- any_beta_p&#45;&gt;any_beta -->
<g id="edge23" class="edge"><title>any_beta_p&#45;&gt;any_beta</title>
<path fill="none" stroke="black" d="M251.857,-140.596C285.305,-135.49 340.469,-127.071 376.773,-121.529"/>
<polygon fill="black" stroke="black" points="377.576,-124.947 386.933,-119.979 376.519,-118.028 377.576,-124.947"/>
</g>
<!-- elegant -->
<g id="node12" class="node"><title>elegant</title>
<path fill="lightblue" stroke="black" stroke-dasharray="5,2" d="M626,-398C626,-398 664,-398 664,-398 670,-398 676,-404 676,-410 676,-410 676,-422 676,-422 676,-428 670,-434 664,-434 664,-434 626,-434 626,-434 620,-434 614,-428 614,-422 614,-422 614,-410 614,-410 614,-404 620,-398 626,-398"/>
<text text-anchor="middle" x="645" y="-412.3" font-family="georgia" font-size="14.00">elegant</text>
</g>
<!-- elegant&#45;&gt;cordial -->
<g id="edge36" class="edge"><title>elegant&#45;&gt;cordial</title>
<path fill="none" stroke="black" d="M676.214,-417.788C703.816,-419.421 744.819,-421.847 775.105,-423.639"/>
<polygon fill="black" stroke="black" points="775.142,-427.148 785.331,-424.244 775.555,-420.16 775.142,-427.148"/>
</g>
<!-- beta_plus_seq&#45;&gt;seq -->
<g id="edge3" class="edge"><title>beta_plus_seq&#45;&gt;seq</title>
<path fill="none" stroke="black" d="M235.466,-233.175C265.683,-277.227 343.419,-390.558 385.296,-451.611"/>
<polygon fill="black" stroke="black" points="382.662,-453.958 391.205,-460.225 388.434,-449.998 382.662,-453.958"/>
</g>
<!-- beta_plus_seq&#45;&gt;beta_plus -->
<g id="edge4" class="edge"><title>beta_plus_seq&#45;&gt;beta_plus</title>
<path fill="none" stroke="black" d="M249.819,-213.165C282.964,-210.897 339.51,-207.028 376.565,-204.493"/>
<polygon fill="black" stroke="black" points="377.189,-207.958 386.927,-203.784 376.711,-200.975 377.189,-207.958"/>
</g>
<!-- beta_plus&#45;&gt;beta -->
<g id="edge9" class="edge"><title>beta_plus&#45;&gt;beta</title>
<path fill="none" stroke="black" d="M441.269,-211.751C476.99,-225.009 541.78,-249.058 588.517,-266.406"/>
<polygon fill="black" stroke="black" points="587.311,-269.691 597.904,-269.89 589.747,-263.129 587.311,-269.691"/>
</g>
<!-- rho_sigma -->
<g id="node17" class="node"><title>rho_sigma</title>
<path fill="lightblue" stroke="black" stroke-width="0" d="M628,-177C628,-177 662,-177 662,-177 668,-177 674,-183 674,-189 674,-189 674,-215 674,-215 674,-221 668,-227 662,-227 662,-227 628,-227 628,-227 622,-227 616,-221 616,-215 616,-215 616,-189 616,-189 616,-183 622,-177 628,-177"/>
<text text-anchor="start" x="627.5" y="-209.3" font-family="georgia" font-size="14.00">ρ</text>
<text text-anchor="start" x="636.5" y="-209.3" font-family="georgia" baseline-shift="super" font-size="10.00">++ </text>
<text text-anchor="start" x="649.5" y="-209.3" font-family="georgia" font-size="14.00">bi</text>
<text text-anchor="start" x="635" y="-188.8" font-family="georgia" font-size="14.00">σ</text>
<text text-anchor="start" x="644" y="-188.8" font-family="georgia" baseline-shift="super" font-size="10.00">++</text>
<polygon fill="black" stroke="black" points="625,-202 625,-202 666,-202 666,-202 625,-202"/>
</g>
<!-- beta_plus&#45;&gt;rho_sigma -->
<g id="edge8" class="edge"><title>beta_plus&#45;&gt;rho_sigma</title>
<path fill="none" stroke="black" d="M441.269,-202C481.681,-202 559.3,-202 605.89,-202"/>
<polygon fill="black" stroke="black" points="605.899,-205.5 615.899,-202 605.899,-198.5 605.899,-205.5"/>
</g>
<!-- odd_beta_plus -->
<g id="node24" class="node"><title>odd_beta_plus</title>
<path fill="lightblue" stroke="black" stroke-width="0" d="M798.5,-0C798.5,-0 833.5,-0 833.5,-0 839.5,-0 845.5,-6 845.5,-12 845.5,-12 845.5,-24 845.5,-24 845.5,-30 839.5,-36 833.5,-36 833.5,-36 798.5,-36 798.5,-36 792.5,-36 786.5,-30 786.5,-24 786.5,-24 786.5,-12 786.5,-12 786.5,-6 792.5,-0 798.5,-0"/>
<text text-anchor="start" x="794.5" y="-15.3" font-family="georgia" font-size="14.00">odd β</text>
<text text-anchor="start" x="831.5" y="-15.3" font-family="georgia" baseline-shift="super" font-size="10.00">+</text>
</g>
<!-- beta_plus&#45;&gt;odd_beta_plus -->
<g id="edge10" class="edge"><title>beta_plus&#45;&gt;odd_beta_plus</title>
<path fill="none" stroke="black" d="M441.114,-195.867C515.726,-178.333 724.603,-129.171 726,-128 756.817,-102.171 734.461,-74.2988 762,-45 766.409,-40.3089 771.814,-36.3014 777.468,-32.9227"/>
<polygon fill="black" stroke="black" points="779.281,-35.9227 786.451,-28.1231 775.982,-29.7487 779.281,-35.9227"/>
</g>
<!-- harm -->
<g id="node16" class="node"><title>harm</title>
<path fill="lightblue" stroke="black" stroke-width="0" d="M781.5,-463C781.5,-463 850.5,-463 850.5,-463 856.5,-463 862.5,-469 862.5,-475 862.5,-475 862.5,-487 862.5,-487 862.5,-493 856.5,-499 850.5,-499 850.5,-499 781.5,-499 781.5,-499 775.5,-499 769.5,-493 769.5,-487 769.5,-487 769.5,-475 769.5,-475 769.5,-469 775.5,-463 781.5,-463"/>
<text text-anchor="middle" x="816" y="-477.3" font-family="georgia" font-size="14.00">harmonious</text>
</g>
<!-- harm&#45;&gt;rho_bi -->
<g id="edge37" class="edge"><title>harm&#45;&gt;rho_bi</title>
<path fill="none" stroke="black" d="M853.098,-462.966C858.844,-459.801 864.653,-456.421 870,-453 966.085,-391.532 1070.41,-307.129 1124.58,-261.824"/>
<polygon fill="black" stroke="black" points="1127.11,-264.273 1132.52,-255.165 1122.61,-258.911 1127.11,-264.273"/>
</g>
<!-- rho_sigma&#45;&gt;rho_bi -->
<g id="edge12" class="edge"><title>rho_sigma&#45;&gt;rho_bi</title>
<path fill="none" stroke="black" d="M674.119,-204.089C697.605,-205.797 731.975,-208.214 762,-210 863.34,-216.027 979.197,-221.685 1060.05,-225.434"/>
<polygon fill="black" stroke="black" points="1060.07,-228.939 1070.23,-225.905 1060.4,-221.947 1060.07,-228.939"/>
</g>
<!-- rho_pp -->
<g id="node18" class="node"><title>rho_pp</title>
<path fill="lightblue" stroke="black" stroke-width="0" d="M801,-55C801,-55 831,-55 831,-55 837,-55 843,-61 843,-67 843,-67 843,-79 843,-79 843,-85 837,-91 831,-91 831,-91 801,-91 801,-91 795,-91 789,-85 789,-79 789,-79 789,-67 789,-67 789,-61 795,-55 801,-55"/>
<text text-anchor="start" x="806" y="-70.3" font-family="georgia" font-size="14.00">ρ</text>
<text text-anchor="start" x="815" y="-70.3" font-family="georgia" baseline-shift="super" font-size="10.00">++</text>
</g>
<!-- rho_sigma&#45;&gt;rho_pp -->
<g id="edge13" class="edge"><title>rho_sigma&#45;&gt;rho_pp</title>
<path fill="none" stroke="black" d="M674.37,-192.514C690.887,-185.921 711.287,-175.822 726,-162 749.223,-140.183 738.859,-121.904 762,-100 767.14,-95.1351 773.326,-90.9399 779.629,-87.4046"/>
<polygon fill="black" stroke="black" points="781.53,-90.3638 788.842,-82.6959 778.344,-84.1308 781.53,-90.3638"/>
</g>
<!-- sigma_p -->
<g id="node19" class="node"><title>sigma_p</title>
<path fill="lightblue" stroke="black" stroke-width="0" d="M801,-110C801,-110 831,-110 831,-110 837,-110 843,-116 843,-122 843,-122 843,-134 843,-134 843,-140 837,-146 831,-146 831,-146 801,-146 801,-146 795,-146 789,-140 789,-134 789,-134 789,-122 789,-122 789,-116 795,-110 801,-110"/>
<text text-anchor="start" x="808.5" y="-125.3" font-family="georgia" font-size="14.00">σ</text>
<text text-anchor="start" x="817.5" y="-125.3" font-family="georgia" baseline-shift="super" font-size="10.00">+</text>
</g>
<!-- rho_sigma&#45;&gt;sigma_p -->
<g id="edge14" class="edge"><title>rho_sigma&#45;&gt;sigma_p</title>
<path fill="none" stroke="black" d="M674.287,-189.614C703.24,-176.936 748.307,-157.203 779.607,-143.498"/>
<polygon fill="black" stroke="black" points="781.089,-146.669 788.846,-139.452 778.281,-140.257 781.089,-146.669"/>
</g>
<!-- alpha_2 -->
<g id="node32" class="node"><title>alpha_2</title>
<path fill="lightblue" stroke="black" stroke-width="0" d="M801,-165C801,-165 831,-165 831,-165 837,-165 843,-171 843,-177 843,-177 843,-189 843,-189 843,-195 837,-201 831,-201 831,-201 801,-201 801,-201 795,-201 789,-195 789,-189 789,-189 789,-177 789,-177 789,-171 795,-165 801,-165"/>
<text text-anchor="start" x="808" y="-180.3" font-family="georgia" font-size="14.00">α</text>
<text text-anchor="start" x="817" y="-180.3" font-family="georgia" baseline-shift="sub" font-size="10.00">2</text>
</g>
<!-- rho_sigma&#45;&gt;alpha_2 -->
<g id="edge15" class="edge"><title>rho_sigma&#45;&gt;alpha_2</title>
<path fill="none" stroke="black" d="M674.287,-198.82C702.99,-195.593 747.531,-190.585 778.794,-187.07"/>
<polygon fill="black" stroke="black" points="779.299,-190.536 788.846,-185.94 778.517,-183.58 779.299,-190.536"/>
</g>
<!-- rho_p -->
<g id="node21" class="node"><title>rho_p</title>
<path fill="lightblue" stroke="black" stroke-width="0" d="M955,-86C955,-86 985,-86 985,-86 991,-86 997,-92 997,-98 997,-98 997,-110 997,-110 997,-116 991,-122 985,-122 985,-122 955,-122 955,-122 949,-122 943,-116 943,-110 943,-110 943,-98 943,-98 943,-92 949,-86 955,-86"/>
<text text-anchor="start" x="962.5" y="-101.3" font-family="georgia" font-size="14.00">ρ</text>
<text text-anchor="start" x="971.5" y="-101.3" font-family="georgia" baseline-shift="super" font-size="10.00">+</text>
</g>
<!-- rho_pp&#45;&gt;rho_p -->
<g id="edge17" class="edge"><title>rho_pp&#45;&gt;rho_p</title>
<path fill="none" stroke="black" d="M843.13,-78.3291C867.892,-83.3793 905.301,-91.0087 932.905,-96.6384"/>
<polygon fill="black" stroke="black" points="932.46,-100.12 942.957,-98.6887 933.858,-93.2608 932.46,-100.12"/>
</g>
<!-- sigma_p&#45;&gt;sigma -->
<g id="edge18" class="edge"><title>sigma_p&#45;&gt;sigma</title>
<path fill="none" stroke="black" d="M843.13,-135.564C868.001,-142.763 905.63,-153.656 933.269,-161.657"/>
<polygon fill="black" stroke="black" points="932.378,-165.043 942.957,-164.461 934.325,-158.319 932.378,-165.043"/>
</g>
<!-- sigma_p&#45;&gt;rho_p -->
<g id="edge19" class="edge"><title>sigma_p&#45;&gt;rho_p</title>
<path fill="none" stroke="black" d="M843.13,-123.874C867.892,-119.964 905.301,-114.058 932.905,-109.699"/>
<polygon fill="black" stroke="black" points="933.626,-113.129 942.957,-108.112 932.534,-106.215 933.626,-113.129"/>
</g>
<!-- sigma&#45;&gt;rho -->
<g id="edge20" class="edge"><title>sigma&#45;&gt;rho</title>
<path fill="none" stroke="black" d="M997.157,-170.494C1015.29,-169.449 1040.65,-167.989 1066.05,-166.526"/>
<polygon fill="black" stroke="black" points="1066.37,-170.013 1076.16,-165.944 1065.97,-163.025 1066.37,-170.013"/>
</g>
<!-- rho_p&#45;&gt;rho -->
<g id="edge21" class="edge"><title>rho_p&#45;&gt;rho</title>
<path fill="none" stroke="black" d="M997.157,-111.806C1015.81,-117.373 1042.12,-125.225 1068.26,-133.025"/>
<polygon fill="black" stroke="black" points="1067.28,-136.386 1077.87,-135.892 1069.28,-129.678 1067.28,-136.386"/>
</g>
<!-- any_beta&#45;&gt;beta -->
<g id="edge24" class="edge"><title>any_beta&#45;&gt;beta</title>
<path fill="none" stroke="black" d="M441.363,-124.618C466.081,-133.749 502.893,-150.162 528,-174 551.108,-195.939 541.941,-213.006 564,-236 574.093,-246.521 586.771,-255.863 599.039,-263.585"/>
<polygon fill="black" stroke="black" points="597.489,-266.737 607.857,-268.914 601.109,-260.746 597.489,-266.737"/>
</g>
<!-- triangular -->
<g id="node28" class="node"><title>triangular</title>
<path fill="lightblue" stroke="black" stroke-width="0" d="M601,-83C601,-83 689,-83 689,-83 695,-83 701,-89 701,-95 701,-95 701,-107 701,-107 701,-113 695,-119 689,-119 689,-119 601,-119 601,-119 595,-119 589,-113 589,-107 589,-107 589,-95 589,-95 589,-89 595,-83 601,-83"/>
<text text-anchor="middle" x="645" y="-97.3" font-family="georgia" font-size="14.00">triangular sum</text>
</g>
<!-- any_beta&#45;&gt;triangular -->
<g id="edge25" class="edge"><title>any_beta&#45;&gt;triangular</title>
<path fill="none" stroke="black" d="M441.269,-114.279C474.582,-112.097 533.177,-108.259 578.833,-105.269"/>
<polygon fill="black" stroke="black" points="579.203,-108.752 588.953,-104.606 578.746,-101.767 579.203,-108.752"/>
</g>
<!-- fibonacci -->
<g id="node29" class="node"><title>fibonacci</title>
<path fill="lightblue" stroke="black" stroke-width="0" d="M590,-28C590,-28 700,-28 700,-28 706,-28 712,-34 712,-40 712,-40 712,-52 712,-52 712,-58 706,-64 700,-64 700,-64 590,-64 590,-64 584,-64 578,-58 578,-52 578,-52 578,-40 578,-40 578,-34 584,-28 590,-28"/>
<text text-anchor="middle" x="645" y="-42.3" font-family="georgia" font-size="14.00">Fibonacci graceful</text>
</g>
<!-- any_beta&#45;&gt;fibonacci -->
<g id="edge26" class="edge"><title>any_beta&#45;&gt;fibonacci</title>
<path fill="none" stroke="black" d="M441.269,-107.97C473.667,-98.0669 529.977,-80.8543 575.042,-67.0789"/>
<polygon fill="black" stroke="black" points="576.226,-70.3768 584.766,-64.1064 574.18,-63.6826 576.226,-70.3768"/>
</g>
<!-- any_seq -->
<g id="node23" class="node"><title>any_seq</title>
<path fill="lightblue" stroke="black" stroke-width="0" d="M201.5,-491C201.5,-491 242.5,-491 242.5,-491 248.5,-491 254.5,-497 254.5,-503 254.5,-503 254.5,-515 254.5,-515 254.5,-521 248.5,-527 242.5,-527 242.5,-527 201.5,-527 201.5,-527 195.5,-527 189.5,-521 189.5,-515 189.5,-515 189.5,-503 189.5,-503 189.5,-497 195.5,-491 201.5,-491"/>
<text text-anchor="middle" x="222" y="-505.3" font-family="georgia" font-size="14.00">any&#45;seq</text>
</g>
<!-- any_seq&#45;&gt;seq -->
<g id="edge27" class="edge"><title>any_seq&#45;&gt;seq</title>
<path fill="none" stroke="black" d="M254.802,-506.155C265.156,-505.228 277.344,-504.138 290.283,-502.98"/>
<polygon fill="black" stroke="black" points="290.659,-506.46 300.307,-502.083 290.035,-499.488 290.659,-506.46"/>
</g>
<!-- odd_beta_plus&#45;&gt;rho_p -->
<g id="edge28" class="edge"><title>odd_beta_plus&#45;&gt;rho_p</title>
<path fill="none" stroke="black" d="M845.513,-32.0888C853.494,-36.15 862.134,-40.6589 870,-45 891.625,-56.935 915.415,-71.0792 934.254,-82.5265"/>
<polygon fill="black" stroke="black" points="932.444,-85.5222 942.803,-87.7429 936.09,-79.5466 932.444,-85.5222"/>
</g>
<!-- odd_beta -->
<g id="node25" class="node"><title>odd_beta</title>
<path fill="lightblue" stroke="black" stroke-width="0" d="M918,-5C918,-5 1022,-5 1022,-5 1028,-5 1034,-11 1034,-17 1034,-17 1034,-43 1034,-43 1034,-49 1028,-55 1022,-55 1022,-55 918,-55 918,-55 912,-55 906,-49 906,-43 906,-43 906,-17 906,-17 906,-11 912,-5 918,-5"/>
<text text-anchor="start" x="929.5" y="-36.3" font-family="georgia" font-size="14.00">odd&#45;graceful</text>
<text text-anchor="start" x="917.5" y="-15.8" font-family="georgia" font-size="14.00">odd harmonious</text>
<polygon fill="black" stroke="black" points="915,-30 915,-30 1026,-30 1026,-30 915,-30"/>
</g>
<!-- odd_beta_plus&#45;&gt;odd_beta -->
<g id="edge29" class="edge"><title>odd_beta_plus&#45;&gt;odd_beta</title>
<path fill="none" stroke="black" d="M845.59,-20.2571C859.824,-21.3808 877.752,-22.7962 895.498,-24.1972"/>
<polygon fill="black" stroke="black" points="895.652,-27.7202 905.897,-25.0182 896.203,-20.7419 895.652,-27.7202"/>
</g>
<!-- odd_beta&#45;&gt;rho -->
<g id="edge30" class="edge"><title>odd_beta&#45;&gt;rho</title>
<path fill="none" stroke="black" d="M1007.83,-55.2581C1038.87,-76.5524 1083.43,-107.111 1116.67,-129.907"/>
<polygon fill="black" stroke="black" points="1115.06,-133.05 1125.29,-135.819 1119.02,-127.277 1115.06,-133.05"/>
</g>
<!-- one_seq_add -->
<g id="node30" class="node"><title>one_seq_add</title>
<path fill="lightblue" stroke="black" stroke-width="0" d="M346.5,-563C346.5,-563 481.5,-563 481.5,-563 487.5,-563 493.5,-569 493.5,-575 493.5,-575 493.5,-587 493.5,-587 493.5,-593 487.5,-599 481.5,-599 481.5,-599 346.5,-599 346.5,-599 340.5,-599 334.5,-593 334.5,-587 334.5,-587 334.5,-575 334.5,-575 334.5,-569 340.5,-563 346.5,-563"/>
<text text-anchor="middle" x="414" y="-577.3" font-family="georgia" font-size="14.00">1&#45;sequentially additive</text>
</g>
<!-- one_seq_add&#45;&gt;k_seq_add -->
<g id="edge38" class="edge"><title>one_seq_add&#45;&gt;k_seq_add</title>
<path fill="none" stroke="black" d="M493.809,-581C513.288,-581 534.299,-581 554.256,-581"/>
<polygon fill="black" stroke="black" points="554.269,-584.5 564.269,-581 554.269,-577.5 554.269,-584.5"/>
</g>
<!-- alpha_2&#45;&gt;sigma -->
<g id="edge40" class="edge"><title>alpha_2&#45;&gt;sigma</title>
<path fill="none" stroke="black" d="M843.13,-181.109C867.892,-179.317 905.301,-176.61 932.905,-174.612"/>
<polygon fill="black" stroke="black" points="933.236,-178.097 942.957,-173.885 932.731,-171.116 933.236,-178.097"/>
</g>
<!-- one_seq_add_plus -->
<g id="node33" class="node"><title>one_seq_add_plus</title>
<path fill="lightblue" stroke="black" stroke-width="0" d="M192.5,-563C192.5,-563 251.5,-563 251.5,-563 257.5,-563 263.5,-569 263.5,-575 263.5,-575 263.5,-587 263.5,-587 263.5,-593 257.5,-599 251.5,-599 251.5,-599 192.5,-599 192.5,-599 186.5,-599 180.5,-593 180.5,-587 180.5,-587 180.5,-575 180.5,-575 180.5,-569 186.5,-563 192.5,-563"/>
<text text-anchor="start" x="188.5" y="-578.3" font-family="georgia" font-size="14.00">1&#45;seq add</text>
<text text-anchor="start" x="249.5" y="-578.3" font-family="georgia" baseline-shift="super" font-size="10.00">+</text>
</g>
<!-- one_seq_add_plus&#45;&gt;one_seq_add -->
<g id="edge39" class="edge"><title>one_seq_add_plus&#45;&gt;one_seq_add</title>
<path fill="none" stroke="black" d="M263.76,-581C281.551,-581 303.158,-581 324.343,-581"/>
<polygon fill="black" stroke="black" points="324.36,-584.5 334.36,-581 324.36,-577.5 324.36,-584.5"/>
</g>
<!-- felicitous&#45;&gt;cordial -->
<g id="edge34" class="edge"><title>felicitous&#45;&gt;cordial</title>
<path fill="none" stroke="black" d="M682.255,-461.346C709.637,-454.055 747.184,-444.057 775.36,-436.555"/>
<polygon fill="black" stroke="black" points="776.518,-439.869 785.281,-433.913 774.717,-433.104 776.518,-439.869"/>
</g>
<!-- felicitous&#45;&gt;harm -->
<g id="edge35" class="edge"><title>felicitous&#45;&gt;harm</title>
<path fill="none" stroke="black" d="M682.255,-473.145C704.674,-474.472 733.906,-476.202 759.231,-477.7"/>
<polygon fill="black" stroke="black" points="759.259,-481.208 769.448,-478.305 759.672,-474.22 759.259,-481.208"/>
</g>
</g>
</svg>
