<?xml version="1.0" encoding="UTF-8" standalone="no"?>
<!DOCTYPE svg PUBLIC "-//W3C//DTD SVG 1.1//EN"
 "http://www.w3.org/Graphics/SVG/1.1/DTD/svg11.dtd">
<!-- Generated by graphviz version 2.36.0 (20140111.2315)
 -->
<!-- Title: labelings Pages: 1 -->
<svg width="1182pt" height="593pt"
 viewBox="0.00 0.00 1182.00 593.00" xmlns="http://www.w3.org/2000/svg" xmlns:xlink="http://www.w3.org/1999/xlink">
<g id="graph0" class="graph" transform="scale(1 1) rotate(0) translate(4 589)">
<title>labelings</title>
<polygon fill="white" stroke="none" points="-4,4 -4,-589 1178,-589 1178,4 -4,4"/>
<g id="clust5" class="cluster"><title>cluster_alpha</title>
<polygon fill="none" stroke="black" points="8,-156 8,-265 152,-265 152,-156 8,-156"/>
</g>
<g id="clust6" class="cluster"><title>cluster_beta</title>
<polygon fill="none" stroke="black" points="545,-265 545,-374 693,-374 693,-265 545,-265"/>
</g>
<g id="clust7" class="cluster"><title>cluster_rho</title>
<polygon fill="none" stroke="black" points="960,-127 960,-264 1166,-264 1166,-127 960,-127"/>
</g>
<!-- cordial -->
<g id="node1" class="node"><title>cordial</title>
<path fill="khaki" stroke="black" d="M743.5,-408C743.5,-408 780.5,-408 780.5,-408 786.5,-408 792.5,-414 792.5,-420 792.5,-420 792.5,-432 792.5,-432 792.5,-438 786.5,-444 780.5,-444 780.5,-444 743.5,-444 743.5,-444 737.5,-444 731.5,-438 731.5,-432 731.5,-432 731.5,-420 731.5,-420 731.5,-414 737.5,-408 743.5,-408"/>
<text text-anchor="middle" x="762" y="-422.3" font-family="georgia" font-size="14.00">cordial</text>
</g>
<!-- inf_beta -->
<g id="node2" class="node"><title>inf_beta</title>
<path fill="khaki" stroke="black" stroke-dasharray="5,2" d="M565.5,-329C565.5,-329 672.5,-329 672.5,-329 678.5,-329 684.5,-335 684.5,-341 684.5,-341 684.5,-353 684.5,-353 684.5,-359 678.5,-365 672.5,-365 672.5,-365 565.5,-365 565.5,-365 559.5,-365 553.5,-359 553.5,-353 553.5,-353 553.5,-341 553.5,-341 553.5,-335 559.5,-329 565.5,-329"/>
<text text-anchor="middle" x="619" y="-343.3" font-family="georgia" font-size="14.00">β for infinite trees</text>
</g>
<!-- beta -->
<g id="node3" class="node"><title>beta</title>
<path fill="#9ac0cd" stroke="black" stroke-width="0" d="M584,-274C584,-274 654,-274 654,-274 660,-274 666,-280 666,-286 666,-286 666,-298 666,-298 666,-304 660,-310 654,-310 654,-310 584,-310 584,-310 578,-310 572,-304 572,-298 572,-298 572,-286 572,-286 572,-280 578,-274 584,-274"/>
<text text-anchor="start" x="580" y="-289.3" font-family="georgia" font-weight="bold" font-size="14.00">β, graceful</text>
</g>
<!-- beta&#45;&gt;cordial -->
<g id="edge32" class="edge"><title>beta&#45;&gt;cordial</title>
<path fill="none" stroke="black" d="M666.079,-298.063C678.896,-302.003 691.593,-308.456 700,-319 722.001,-346.593 688.282,-368.731 708,-398 711.663,-403.437 716.733,-407.894 722.295,-411.524"/>
<polygon fill="black" stroke="black" points="720.875,-414.74 731.311,-416.569 724.293,-408.631 720.875,-414.74"/>
</g>
<!-- sigma -->
<g id="node22" class="node"><title>sigma</title>
<path fill="lightblue" stroke="black" stroke-width="0" d="M873,-154C873,-154 903,-154 903,-154 909,-154 915,-160 915,-166 915,-166 915,-178 915,-178 915,-184 909,-190 903,-190 903,-190 873,-190 873,-190 867,-190 861,-184 861,-178 861,-178 861,-166 861,-166 861,-160 867,-154 873,-154"/>
<text text-anchor="middle" x="888" y="-168.3" font-family="georgia" font-size="14.00">σ</text>
</g>
<!-- beta&#45;&gt;sigma -->
<g id="edge16" class="edge"><title>beta&#45;&gt;sigma</title>
<path fill="none" stroke="black" d="M666.271,-308.788C708.356,-320.99 770.641,-331.107 816,-304 853.528,-281.574 872.378,-231.73 880.903,-200.116"/>
<polygon fill="black" stroke="black" points="884.362,-200.711 883.41,-190.159 877.574,-199.001 884.362,-200.711"/>
</g>
<!-- super_beta -->
<g id="node28" class="node"><title>super_beta</title>
<path fill="lightblue" stroke="black" stroke-width="0" d="M720.5,-353C720.5,-353 803.5,-353 803.5,-353 809.5,-353 815.5,-359 815.5,-365 815.5,-365 815.5,-377 815.5,-377 815.5,-383 809.5,-389 803.5,-389 803.5,-389 720.5,-389 720.5,-389 714.5,-389 708.5,-383 708.5,-377 708.5,-377 708.5,-365 708.5,-365 708.5,-359 714.5,-353 720.5,-353"/>
<text text-anchor="middle" x="762" y="-367.3" font-family="georgia" font-size="14.00">super graceful</text>
</g>
<!-- beta&#45;&gt;super_beta -->
<g id="edge31" class="edge"><title>beta&#45;&gt;super_beta</title>
<path fill="none" stroke="black" d="M666.349,-300.413C678.428,-304.418 690.659,-310.317 700,-319 706.711,-325.238 702.054,-331.029 708,-338 710.616,-341.067 713.59,-343.939 716.763,-346.608"/>
<polygon fill="black" stroke="black" points="714.885,-349.576 724.971,-352.821 719.11,-343.995 714.885,-349.576"/>
</g>
<!-- k_graceful -->
<g id="node29" class="node"><title>k_graceful</title>
<path fill="lightblue" stroke="black" stroke-width="0" d="M734,-259C734,-259 790,-259 790,-259 796,-259 802,-265 802,-271 802,-271 802,-283 802,-283 802,-289 796,-295 790,-295 790,-295 734,-295 734,-295 728,-295 722,-289 722,-283 722,-283 722,-271 722,-271 722,-265 728,-259 734,-259"/>
<text text-anchor="middle" x="762" y="-273.3" font-family="georgia" font-size="14.00">k&#45;graceful</text>
</g>
<!-- beta&#45;&gt;k_graceful -->
<g id="edge33" class="edge"><title>beta&#45;&gt;k_graceful</title>
<path fill="none" stroke="black" d="M666.169,-287.088C680.786,-285.533 696.994,-283.809 711.815,-282.232"/>
<polygon fill="black" stroke="black" points="712.244,-285.707 721.817,-281.168 711.503,-278.746 712.244,-285.707"/>
</g>
<!-- seq -->
<g id="node4" class="node"><title>seq</title>
<path fill="#9ac0cd" stroke="black" stroke-width="0" d="M314.5,-428.5C314.5,-428.5 517.5,-428.5 517.5,-428.5 523.5,-428.5 529.5,-434.5 529.5,-440.5 529.5,-440.5 529.5,-479.5 529.5,-479.5 529.5,-485.5 523.5,-491.5 517.5,-491.5 517.5,-491.5 314.5,-491.5 314.5,-491.5 308.5,-491.5 302.5,-485.5 302.5,-479.5 302.5,-479.5 302.5,-440.5 302.5,-440.5 302.5,-434.5 308.5,-428.5 314.5,-428.5"/>
<text text-anchor="start" x="377" y="-473.3" font-family="georgia" font-weight="bold" font-size="14.00">sequential</text>
<text text-anchor="start" x="314.5" y="-459.3" font-family="georgia" font-weight="bold" font-size="14.00">(a, 1)&#45;edge&#45;antimagic vertex</text>
<text text-anchor="start" x="332" y="-439.8" font-family="georgia" font-weight="bold" font-size="14.00">super edge&#45;magic total</text>
<polygon fill="black" stroke="black" points="312,-453 312,-453 522,-453 522,-453 312,-453"/>
</g>
<!-- emt -->
<g id="node17" class="node"><title>emt</title>
<path fill="lightblue" stroke="black" stroke-width="0" d="M569.5,-494C569.5,-494 668.5,-494 668.5,-494 674.5,-494 680.5,-500 680.5,-506 680.5,-506 680.5,-518 680.5,-518 680.5,-524 674.5,-530 668.5,-530 668.5,-530 569.5,-530 569.5,-530 563.5,-530 557.5,-524 557.5,-518 557.5,-518 557.5,-506 557.5,-506 557.5,-500 563.5,-494 569.5,-494"/>
<text text-anchor="middle" x="619" y="-508.3" font-family="georgia" font-size="14.00">edge&#45;magic total</text>
</g>
<!-- seq&#45;&gt;emt -->
<g id="edge5" class="edge"><title>seq&#45;&gt;emt</title>
<path fill="none" stroke="black" d="M529.546,-489.116C535.638,-490.692 541.669,-492.253 547.55,-493.774"/>
<polygon fill="black" stroke="black" points="546.73,-497.177 557.288,-496.293 548.483,-490.4 546.73,-497.177"/>
</g>
<!-- k_seq_add -->
<g id="node33" class="node"><title>k_seq_add</title>
<path fill="lightblue" stroke="black" stroke-width="0" d="M550.5,-549C550.5,-549 687.5,-549 687.5,-549 693.5,-549 699.5,-555 699.5,-561 699.5,-561 699.5,-573 699.5,-573 699.5,-579 693.5,-585 687.5,-585 687.5,-585 550.5,-585 550.5,-585 544.5,-585 538.5,-579 538.5,-573 538.5,-573 538.5,-561 538.5,-561 538.5,-555 544.5,-549 550.5,-549"/>
<text text-anchor="middle" x="619" y="-563.3" font-family="georgia" font-size="14.00">k&#45;sequentially additive</text>
</g>
<!-- seq&#45;&gt;k_seq_add -->
<g id="edge7" class="edge"><title>seq&#45;&gt;k_seq_add</title>
<path fill="none" stroke="black" d="M459.737,-491.55C482.245,-507.208 510.766,-525.59 538,-539 542.311,-541.123 546.824,-543.16 551.417,-545.098"/>
<polygon fill="black" stroke="black" points="550.336,-548.436 560.919,-548.934 552.957,-541.945 550.336,-548.436"/>
</g>
<!-- felicitous -->
<g id="node36" class="node"><title>felicitous</title>
<path fill="lightblue" stroke="black" stroke-width="0" d="M594,-439C594,-439 644,-439 644,-439 650,-439 656,-445 656,-451 656,-451 656,-463 656,-463 656,-469 650,-475 644,-475 644,-475 594,-475 594,-475 588,-475 582,-469 582,-463 582,-463 582,-451 582,-451 582,-445 588,-439 594,-439"/>
<text text-anchor="middle" x="619" y="-453.3" font-family="georgia" font-size="14.00">felicitous</text>
</g>
<!-- seq&#45;&gt;felicitous -->
<g id="edge6" class="edge"><title>seq&#45;&gt;felicitous</title>
<path fill="none" stroke="black" d="M529.546,-458.32C544.263,-458.101 558.631,-457.886 571.362,-457.696"/>
<polygon fill="black" stroke="black" points="571.697,-461.192 581.643,-457.543 571.592,-454.192 571.697,-461.192"/>
</g>
<!-- rho -->
<g id="node5" class="node"><title>rho</title>
<path fill="#9ac0cd" stroke="black" stroke-width="0" d="M980.5,-136C980.5,-136 1145.5,-136 1145.5,-136 1151.5,-136 1157.5,-142 1157.5,-148 1157.5,-148 1157.5,-174 1157.5,-174 1157.5,-180 1151.5,-186 1145.5,-186 1145.5,-186 980.5,-186 980.5,-186 974.5,-186 968.5,-180 968.5,-174 968.5,-174 968.5,-148 968.5,-148 968.5,-142 974.5,-136 980.5,-136"/>
<text text-anchor="start" x="1058.5" y="-168.3" font-family="georgia" font-weight="bold" font-size="14.00">ρ</text>
<text text-anchor="start" x="980.5" y="-147.8" font-family="georgia" font-weight="bold" font-size="14.00">Ringel&#45;Kotzig for K</text>
<text text-anchor="start" x="1123.5" y="-147.8" font-family="georgia" font-weight="bold" baseline-shift="sub" font-size="10.00">2n+1</text>
<polygon fill="black" stroke="black" points="978,-161 978,-161 1150,-161 1150,-161 978,-161"/>
</g>
<!-- rho_bi -->
<g id="node6" class="node"><title>rho_bi</title>
<path fill="#9ac0cd" stroke="black" stroke-width="0" d="M982.5,-205C982.5,-205 1143.5,-205 1143.5,-205 1149.5,-205 1155.5,-211 1155.5,-217 1155.5,-217 1155.5,-243 1155.5,-243 1155.5,-249 1149.5,-255 1143.5,-255 1143.5,-255 982.5,-255 982.5,-255 976.5,-255 970.5,-249 970.5,-243 970.5,-243 970.5,-217 970.5,-217 970.5,-211 976.5,-205 982.5,-205"/>
<text text-anchor="start" x="1019.5" y="-237.3" font-family="georgia" font-weight="bold" font-size="14.00">ρ bigraceful</text>
<text text-anchor="start" x="982.5" y="-216.8" font-family="georgia" font-weight="bold" font-size="14.00">Ringel&#45;Kotzig for K</text>
<text text-anchor="start" x="1125.5" y="-216.8" font-family="georgia" font-weight="bold" baseline-shift="sub" font-size="10.00">n, n</text>
<polygon fill="black" stroke="black" points="980,-230 980,-230 1148,-230 1148,-230 980,-230"/>
</g>
<!-- alpha -->
<g id="node7" class="node"><title>alpha</title>
<path fill="#cd5b45" stroke="#cd5b45" stroke-width="0" d="M65,-220C65,-220 95,-220 95,-220 101,-220 107,-226 107,-232 107,-232 107,-244 107,-244 107,-250 101,-256 95,-256 95,-256 65,-256 65,-256 59,-256 53,-250 53,-244 53,-244 53,-232 53,-232 53,-226 59,-220 65,-220"/>
<text text-anchor="start" x="75" y="-235.3" font-family="georgia" font-weight="bold" font-size="14.00">α</text>
</g>
<!-- beta_plus_seq -->
<g id="node15" class="node"><title>beta_plus_seq</title>
<path fill="lightblue" stroke="black" stroke-width="0" d="M211.5,-220C211.5,-220 242.5,-220 242.5,-220 248.5,-220 254.5,-226 254.5,-232 254.5,-232 254.5,-244 254.5,-244 254.5,-250 248.5,-256 242.5,-256 242.5,-256 211.5,-256 211.5,-256 205.5,-256 199.5,-250 199.5,-244 199.5,-244 199.5,-232 199.5,-232 199.5,-226 205.5,-220 211.5,-220"/>
<text text-anchor="start" x="207.5" y="-235.3" font-family="georgia" font-size="14.00">β</text>
<text text-anchor="start" x="216.5" y="-235.3" font-family="georgia" baseline-shift="super" font-size="10.00">+ </text>
<text text-anchor="start" x="224.5" y="-235.3" font-family="georgia" font-size="14.00">seq</text>
</g>
<!-- alpha&#45;&gt;beta_plus_seq -->
<g id="edge1" class="edge"><title>alpha&#45;&gt;beta_plus_seq</title>
<path fill="none" stroke="black" stroke-dasharray="5,2" d="M107.258,-238C130.212,-238 163.778,-238 189.371,-238"/>
<polygon fill="black" stroke="black" points="189.447,-241.5 199.447,-238 189.447,-234.5 189.447,-241.5"/>
</g>
<!-- seq_plus -->
<g id="node8" class="node"><title>seq_plus</title>
<path fill="coral" stroke="coral" stroke-width="0" d="M212,-468C212,-468 242,-468 242,-468 248,-468 254,-474 254,-480 254,-480 254,-492 254,-492 254,-498 248,-504 242,-504 242,-504 212,-504 212,-504 206,-504 200,-498 200,-492 200,-492 200,-480 200,-480 200,-474 206,-468 212,-468"/>
<text text-anchor="start" x="213" y="-483.3" font-family="georgia" font-size="14.00">seq</text>
<text text-anchor="start" x="235" y="-483.3" font-family="georgia" baseline-shift="super" font-size="10.00">+</text>
</g>
<!-- seq_plus&#45;&gt;seq -->
<g id="edge2" class="edge"><title>seq_plus&#45;&gt;seq</title>
<path fill="none" stroke="black" stroke-dasharray="5,2" d="M254.002,-482.385C264.765,-480.888 278.083,-479.037 292.414,-477.044"/>
<polygon fill="black" stroke="black" points="293.056,-480.489 302.478,-475.645 292.092,-473.555 293.056,-480.489"/>
</g>
<!-- alpha_deg3 -->
<g id="node9" class="node"><title>alpha_deg3</title>
<path fill="lightblue" stroke="black" stroke-dasharray="5,2" d="M28,-165C28,-165 132,-165 132,-165 138,-165 144,-171 144,-177 144,-177 144,-189 144,-189 144,-195 138,-201 132,-201 132,-201 28,-201 28,-201 22,-201 16,-195 16,-189 16,-189 16,-177 16,-177 16,-171 22,-165 28,-165"/>
<text text-anchor="middle" x="80" y="-179.3" font-family="georgia" font-size="14.00">α for max deg = 3</text>
</g>
<!-- beta_rot -->
<g id="node10" class="node"><title>beta_rot</title>
<path fill="lightblue" stroke="black" stroke-dasharray="5,2" d="M344,-318C344,-318 488,-318 488,-318 494,-318 500,-324 500,-330 500,-330 500,-342 500,-342 500,-348 494,-354 488,-354 488,-354 344,-354 344,-354 338,-354 332,-348 332,-342 332,-342 332,-330 332,-330 332,-324 338,-318 344,-318"/>
<text text-anchor="middle" x="416" y="-332.3" font-family="georgia" font-size="14.00">max&#45;edge β&#45;rotatability</text>
</g>
<!-- beta_rot&#45;&gt;beta -->
<g id="edge11" class="edge"><title>beta_rot&#45;&gt;beta</title>
<path fill="none" stroke="black" d="M499.334,-317.977C520.384,-313.369 542.533,-308.52 561.921,-304.276"/>
<polygon fill="black" stroke="black" points="562.768,-307.674 571.788,-302.116 561.271,-300.836 562.768,-307.674"/>
</g>
<!-- any_beta_p -->
<g id="node11" class="node"><title>any_beta_p</title>
<path fill="lightblue" stroke="black" stroke-dasharray="5,2" d="M209.5,-134C209.5,-134 244.5,-134 244.5,-134 250.5,-134 256.5,-140 256.5,-146 256.5,-146 256.5,-158 256.5,-158 256.5,-164 250.5,-170 244.5,-170 244.5,-170 209.5,-170 209.5,-170 203.5,-170 197.5,-164 197.5,-158 197.5,-158 197.5,-146 197.5,-146 197.5,-140 203.5,-134 209.5,-134"/>
<text text-anchor="start" x="205.5" y="-149.3" font-family="georgia" font-size="14.00">any&#45;β</text>
<text text-anchor="start" x="242.5" y="-149.3" font-family="georgia" baseline-shift="super" font-size="10.00">+</text>
</g>
<!-- beta_plus -->
<g id="node16" class="node"><title>beta_plus</title>
<path fill="lightblue" stroke="black" stroke-width="0" d="M401,-181C401,-181 431,-181 431,-181 437,-181 443,-187 443,-193 443,-193 443,-205 443,-205 443,-211 437,-217 431,-217 431,-217 401,-217 401,-217 395,-217 389,-211 389,-205 389,-205 389,-193 389,-193 389,-187 395,-181 401,-181"/>
<text text-anchor="start" x="408.5" y="-196.3" font-family="georgia" font-size="14.00">β</text>
<text text-anchor="start" x="417.5" y="-196.3" font-family="georgia" baseline-shift="super" font-size="10.00">+</text>
</g>
<!-- any_beta_p&#45;&gt;beta_plus -->
<g id="edge22" class="edge"><title>any_beta_p&#45;&gt;beta_plus</title>
<path fill="none" stroke="black" d="M256.809,-159.241C289.632,-167.49 343.316,-180.983 378.903,-189.928"/>
<polygon fill="black" stroke="black" points="378.324,-193.391 388.875,-192.434 380.03,-186.602 378.324,-193.391"/>
</g>
<!-- any_beta -->
<g id="node24" class="node"><title>any_beta</title>
<path fill="lightblue" stroke="black" stroke-width="0" d="M401,-98C401,-98 431,-98 431,-98 437,-98 443,-104 443,-110 443,-110 443,-122 443,-122 443,-128 437,-134 431,-134 431,-134 401,-134 401,-134 395,-134 389,-128 389,-122 389,-122 389,-110 389,-110 389,-104 395,-98 401,-98"/>
<text text-anchor="start" x="397.5" y="-112.3" font-family="georgia" font-size="14.00">any&#45;β</text>
</g>
<!-- any_beta_p&#45;&gt;any_beta -->
<g id="edge23" class="edge"><title>any_beta_p&#45;&gt;any_beta</title>
<path fill="none" stroke="black" d="M256.809,-146.454C289.632,-140.135 343.316,-129.8 378.903,-122.949"/>
<polygon fill="black" stroke="black" points="379.717,-126.357 388.875,-121.029 378.394,-119.483 379.717,-126.357"/>
</g>
<!-- elegant -->
<g id="node12" class="node"><title>elegant</title>
<path fill="lightblue" stroke="black" stroke-dasharray="5,2" d="M600,-384C600,-384 638,-384 638,-384 644,-384 650,-390 650,-396 650,-396 650,-408 650,-408 650,-414 644,-420 638,-420 638,-420 600,-420 600,-420 594,-420 588,-414 588,-408 588,-408 588,-396 588,-396 588,-390 594,-384 600,-384"/>
<text text-anchor="middle" x="619" y="-398.3" font-family="georgia" font-size="14.00">elegant</text>
</g>
<!-- elegant&#45;&gt;cordial -->
<g id="edge36" class="edge"><title>elegant&#45;&gt;cordial</title>
<path fill="none" stroke="black" d="M650.248,-407.149C671.019,-410.684 698.8,-415.413 721.342,-419.25"/>
<polygon fill="black" stroke="black" points="720.84,-422.715 731.286,-420.942 722.015,-415.814 720.84,-422.715"/>
</g>
<!-- beta_vs_seq -->
<g id="node13" class="node"><title>beta_vs_seq</title>
<path fill="lightblue" stroke="black" stroke-dasharray="5,2" d="M172,-328C172,-328 282,-328 282,-328 288,-328 294,-334 294,-340 294,-340 294,-352 294,-352 294,-358 288,-364 282,-364 282,-364 172,-364 172,-364 166,-364 160,-358 160,-352 160,-352 160,-340 160,-340 160,-334 166,-328 172,-328"/>
<text text-anchor="middle" x="227" y="-342.3" font-family="georgia" font-size="14.00">between β and seq</text>
</g>
<!-- beta_vs_seq&#45;&gt;beta -->
<g id="edge41" class="edge"><title>beta_vs_seq&#45;&gt;beta</title>
<path fill="none" stroke="black" d="M256.37,-327.839C269.686,-320.275 286.1,-312.272 302,-308 390.318,-284.269 497.408,-284.637 561.503,-287.796"/>
<polygon fill="black" stroke="black" points="561.624,-291.307 571.797,-288.346 561.998,-284.317 561.624,-291.307"/>
</g>
<!-- beta_vs_seq&#45;&gt;seq -->
<g id="edge42" class="edge"><title>beta_vs_seq&#45;&gt;seq</title>
<path fill="none" stroke="black" d="M253.199,-364.138C266.429,-374.502 282.28,-388.334 294,-403 298.717,-408.902 296.311,-413.027 302,-418 303.76,-419.539 305.582,-421.023 307.457,-422.455"/>
<polygon fill="black" stroke="black" points="305.784,-425.555 315.989,-428.403 309.787,-419.813 305.784,-425.555"/>
</g>
<!-- beta_vs_felicitous -->
<g id="node14" class="node"><title>beta_vs_felicitous</title>
<path fill="lightblue" stroke="black" stroke-dasharray="5,2" d="M343,-373C343,-373 489,-373 489,-373 495,-373 501,-379 501,-385 501,-385 501,-397 501,-397 501,-403 495,-409 489,-409 489,-409 343,-409 343,-409 337,-409 331,-403 331,-397 331,-397 331,-385 331,-385 331,-379 337,-373 343,-373"/>
<text text-anchor="middle" x="416" y="-387.3" font-family="georgia" font-size="14.00">between β and felicitous</text>
</g>
<!-- beta_vs_felicitous&#45;&gt;beta -->
<g id="edge43" class="edge"><title>beta_vs_felicitous&#45;&gt;beta</title>
<path fill="none" stroke="black" d="M501.111,-381.885C511.963,-377.552 522.045,-371.473 530,-363 543.605,-348.509 525.005,-334.04 538,-319 544.402,-311.591 552.909,-306.21 561.988,-302.304"/>
<polygon fill="black" stroke="black" points="563.431,-305.501 571.591,-298.743 560.998,-298.938 563.431,-305.501"/>
</g>
<!-- beta_vs_felicitous&#45;&gt;felicitous -->
<g id="edge44" class="edge"><title>beta_vs_felicitous&#45;&gt;felicitous</title>
<path fill="none" stroke="black" d="M501.045,-405.208C511.231,-408.813 521.149,-413.333 530,-419 534.793,-422.069 533.356,-425.71 538,-429 548.131,-436.177 560.274,-441.665 572.003,-445.797"/>
<polygon fill="black" stroke="black" points="571.112,-449.188 581.704,-448.957 573.279,-442.532 571.112,-449.188"/>
</g>
<!-- beta_plus_seq&#45;&gt;seq -->
<g id="edge3" class="edge"><title>beta_plus_seq&#45;&gt;seq</title>
<path fill="none" stroke="black" d="M248.619,-256.122C264.053,-271.04 284.132,-293.635 294,-318 302.369,-338.663 288.555,-400.217 302,-418 302.817,-419.08 303.664,-420.132 304.54,-421.157"/>
<polygon fill="black" stroke="black" points="302.271,-423.841 311.787,-428.499 307.253,-418.923 302.271,-423.841"/>
</g>
<!-- beta_plus_seq&#45;&gt;beta_plus -->
<g id="edge4" class="edge"><title>beta_plus_seq&#45;&gt;beta_plus</title>
<path fill="none" stroke="black" d="M254.793,-232.412C287.331,-225.626 342.36,-214.149 378.688,-206.573"/>
<polygon fill="black" stroke="black" points="379.785,-209.92 388.86,-204.452 378.356,-203.067 379.785,-209.92"/>
</g>
<!-- beta_plus&#45;&gt;beta -->
<g id="edge9" class="edge"><title>beta_plus&#45;&gt;beta</title>
<path fill="none" stroke="black" d="M443.277,-211.158C475.295,-225.972 530.02,-251.293 569.708,-269.656"/>
<polygon fill="black" stroke="black" points="568.398,-272.906 578.943,-273.929 571.338,-266.553 568.398,-272.906"/>
</g>
<!-- rho_sigma -->
<g id="node19" class="node"><title>rho_sigma</title>
<path fill="lightblue" stroke="black" stroke-width="0" d="M602,-174C602,-174 636,-174 636,-174 642,-174 648,-180 648,-186 648,-186 648,-212 648,-212 648,-218 642,-224 636,-224 636,-224 602,-224 602,-224 596,-224 590,-218 590,-212 590,-212 590,-186 590,-186 590,-180 596,-174 602,-174"/>
<text text-anchor="start" x="601.5" y="-206.3" font-family="georgia" font-size="14.00">ρ</text>
<text text-anchor="start" x="610.5" y="-206.3" font-family="georgia" baseline-shift="super" font-size="10.00">++ </text>
<text text-anchor="start" x="623.5" y="-206.3" font-family="georgia" font-size="14.00">bi</text>
<text text-anchor="start" x="609" y="-185.8" font-family="georgia" font-size="14.00">σ</text>
<text text-anchor="start" x="618" y="-185.8" font-family="georgia" baseline-shift="super" font-size="10.00">++</text>
<polygon fill="black" stroke="black" points="599,-199 599,-199 640,-199 640,-199 599,-199"/>
</g>
<!-- beta_plus&#45;&gt;rho_sigma -->
<g id="edge8" class="edge"><title>beta_plus&#45;&gt;rho_sigma</title>
<path fill="none" stroke="black" d="M443.277,-199C478.053,-199 539.617,-199 579.605,-199"/>
<polygon fill="black" stroke="black" points="579.774,-202.5 589.774,-199 579.774,-195.5 579.774,-202.5"/>
</g>
<!-- odd_beta_plus -->
<g id="node26" class="node"><title>odd_beta_plus</title>
<path fill="lightblue" stroke="black" stroke-width="0" d="M744,-0C744,-0 780,-0 780,-0 786,-0 792,-6 792,-12 792,-12 792,-24 792,-24 792,-30 786,-36 780,-36 780,-36 744,-36 744,-36 738,-36 732,-30 732,-24 732,-24 732,-12 732,-12 732,-6 738,-0 744,-0"/>
<text text-anchor="start" x="740" y="-15.3" font-family="georgia" font-size="14.00">odd&#45;β</text>
<text text-anchor="start" x="778" y="-15.3" font-family="georgia" baseline-shift="super" font-size="10.00">+</text>
</g>
<!-- beta_plus&#45;&gt;odd_beta_plus -->
<g id="edge10" class="edge"><title>beta_plus&#45;&gt;odd_beta_plus</title>
<path fill="none" stroke="black" d="M443.341,-191.007C467.788,-183.678 505.234,-172.678 538,-164 609.589,-145.04 651.329,-180.817 700,-125 711.742,-111.534 697.917,-59.7494 708,-45 711.748,-39.5174 716.958,-35.0855 722.658,-31.5223"/>
<polygon fill="black" stroke="black" points="724.699,-34.4012 731.881,-26.6121 721.409,-28.2223 724.699,-34.4012"/>
</g>
<!-- harm -->
<g id="node18" class="node"><title>harm</title>
<path fill="lightblue" stroke="black" stroke-width="0" d="M853.5,-357C853.5,-357 922.5,-357 922.5,-357 928.5,-357 934.5,-363 934.5,-369 934.5,-369 934.5,-381 934.5,-381 934.5,-387 928.5,-393 922.5,-393 922.5,-393 853.5,-393 853.5,-393 847.5,-393 841.5,-387 841.5,-381 841.5,-381 841.5,-369 841.5,-369 841.5,-363 847.5,-357 853.5,-357"/>
<text text-anchor="middle" x="888" y="-371.3" font-family="georgia" font-size="14.00">harmonious</text>
</g>
<!-- harm&#45;&gt;rho_bi -->
<g id="edge37" class="edge"><title>harm&#45;&gt;rho_bi</title>
<path fill="none" stroke="black" d="M910.561,-356.929C938.904,-333.173 989.168,-291.044 1023.97,-261.874"/>
<polygon fill="black" stroke="black" points="1026.61,-264.23 1032.02,-255.124 1022.11,-258.865 1026.61,-264.23"/>
</g>
<!-- rho_sigma&#45;&gt;rho_bi -->
<g id="edge12" class="edge"><title>rho_sigma&#45;&gt;rho_bi</title>
<path fill="none" stroke="black" d="M648.086,-203.004C665.34,-205.341 687.913,-208.179 708,-210 792.725,-217.68 889.143,-222.896 959.936,-226.071"/>
<polygon fill="black" stroke="black" points="960.046,-229.58 970.191,-226.525 960.355,-222.586 960.046,-229.58"/>
</g>
<!-- rho_pp -->
<g id="node20" class="node"><title>rho_pp</title>
<path fill="lightblue" stroke="black" stroke-width="0" d="M747,-55C747,-55 777,-55 777,-55 783,-55 789,-61 789,-67 789,-67 789,-79 789,-79 789,-85 783,-91 777,-91 777,-91 747,-91 747,-91 741,-91 735,-85 735,-79 735,-79 735,-67 735,-67 735,-61 741,-55 747,-55"/>
<text text-anchor="start" x="752" y="-70.3" font-family="georgia" font-size="14.00">ρ</text>
<text text-anchor="start" x="761" y="-70.3" font-family="georgia" baseline-shift="super" font-size="10.00">++</text>
</g>
<!-- rho_sigma&#45;&gt;rho_pp -->
<g id="edge13" class="edge"><title>rho_sigma&#45;&gt;rho_pp</title>
<path fill="none" stroke="black" d="M648.156,-192.195C665.903,-186.392 687.713,-176.176 700,-159 715.396,-137.478 692.685,-121.58 708,-100 712.438,-93.7472 718.76,-88.8501 725.499,-85.0485"/>
<polygon fill="black" stroke="black" points="727.35,-88.0405 734.812,-80.5188 724.288,-81.7457 727.35,-88.0405"/>
</g>
<!-- sigma_p -->
<g id="node21" class="node"><title>sigma_p</title>
<path fill="lightblue" stroke="black" stroke-width="0" d="M747,-110C747,-110 777,-110 777,-110 783,-110 789,-116 789,-122 789,-122 789,-134 789,-134 789,-140 783,-146 777,-146 777,-146 747,-146 747,-146 741,-146 735,-140 735,-134 735,-134 735,-122 735,-122 735,-116 741,-110 747,-110"/>
<text text-anchor="start" x="754.5" y="-125.3" font-family="georgia" font-size="14.00">σ</text>
<text text-anchor="start" x="763.5" y="-125.3" font-family="georgia" baseline-shift="super" font-size="10.00">+</text>
</g>
<!-- rho_sigma&#45;&gt;sigma_p -->
<g id="edge14" class="edge"><title>rho_sigma&#45;&gt;sigma_p</title>
<path fill="none" stroke="black" d="M648.16,-184.976C663.499,-177.323 682.806,-167.667 700,-159 708.413,-154.759 717.469,-150.17 725.96,-145.856"/>
<polygon fill="black" stroke="black" points="727.569,-148.965 734.897,-141.313 724.397,-142.725 727.569,-148.965"/>
</g>
<!-- alpha_2 -->
<g id="node34" class="node"><title>alpha_2</title>
<path fill="lightblue" stroke="black" stroke-width="0" d="M747,-165C747,-165 777,-165 777,-165 783,-165 789,-171 789,-177 789,-177 789,-189 789,-189 789,-195 783,-201 777,-201 777,-201 747,-201 747,-201 741,-201 735,-195 735,-189 735,-189 735,-177 735,-177 735,-171 741,-165 747,-165"/>
<text text-anchor="start" x="754" y="-180.3" font-family="georgia" font-size="14.00">α</text>
<text text-anchor="start" x="763" y="-180.3" font-family="georgia" baseline-shift="sub" font-size="10.00">2</text>
</g>
<!-- rho_sigma&#45;&gt;alpha_2 -->
<g id="edge15" class="edge"><title>rho_sigma&#45;&gt;alpha_2</title>
<path fill="none" stroke="black" d="M648.195,-195.801C670.177,-193.306 700.866,-189.824 724.686,-187.121"/>
<polygon fill="black" stroke="black" points="725.218,-190.583 734.759,-185.978 724.428,-183.628 725.218,-190.583"/>
</g>
<!-- rho_p -->
<g id="node23" class="node"><title>rho_p</title>
<path fill="lightblue" stroke="black" stroke-width="0" d="M873,-86C873,-86 903,-86 903,-86 909,-86 915,-92 915,-98 915,-98 915,-110 915,-110 915,-116 909,-122 903,-122 903,-122 873,-122 873,-122 867,-122 861,-116 861,-110 861,-110 861,-98 861,-98 861,-92 867,-86 873,-86"/>
<text text-anchor="start" x="880.5" y="-101.3" font-family="georgia" font-size="14.00">ρ</text>
<text text-anchor="start" x="889.5" y="-101.3" font-family="georgia" baseline-shift="super" font-size="10.00">+</text>
</g>
<!-- rho_pp&#45;&gt;rho_p -->
<g id="edge17" class="edge"><title>rho_pp&#45;&gt;rho_p</title>
<path fill="none" stroke="black" d="M789.297,-79.5743C807.217,-84.0542 831.173,-90.0431 850.878,-94.9695"/>
<polygon fill="black" stroke="black" points="850.19,-98.4052 860.741,-97.4352 851.888,-91.6142 850.19,-98.4052"/>
</g>
<!-- sigma_p&#45;&gt;sigma -->
<g id="edge18" class="edge"><title>sigma_p&#45;&gt;sigma</title>
<path fill="none" stroke="black" d="M789.297,-137.331C807.299,-143.719 831.392,-152.268 851.149,-159.279"/>
<polygon fill="black" stroke="black" points="850.146,-162.637 860.741,-162.682 852.487,-156.04 850.146,-162.637"/>
</g>
<!-- sigma_p&#45;&gt;rho_p -->
<g id="edge19" class="edge"><title>sigma_p&#45;&gt;rho_p</title>
<path fill="none" stroke="black" d="M789.297,-122.91C807.217,-119.442 831.173,-114.805 850.878,-110.991"/>
<polygon fill="black" stroke="black" points="851.588,-114.419 860.741,-109.082 850.258,-107.547 851.588,-114.419"/>
</g>
<!-- sigma&#45;&gt;rho -->
<g id="edge20" class="edge"><title>sigma&#45;&gt;rho</title>
<path fill="none" stroke="black" d="M915.275,-170.329C927.33,-169.563 942.482,-168.599 958.442,-167.585"/>
<polygon fill="black" stroke="black" points="958.705,-171.075 968.463,-166.947 958.261,-164.089 958.705,-171.075"/>
</g>
<!-- rho_p&#45;&gt;rho -->
<g id="edge21" class="edge"><title>rho_p&#45;&gt;rho</title>
<path fill="none" stroke="black" d="M915.275,-112.657C931.817,-118.107 954.192,-125.479 976.48,-132.823"/>
<polygon fill="black" stroke="black" points="975.417,-136.158 986.01,-135.963 977.607,-129.509 975.417,-136.158"/>
</g>
<!-- any_beta&#45;&gt;beta -->
<g id="edge24" class="edge"><title>any_beta&#45;&gt;beta</title>
<path fill="none" stroke="black" d="M443.175,-121.19C469.602,-127.896 509.374,-142.296 530,-171 546.213,-193.563 523.91,-209.054 538,-233 546.328,-247.153 559.518,-258.937 572.805,-268.156"/>
<polygon fill="black" stroke="black" points="571.215,-271.299 581.5,-273.844 575.047,-265.441 571.215,-271.299"/>
</g>
<!-- triangular -->
<g id="node30" class="node"><title>triangular</title>
<path fill="lightblue" stroke="black" stroke-width="0" d="M575,-80C575,-80 663,-80 663,-80 669,-80 675,-86 675,-92 675,-92 675,-104 675,-104 675,-110 669,-116 663,-116 663,-116 575,-116 575,-116 569,-116 563,-110 563,-104 563,-104 563,-92 563,-92 563,-86 569,-80 575,-80"/>
<text text-anchor="middle" x="619" y="-94.3" font-family="georgia" font-size="14.00">triangular sum</text>
</g>
<!-- any_beta&#45;&gt;triangular -->
<g id="edge25" class="edge"><title>any_beta&#45;&gt;triangular</title>
<path fill="none" stroke="black" d="M443.277,-113.647C470.901,-111.173 515.429,-107.185 552.619,-103.855"/>
<polygon fill="black" stroke="black" points="553.245,-107.313 562.893,-102.935 552.621,-100.341 553.245,-107.313"/>
</g>
<!-- fibonacci -->
<g id="node31" class="node"><title>fibonacci</title>
<path fill="lightblue" stroke="black" stroke-width="0" d="M564,-25C564,-25 674,-25 674,-25 680,-25 686,-31 686,-37 686,-37 686,-49 686,-49 686,-55 680,-61 674,-61 674,-61 564,-61 564,-61 558,-61 552,-55 552,-49 552,-49 552,-37 552,-37 552,-31 558,-25 564,-25"/>
<text text-anchor="middle" x="619" y="-39.3" font-family="georgia" font-size="14.00">Fibonacci graceful</text>
</g>
<!-- any_beta&#45;&gt;fibonacci -->
<g id="edge26" class="edge"><title>any_beta&#45;&gt;fibonacci</title>
<path fill="none" stroke="black" d="M443.33,-105.661C467.77,-96.1434 505.211,-81.761 538,-70 543.174,-68.1441 548.549,-66.2525 553.955,-64.3756"/>
<polygon fill="black" stroke="black" points="555.368,-67.5908 563.682,-61.0238 553.087,-60.9726 555.368,-67.5908"/>
</g>
<!-- any_seq -->
<g id="node25" class="node"><title>any_seq</title>
<path fill="lightblue" stroke="black" stroke-width="0" d="M206.5,-413C206.5,-413 247.5,-413 247.5,-413 253.5,-413 259.5,-419 259.5,-425 259.5,-425 259.5,-437 259.5,-437 259.5,-443 253.5,-449 247.5,-449 247.5,-449 206.5,-449 206.5,-449 200.5,-449 194.5,-443 194.5,-437 194.5,-437 194.5,-425 194.5,-425 194.5,-419 200.5,-413 206.5,-413"/>
<text text-anchor="middle" x="227" y="-427.3" font-family="georgia" font-size="14.00">any&#45;seq</text>
</g>
<!-- any_seq&#45;&gt;seq -->
<g id="edge27" class="edge"><title>any_seq&#45;&gt;seq</title>
<path fill="none" stroke="black" d="M259.722,-435.919C269.247,-437.397 280.32,-439.114 292.085,-440.938"/>
<polygon fill="black" stroke="black" points="291.693,-444.419 302.111,-442.493 292.765,-437.502 291.693,-444.419"/>
</g>
<!-- odd_beta_plus&#45;&gt;rho_p -->
<g id="edge28" class="edge"><title>odd_beta_plus&#45;&gt;rho_p</title>
<path fill="none" stroke="black" d="M792.144,-28.3454C800.677,-32.4807 809.46,-37.967 816,-45 822.239,-51.7098 818.085,-57.0029 824,-64 831.698,-73.1064 842.005,-80.8352 852.048,-86.9999"/>
<polygon fill="black" stroke="black" points="850.324,-90.0456 860.735,-92.01 853.821,-83.9819 850.324,-90.0456"/>
</g>
<!-- odd_beta -->
<g id="node27" class="node"><title>odd_beta</title>
<path fill="lightblue" stroke="black" stroke-width="0" d="M836,-5C836,-5 940,-5 940,-5 946,-5 952,-11 952,-17 952,-17 952,-43 952,-43 952,-49 946,-55 940,-55 940,-55 836,-55 836,-55 830,-55 824,-49 824,-43 824,-43 824,-17 824,-17 824,-11 830,-5 836,-5"/>
<text text-anchor="start" x="847.5" y="-36.3" font-family="georgia" font-size="14.00">odd&#45;graceful</text>
<text text-anchor="start" x="835.5" y="-15.8" font-family="georgia" font-size="14.00">odd harmonious</text>
<polygon fill="black" stroke="black" points="833,-30 833,-30 944,-30 944,-30 833,-30"/>
</g>
<!-- odd_beta_plus&#45;&gt;odd_beta -->
<g id="edge29" class="edge"><title>odd_beta_plus&#45;&gt;odd_beta</title>
<path fill="none" stroke="black" d="M792.072,-20.8135C798.742,-21.4589 806.128,-22.1737 813.748,-22.9111"/>
<polygon fill="black" stroke="black" points="813.57,-26.4101 823.861,-23.8897 814.244,-19.4427 813.57,-26.4101"/>
</g>
<!-- odd_beta&#45;&gt;rho -->
<g id="edge30" class="edge"><title>odd_beta&#45;&gt;rho</title>
<path fill="none" stroke="black" d="M923.785,-55.1391C932.995,-61.8659 942.905,-69.1673 952,-76 975.338,-93.532 1001.18,-113.47 1021.94,-129.628"/>
<polygon fill="black" stroke="black" points="1019.89,-132.464 1029.93,-135.849 1024.19,-126.942 1019.89,-132.464"/>
</g>
<!-- one_seq_add -->
<g id="node32" class="node"><title>one_seq_add</title>
<path fill="lightblue" stroke="black" stroke-width="0" d="M348.5,-549C348.5,-549 483.5,-549 483.5,-549 489.5,-549 495.5,-555 495.5,-561 495.5,-561 495.5,-573 495.5,-573 495.5,-579 489.5,-585 483.5,-585 483.5,-585 348.5,-585 348.5,-585 342.5,-585 336.5,-579 336.5,-573 336.5,-573 336.5,-561 336.5,-561 336.5,-555 342.5,-549 348.5,-549"/>
<text text-anchor="middle" x="416" y="-563.3" font-family="georgia" font-size="14.00">1&#45;sequentially additive</text>
</g>
<!-- one_seq_add&#45;&gt;k_seq_add -->
<g id="edge38" class="edge"><title>one_seq_add&#45;&gt;k_seq_add</title>
<path fill="none" stroke="black" d="M495.575,-567C506.366,-567 517.511,-567 528.479,-567"/>
<polygon fill="black" stroke="black" points="528.487,-570.5 538.487,-567 528.487,-563.5 528.487,-570.5"/>
</g>
<!-- alpha_2&#45;&gt;sigma -->
<g id="edge40" class="edge"><title>alpha_2&#45;&gt;sigma</title>
<path fill="none" stroke="black" d="M789.297,-180.667C807.135,-179.085 830.953,-176.972 850.607,-175.228"/>
<polygon fill="black" stroke="black" points="851.089,-178.699 860.741,-174.329 850.471,-171.727 851.089,-178.699"/>
</g>
<!-- one_seq_add_plus -->
<g id="node35" class="node"><title>one_seq_add_plus</title>
<path fill="lightblue" stroke="black" stroke-width="0" d="M197.5,-549C197.5,-549 256.5,-549 256.5,-549 262.5,-549 268.5,-555 268.5,-561 268.5,-561 268.5,-573 268.5,-573 268.5,-579 262.5,-585 256.5,-585 256.5,-585 197.5,-585 197.5,-585 191.5,-585 185.5,-579 185.5,-573 185.5,-573 185.5,-561 185.5,-561 185.5,-555 191.5,-549 197.5,-549"/>
<text text-anchor="start" x="193.5" y="-564.3" font-family="georgia" font-size="14.00">1&#45;seq add</text>
<text text-anchor="start" x="254.5" y="-564.3" font-family="georgia" baseline-shift="super" font-size="10.00">+</text>
</g>
<!-- one_seq_add_plus&#45;&gt;one_seq_add -->
<g id="edge39" class="edge"><title>one_seq_add_plus&#45;&gt;one_seq_add</title>
<path fill="none" stroke="black" d="M268.576,-567C285.576,-567 306.057,-567 326.242,-567"/>
<polygon fill="black" stroke="black" points="326.43,-570.5 336.43,-567 326.43,-563.5 326.43,-570.5"/>
</g>
<!-- felicitous&#45;&gt;cordial -->
<g id="edge34" class="edge"><title>felicitous&#45;&gt;cordial</title>
<path fill="none" stroke="black" d="M656.311,-449.017C676.275,-444.628 701.064,-439.177 721.509,-434.682"/>
<polygon fill="black" stroke="black" points="722.44,-438.061 731.455,-432.496 720.937,-431.225 722.44,-438.061"/>
</g>
<!-- felicitous&#45;&gt;harm -->
<g id="edge35" class="edge"><title>felicitous&#45;&gt;harm</title>
<path fill="none" stroke="black" d="M656.2,-464.469C697.015,-471.079 764.405,-476.436 816,-453 839.497,-442.327 858.642,-419.764 871.105,-401.639"/>
<polygon fill="black" stroke="black" points="874.104,-403.447 876.676,-393.169 868.256,-399.6 874.104,-403.447"/>
</g>
</g>
</svg>
